%TF.GenerationSoftware,KiCad,Pcbnew,7.0.10*%
%TF.CreationDate,2024-01-18T23:13:20-08:00*%
%TF.ProjectId,r2dtf dev board rev 1,72326474-6620-4646-9576-20626f617264,rev?*%
%TF.SameCoordinates,Original*%
%TF.FileFunction,Drillmap*%
%TF.FilePolarity,Positive*%
%FSLAX45Y45*%
G04 Gerber Fmt 4.5, Leading zero omitted, Abs format (unit mm)*
G04 Created by KiCad (PCBNEW 7.0.10) date 2024-01-18 23:13:20*
%MOMM*%
%LPD*%
G01*
G04 APERTURE LIST*
%ADD10C,0.100000*%
%ADD11C,0.200000*%
%ADD12C,0.320000*%
G04 APERTURE END LIST*
D10*
X17000000Y-6200000D02*
G75*
G03*
X16800000Y-6000000I-200000J0D01*
G01*
X5401421Y-6000001D02*
G75*
G03*
X5201421Y-6200000I-1J-199999D01*
G01*
X16800000Y-6000000D02*
X5401421Y-6000000D01*
X5401421Y-13558579D02*
X16800000Y-13558579D01*
X17000000Y-13358579D02*
X17000000Y-6200000D01*
X5201421Y-13358579D02*
G75*
G03*
X5401421Y-13558579I199999J-1D01*
G01*
X5201421Y-6200000D02*
X5201421Y-13358579D01*
X16800000Y-13558580D02*
G75*
G03*
X17000000Y-13358579I0J200000D01*
G01*
D11*
D12*
X5640000Y-6440000D02*
X5960000Y-6760000D01*
X5960000Y-6440000D02*
X5640000Y-6760000D01*
X6490000Y-10640000D02*
X6810000Y-10960000D01*
X6810000Y-10640000D02*
X6490000Y-10960000D01*
X14170000Y-6560000D02*
X14490000Y-6880000D01*
X14490000Y-6560000D02*
X14170000Y-6880000D01*
X16390000Y-12940000D02*
X16710000Y-13260000D01*
X16710000Y-12940000D02*
X16390000Y-13260000D01*
D11*
X5457198Y-13875062D02*
X5457198Y-13675062D01*
X5457198Y-13675062D02*
X5504817Y-13675062D01*
X5504817Y-13675062D02*
X5533389Y-13684586D01*
X5533389Y-13684586D02*
X5552436Y-13703634D01*
X5552436Y-13703634D02*
X5561960Y-13722681D01*
X5561960Y-13722681D02*
X5571484Y-13760777D01*
X5571484Y-13760777D02*
X5571484Y-13789348D01*
X5571484Y-13789348D02*
X5561960Y-13827443D01*
X5561960Y-13827443D02*
X5552436Y-13846491D01*
X5552436Y-13846491D02*
X5533389Y-13865539D01*
X5533389Y-13865539D02*
X5504817Y-13875062D01*
X5504817Y-13875062D02*
X5457198Y-13875062D01*
X5657198Y-13875062D02*
X5657198Y-13741729D01*
X5657198Y-13779824D02*
X5666722Y-13760777D01*
X5666722Y-13760777D02*
X5676246Y-13751253D01*
X5676246Y-13751253D02*
X5695293Y-13741729D01*
X5695293Y-13741729D02*
X5714341Y-13741729D01*
X5781008Y-13875062D02*
X5781008Y-13741729D01*
X5781008Y-13675062D02*
X5771484Y-13684586D01*
X5771484Y-13684586D02*
X5781008Y-13694110D01*
X5781008Y-13694110D02*
X5790531Y-13684586D01*
X5790531Y-13684586D02*
X5781008Y-13675062D01*
X5781008Y-13675062D02*
X5781008Y-13694110D01*
X5904817Y-13875062D02*
X5885770Y-13865539D01*
X5885770Y-13865539D02*
X5876246Y-13846491D01*
X5876246Y-13846491D02*
X5876246Y-13675062D01*
X6009579Y-13875062D02*
X5990531Y-13865539D01*
X5990531Y-13865539D02*
X5981008Y-13846491D01*
X5981008Y-13846491D02*
X5981008Y-13675062D01*
X6238151Y-13875062D02*
X6238151Y-13675062D01*
X6238151Y-13675062D02*
X6304817Y-13817919D01*
X6304817Y-13817919D02*
X6371484Y-13675062D01*
X6371484Y-13675062D02*
X6371484Y-13875062D01*
X6552436Y-13875062D02*
X6552436Y-13770300D01*
X6552436Y-13770300D02*
X6542912Y-13751253D01*
X6542912Y-13751253D02*
X6523865Y-13741729D01*
X6523865Y-13741729D02*
X6485770Y-13741729D01*
X6485770Y-13741729D02*
X6466722Y-13751253D01*
X6552436Y-13865539D02*
X6533389Y-13875062D01*
X6533389Y-13875062D02*
X6485770Y-13875062D01*
X6485770Y-13875062D02*
X6466722Y-13865539D01*
X6466722Y-13865539D02*
X6457198Y-13846491D01*
X6457198Y-13846491D02*
X6457198Y-13827443D01*
X6457198Y-13827443D02*
X6466722Y-13808396D01*
X6466722Y-13808396D02*
X6485770Y-13798872D01*
X6485770Y-13798872D02*
X6533389Y-13798872D01*
X6533389Y-13798872D02*
X6552436Y-13789348D01*
X6647674Y-13741729D02*
X6647674Y-13941729D01*
X6647674Y-13751253D02*
X6666722Y-13741729D01*
X6666722Y-13741729D02*
X6704817Y-13741729D01*
X6704817Y-13741729D02*
X6723865Y-13751253D01*
X6723865Y-13751253D02*
X6733389Y-13760777D01*
X6733389Y-13760777D02*
X6742912Y-13779824D01*
X6742912Y-13779824D02*
X6742912Y-13836967D01*
X6742912Y-13836967D02*
X6733389Y-13856015D01*
X6733389Y-13856015D02*
X6723865Y-13865539D01*
X6723865Y-13865539D02*
X6704817Y-13875062D01*
X6704817Y-13875062D02*
X6666722Y-13875062D01*
X6666722Y-13875062D02*
X6647674Y-13865539D01*
X6828627Y-13856015D02*
X6838151Y-13865539D01*
X6838151Y-13865539D02*
X6828627Y-13875062D01*
X6828627Y-13875062D02*
X6819103Y-13865539D01*
X6819103Y-13865539D02*
X6828627Y-13856015D01*
X6828627Y-13856015D02*
X6828627Y-13875062D01*
X6828627Y-13751253D02*
X6838151Y-13760777D01*
X6838151Y-13760777D02*
X6828627Y-13770300D01*
X6828627Y-13770300D02*
X6819103Y-13760777D01*
X6819103Y-13760777D02*
X6828627Y-13751253D01*
X6828627Y-13751253D02*
X6828627Y-13770300D01*
X4996421Y-14103579D02*
X5196421Y-14303579D01*
X5196421Y-14103579D02*
X4996421Y-14303579D01*
X5438151Y-14095062D02*
X5561960Y-14095062D01*
X5561960Y-14095062D02*
X5495293Y-14171253D01*
X5495293Y-14171253D02*
X5523865Y-14171253D01*
X5523865Y-14171253D02*
X5542913Y-14180777D01*
X5542913Y-14180777D02*
X5552436Y-14190300D01*
X5552436Y-14190300D02*
X5561960Y-14209348D01*
X5561960Y-14209348D02*
X5561960Y-14256967D01*
X5561960Y-14256967D02*
X5552436Y-14276015D01*
X5552436Y-14276015D02*
X5542913Y-14285539D01*
X5542913Y-14285539D02*
X5523865Y-14295062D01*
X5523865Y-14295062D02*
X5466722Y-14295062D01*
X5466722Y-14295062D02*
X5447674Y-14285539D01*
X5447674Y-14285539D02*
X5438151Y-14276015D01*
X5647674Y-14276015D02*
X5657198Y-14285539D01*
X5657198Y-14285539D02*
X5647674Y-14295062D01*
X5647674Y-14295062D02*
X5638151Y-14285539D01*
X5638151Y-14285539D02*
X5647674Y-14276015D01*
X5647674Y-14276015D02*
X5647674Y-14295062D01*
X5733389Y-14114110D02*
X5742912Y-14104586D01*
X5742912Y-14104586D02*
X5761960Y-14095062D01*
X5761960Y-14095062D02*
X5809579Y-14095062D01*
X5809579Y-14095062D02*
X5828627Y-14104586D01*
X5828627Y-14104586D02*
X5838151Y-14114110D01*
X5838151Y-14114110D02*
X5847674Y-14133158D01*
X5847674Y-14133158D02*
X5847674Y-14152205D01*
X5847674Y-14152205D02*
X5838151Y-14180777D01*
X5838151Y-14180777D02*
X5723865Y-14295062D01*
X5723865Y-14295062D02*
X5847674Y-14295062D01*
X5971484Y-14095062D02*
X5990532Y-14095062D01*
X5990532Y-14095062D02*
X6009579Y-14104586D01*
X6009579Y-14104586D02*
X6019103Y-14114110D01*
X6019103Y-14114110D02*
X6028627Y-14133158D01*
X6028627Y-14133158D02*
X6038151Y-14171253D01*
X6038151Y-14171253D02*
X6038151Y-14218872D01*
X6038151Y-14218872D02*
X6028627Y-14256967D01*
X6028627Y-14256967D02*
X6019103Y-14276015D01*
X6019103Y-14276015D02*
X6009579Y-14285539D01*
X6009579Y-14285539D02*
X5990532Y-14295062D01*
X5990532Y-14295062D02*
X5971484Y-14295062D01*
X5971484Y-14295062D02*
X5952436Y-14285539D01*
X5952436Y-14285539D02*
X5942912Y-14276015D01*
X5942912Y-14276015D02*
X5933389Y-14256967D01*
X5933389Y-14256967D02*
X5923865Y-14218872D01*
X5923865Y-14218872D02*
X5923865Y-14171253D01*
X5923865Y-14171253D02*
X5933389Y-14133158D01*
X5933389Y-14133158D02*
X5942912Y-14114110D01*
X5942912Y-14114110D02*
X5952436Y-14104586D01*
X5952436Y-14104586D02*
X5971484Y-14095062D01*
X6161960Y-14095062D02*
X6181008Y-14095062D01*
X6181008Y-14095062D02*
X6200055Y-14104586D01*
X6200055Y-14104586D02*
X6209579Y-14114110D01*
X6209579Y-14114110D02*
X6219103Y-14133158D01*
X6219103Y-14133158D02*
X6228627Y-14171253D01*
X6228627Y-14171253D02*
X6228627Y-14218872D01*
X6228627Y-14218872D02*
X6219103Y-14256967D01*
X6219103Y-14256967D02*
X6209579Y-14276015D01*
X6209579Y-14276015D02*
X6200055Y-14285539D01*
X6200055Y-14285539D02*
X6181008Y-14295062D01*
X6181008Y-14295062D02*
X6161960Y-14295062D01*
X6161960Y-14295062D02*
X6142912Y-14285539D01*
X6142912Y-14285539D02*
X6133389Y-14276015D01*
X6133389Y-14276015D02*
X6123865Y-14256967D01*
X6123865Y-14256967D02*
X6114341Y-14218872D01*
X6114341Y-14218872D02*
X6114341Y-14171253D01*
X6114341Y-14171253D02*
X6123865Y-14133158D01*
X6123865Y-14133158D02*
X6133389Y-14114110D01*
X6133389Y-14114110D02*
X6142912Y-14104586D01*
X6142912Y-14104586D02*
X6161960Y-14095062D01*
X6314341Y-14295062D02*
X6314341Y-14161729D01*
X6314341Y-14180777D02*
X6323865Y-14171253D01*
X6323865Y-14171253D02*
X6342912Y-14161729D01*
X6342912Y-14161729D02*
X6371484Y-14161729D01*
X6371484Y-14161729D02*
X6390532Y-14171253D01*
X6390532Y-14171253D02*
X6400055Y-14190300D01*
X6400055Y-14190300D02*
X6400055Y-14295062D01*
X6400055Y-14190300D02*
X6409579Y-14171253D01*
X6409579Y-14171253D02*
X6428627Y-14161729D01*
X6428627Y-14161729D02*
X6457198Y-14161729D01*
X6457198Y-14161729D02*
X6476246Y-14171253D01*
X6476246Y-14171253D02*
X6485770Y-14190300D01*
X6485770Y-14190300D02*
X6485770Y-14295062D01*
X6581008Y-14295062D02*
X6581008Y-14161729D01*
X6581008Y-14180777D02*
X6590532Y-14171253D01*
X6590532Y-14171253D02*
X6609579Y-14161729D01*
X6609579Y-14161729D02*
X6638151Y-14161729D01*
X6638151Y-14161729D02*
X6657198Y-14171253D01*
X6657198Y-14171253D02*
X6666722Y-14190300D01*
X6666722Y-14190300D02*
X6666722Y-14295062D01*
X6666722Y-14190300D02*
X6676246Y-14171253D01*
X6676246Y-14171253D02*
X6695293Y-14161729D01*
X6695293Y-14161729D02*
X6723865Y-14161729D01*
X6723865Y-14161729D02*
X6742913Y-14171253D01*
X6742913Y-14171253D02*
X6752436Y-14190300D01*
X6752436Y-14190300D02*
X6752436Y-14295062D01*
X7142913Y-14085539D02*
X6971484Y-14342681D01*
X7400055Y-14095062D02*
X7419103Y-14095062D01*
X7419103Y-14095062D02*
X7438151Y-14104586D01*
X7438151Y-14104586D02*
X7447675Y-14114110D01*
X7447675Y-14114110D02*
X7457198Y-14133158D01*
X7457198Y-14133158D02*
X7466722Y-14171253D01*
X7466722Y-14171253D02*
X7466722Y-14218872D01*
X7466722Y-14218872D02*
X7457198Y-14256967D01*
X7457198Y-14256967D02*
X7447675Y-14276015D01*
X7447675Y-14276015D02*
X7438151Y-14285539D01*
X7438151Y-14285539D02*
X7419103Y-14295062D01*
X7419103Y-14295062D02*
X7400055Y-14295062D01*
X7400055Y-14295062D02*
X7381008Y-14285539D01*
X7381008Y-14285539D02*
X7371484Y-14276015D01*
X7371484Y-14276015D02*
X7361960Y-14256967D01*
X7361960Y-14256967D02*
X7352436Y-14218872D01*
X7352436Y-14218872D02*
X7352436Y-14171253D01*
X7352436Y-14171253D02*
X7361960Y-14133158D01*
X7361960Y-14133158D02*
X7371484Y-14114110D01*
X7371484Y-14114110D02*
X7381008Y-14104586D01*
X7381008Y-14104586D02*
X7400055Y-14095062D01*
X7552436Y-14276015D02*
X7561960Y-14285539D01*
X7561960Y-14285539D02*
X7552436Y-14295062D01*
X7552436Y-14295062D02*
X7542913Y-14285539D01*
X7542913Y-14285539D02*
X7552436Y-14276015D01*
X7552436Y-14276015D02*
X7552436Y-14295062D01*
X7752436Y-14295062D02*
X7638151Y-14295062D01*
X7695294Y-14295062D02*
X7695294Y-14095062D01*
X7695294Y-14095062D02*
X7676246Y-14123634D01*
X7676246Y-14123634D02*
X7657198Y-14142681D01*
X7657198Y-14142681D02*
X7638151Y-14152205D01*
X7828627Y-14114110D02*
X7838151Y-14104586D01*
X7838151Y-14104586D02*
X7857198Y-14095062D01*
X7857198Y-14095062D02*
X7904817Y-14095062D01*
X7904817Y-14095062D02*
X7923865Y-14104586D01*
X7923865Y-14104586D02*
X7933389Y-14114110D01*
X7933389Y-14114110D02*
X7942913Y-14133158D01*
X7942913Y-14133158D02*
X7942913Y-14152205D01*
X7942913Y-14152205D02*
X7933389Y-14180777D01*
X7933389Y-14180777D02*
X7819103Y-14295062D01*
X7819103Y-14295062D02*
X7942913Y-14295062D01*
X8114341Y-14095062D02*
X8076246Y-14095062D01*
X8076246Y-14095062D02*
X8057198Y-14104586D01*
X8057198Y-14104586D02*
X8047675Y-14114110D01*
X8047675Y-14114110D02*
X8028627Y-14142681D01*
X8028627Y-14142681D02*
X8019103Y-14180777D01*
X8019103Y-14180777D02*
X8019103Y-14256967D01*
X8019103Y-14256967D02*
X8028627Y-14276015D01*
X8028627Y-14276015D02*
X8038151Y-14285539D01*
X8038151Y-14285539D02*
X8057198Y-14295062D01*
X8057198Y-14295062D02*
X8095294Y-14295062D01*
X8095294Y-14295062D02*
X8114341Y-14285539D01*
X8114341Y-14285539D02*
X8123865Y-14276015D01*
X8123865Y-14276015D02*
X8133389Y-14256967D01*
X8133389Y-14256967D02*
X8133389Y-14209348D01*
X8133389Y-14209348D02*
X8123865Y-14190300D01*
X8123865Y-14190300D02*
X8114341Y-14180777D01*
X8114341Y-14180777D02*
X8095294Y-14171253D01*
X8095294Y-14171253D02*
X8057198Y-14171253D01*
X8057198Y-14171253D02*
X8038151Y-14180777D01*
X8038151Y-14180777D02*
X8028627Y-14190300D01*
X8028627Y-14190300D02*
X8019103Y-14209348D01*
X8257198Y-14095062D02*
X8276246Y-14095062D01*
X8276246Y-14095062D02*
X8295294Y-14104586D01*
X8295294Y-14104586D02*
X8304817Y-14114110D01*
X8304817Y-14114110D02*
X8314341Y-14133158D01*
X8314341Y-14133158D02*
X8323865Y-14171253D01*
X8323865Y-14171253D02*
X8323865Y-14218872D01*
X8323865Y-14218872D02*
X8314341Y-14256967D01*
X8314341Y-14256967D02*
X8304817Y-14276015D01*
X8304817Y-14276015D02*
X8295294Y-14285539D01*
X8295294Y-14285539D02*
X8276246Y-14295062D01*
X8276246Y-14295062D02*
X8257198Y-14295062D01*
X8257198Y-14295062D02*
X8238151Y-14285539D01*
X8238151Y-14285539D02*
X8228627Y-14276015D01*
X8228627Y-14276015D02*
X8219103Y-14256967D01*
X8219103Y-14256967D02*
X8209579Y-14218872D01*
X8209579Y-14218872D02*
X8209579Y-14171253D01*
X8209579Y-14171253D02*
X8219103Y-14133158D01*
X8219103Y-14133158D02*
X8228627Y-14114110D01*
X8228627Y-14114110D02*
X8238151Y-14104586D01*
X8238151Y-14104586D02*
X8257198Y-14095062D01*
X8400056Y-14095062D02*
X8400056Y-14133158D01*
X8476246Y-14095062D02*
X8476246Y-14133158D01*
X8771484Y-14371253D02*
X8761960Y-14361729D01*
X8761960Y-14361729D02*
X8742913Y-14333158D01*
X8742913Y-14333158D02*
X8733389Y-14314110D01*
X8733389Y-14314110D02*
X8723865Y-14285539D01*
X8723865Y-14285539D02*
X8714341Y-14237919D01*
X8714341Y-14237919D02*
X8714341Y-14199824D01*
X8714341Y-14199824D02*
X8723865Y-14152205D01*
X8723865Y-14152205D02*
X8733389Y-14123634D01*
X8733389Y-14123634D02*
X8742913Y-14104586D01*
X8742913Y-14104586D02*
X8761960Y-14076015D01*
X8761960Y-14076015D02*
X8771484Y-14066491D01*
X8933389Y-14161729D02*
X8933389Y-14295062D01*
X8885770Y-14085539D02*
X8838151Y-14228396D01*
X8838151Y-14228396D02*
X8961960Y-14228396D01*
X9190532Y-14295062D02*
X9190532Y-14095062D01*
X9276246Y-14295062D02*
X9276246Y-14190300D01*
X9276246Y-14190300D02*
X9266722Y-14171253D01*
X9266722Y-14171253D02*
X9247675Y-14161729D01*
X9247675Y-14161729D02*
X9219103Y-14161729D01*
X9219103Y-14161729D02*
X9200056Y-14171253D01*
X9200056Y-14171253D02*
X9190532Y-14180777D01*
X9400056Y-14295062D02*
X9381008Y-14285539D01*
X9381008Y-14285539D02*
X9371484Y-14276015D01*
X9371484Y-14276015D02*
X9361961Y-14256967D01*
X9361961Y-14256967D02*
X9361961Y-14199824D01*
X9361961Y-14199824D02*
X9371484Y-14180777D01*
X9371484Y-14180777D02*
X9381008Y-14171253D01*
X9381008Y-14171253D02*
X9400056Y-14161729D01*
X9400056Y-14161729D02*
X9428627Y-14161729D01*
X9428627Y-14161729D02*
X9447675Y-14171253D01*
X9447675Y-14171253D02*
X9457199Y-14180777D01*
X9457199Y-14180777D02*
X9466722Y-14199824D01*
X9466722Y-14199824D02*
X9466722Y-14256967D01*
X9466722Y-14256967D02*
X9457199Y-14276015D01*
X9457199Y-14276015D02*
X9447675Y-14285539D01*
X9447675Y-14285539D02*
X9428627Y-14295062D01*
X9428627Y-14295062D02*
X9400056Y-14295062D01*
X9581008Y-14295062D02*
X9561961Y-14285539D01*
X9561961Y-14285539D02*
X9552437Y-14266491D01*
X9552437Y-14266491D02*
X9552437Y-14095062D01*
X9733389Y-14285539D02*
X9714342Y-14295062D01*
X9714342Y-14295062D02*
X9676246Y-14295062D01*
X9676246Y-14295062D02*
X9657199Y-14285539D01*
X9657199Y-14285539D02*
X9647675Y-14266491D01*
X9647675Y-14266491D02*
X9647675Y-14190300D01*
X9647675Y-14190300D02*
X9657199Y-14171253D01*
X9657199Y-14171253D02*
X9676246Y-14161729D01*
X9676246Y-14161729D02*
X9714342Y-14161729D01*
X9714342Y-14161729D02*
X9733389Y-14171253D01*
X9733389Y-14171253D02*
X9742913Y-14190300D01*
X9742913Y-14190300D02*
X9742913Y-14209348D01*
X9742913Y-14209348D02*
X9647675Y-14228396D01*
X9819103Y-14285539D02*
X9838151Y-14295062D01*
X9838151Y-14295062D02*
X9876246Y-14295062D01*
X9876246Y-14295062D02*
X9895294Y-14285539D01*
X9895294Y-14285539D02*
X9904818Y-14266491D01*
X9904818Y-14266491D02*
X9904818Y-14256967D01*
X9904818Y-14256967D02*
X9895294Y-14237919D01*
X9895294Y-14237919D02*
X9876246Y-14228396D01*
X9876246Y-14228396D02*
X9847675Y-14228396D01*
X9847675Y-14228396D02*
X9828627Y-14218872D01*
X9828627Y-14218872D02*
X9819103Y-14199824D01*
X9819103Y-14199824D02*
X9819103Y-14190300D01*
X9819103Y-14190300D02*
X9828627Y-14171253D01*
X9828627Y-14171253D02*
X9847675Y-14161729D01*
X9847675Y-14161729D02*
X9876246Y-14161729D01*
X9876246Y-14161729D02*
X9895294Y-14171253D01*
X9971484Y-14371253D02*
X9981008Y-14361729D01*
X9981008Y-14361729D02*
X10000056Y-14333158D01*
X10000056Y-14333158D02*
X10009580Y-14314110D01*
X10009580Y-14314110D02*
X10019103Y-14285539D01*
X10019103Y-14285539D02*
X10028627Y-14237919D01*
X10028627Y-14237919D02*
X10028627Y-14199824D01*
X10028627Y-14199824D02*
X10019103Y-14152205D01*
X10019103Y-14152205D02*
X10009580Y-14123634D01*
X10009580Y-14123634D02*
X10000056Y-14104586D01*
X10000056Y-14104586D02*
X9981008Y-14076015D01*
X9981008Y-14076015D02*
X9971484Y-14066491D01*
X10333389Y-14371253D02*
X10323865Y-14361729D01*
X10323865Y-14361729D02*
X10304818Y-14333158D01*
X10304818Y-14333158D02*
X10295294Y-14314110D01*
X10295294Y-14314110D02*
X10285770Y-14285539D01*
X10285770Y-14285539D02*
X10276246Y-14237919D01*
X10276246Y-14237919D02*
X10276246Y-14199824D01*
X10276246Y-14199824D02*
X10285770Y-14152205D01*
X10285770Y-14152205D02*
X10295294Y-14123634D01*
X10295294Y-14123634D02*
X10304818Y-14104586D01*
X10304818Y-14104586D02*
X10323865Y-14076015D01*
X10323865Y-14076015D02*
X10333389Y-14066491D01*
X10409580Y-14161729D02*
X10409580Y-14295062D01*
X10409580Y-14180777D02*
X10419103Y-14171253D01*
X10419103Y-14171253D02*
X10438151Y-14161729D01*
X10438151Y-14161729D02*
X10466723Y-14161729D01*
X10466723Y-14161729D02*
X10485770Y-14171253D01*
X10485770Y-14171253D02*
X10495294Y-14190300D01*
X10495294Y-14190300D02*
X10495294Y-14295062D01*
X10619103Y-14295062D02*
X10600056Y-14285539D01*
X10600056Y-14285539D02*
X10590532Y-14276015D01*
X10590532Y-14276015D02*
X10581008Y-14256967D01*
X10581008Y-14256967D02*
X10581008Y-14199824D01*
X10581008Y-14199824D02*
X10590532Y-14180777D01*
X10590532Y-14180777D02*
X10600056Y-14171253D01*
X10600056Y-14171253D02*
X10619103Y-14161729D01*
X10619103Y-14161729D02*
X10647675Y-14161729D01*
X10647675Y-14161729D02*
X10666723Y-14171253D01*
X10666723Y-14171253D02*
X10676246Y-14180777D01*
X10676246Y-14180777D02*
X10685770Y-14199824D01*
X10685770Y-14199824D02*
X10685770Y-14256967D01*
X10685770Y-14256967D02*
X10676246Y-14276015D01*
X10676246Y-14276015D02*
X10666723Y-14285539D01*
X10666723Y-14285539D02*
X10647675Y-14295062D01*
X10647675Y-14295062D02*
X10619103Y-14295062D01*
X10742913Y-14161729D02*
X10819103Y-14161729D01*
X10771484Y-14095062D02*
X10771484Y-14266491D01*
X10771484Y-14266491D02*
X10781008Y-14285539D01*
X10781008Y-14285539D02*
X10800056Y-14295062D01*
X10800056Y-14295062D02*
X10819103Y-14295062D01*
X11038151Y-14161729D02*
X11038151Y-14361729D01*
X11038151Y-14171253D02*
X11057199Y-14161729D01*
X11057199Y-14161729D02*
X11095294Y-14161729D01*
X11095294Y-14161729D02*
X11114342Y-14171253D01*
X11114342Y-14171253D02*
X11123865Y-14180777D01*
X11123865Y-14180777D02*
X11133389Y-14199824D01*
X11133389Y-14199824D02*
X11133389Y-14256967D01*
X11133389Y-14256967D02*
X11123865Y-14276015D01*
X11123865Y-14276015D02*
X11114342Y-14285539D01*
X11114342Y-14285539D02*
X11095294Y-14295062D01*
X11095294Y-14295062D02*
X11057199Y-14295062D01*
X11057199Y-14295062D02*
X11038151Y-14285539D01*
X11247675Y-14295062D02*
X11228627Y-14285539D01*
X11228627Y-14285539D02*
X11219103Y-14266491D01*
X11219103Y-14266491D02*
X11219103Y-14095062D01*
X11409580Y-14295062D02*
X11409580Y-14190300D01*
X11409580Y-14190300D02*
X11400056Y-14171253D01*
X11400056Y-14171253D02*
X11381008Y-14161729D01*
X11381008Y-14161729D02*
X11342913Y-14161729D01*
X11342913Y-14161729D02*
X11323865Y-14171253D01*
X11409580Y-14285539D02*
X11390532Y-14295062D01*
X11390532Y-14295062D02*
X11342913Y-14295062D01*
X11342913Y-14295062D02*
X11323865Y-14285539D01*
X11323865Y-14285539D02*
X11314342Y-14266491D01*
X11314342Y-14266491D02*
X11314342Y-14247443D01*
X11314342Y-14247443D02*
X11323865Y-14228396D01*
X11323865Y-14228396D02*
X11342913Y-14218872D01*
X11342913Y-14218872D02*
X11390532Y-14218872D01*
X11390532Y-14218872D02*
X11409580Y-14209348D01*
X11476246Y-14161729D02*
X11552437Y-14161729D01*
X11504818Y-14095062D02*
X11504818Y-14266491D01*
X11504818Y-14266491D02*
X11514342Y-14285539D01*
X11514342Y-14285539D02*
X11533389Y-14295062D01*
X11533389Y-14295062D02*
X11552437Y-14295062D01*
X11695294Y-14285539D02*
X11676246Y-14295062D01*
X11676246Y-14295062D02*
X11638151Y-14295062D01*
X11638151Y-14295062D02*
X11619103Y-14285539D01*
X11619103Y-14285539D02*
X11609580Y-14266491D01*
X11609580Y-14266491D02*
X11609580Y-14190300D01*
X11609580Y-14190300D02*
X11619103Y-14171253D01*
X11619103Y-14171253D02*
X11638151Y-14161729D01*
X11638151Y-14161729D02*
X11676246Y-14161729D01*
X11676246Y-14161729D02*
X11695294Y-14171253D01*
X11695294Y-14171253D02*
X11704818Y-14190300D01*
X11704818Y-14190300D02*
X11704818Y-14209348D01*
X11704818Y-14209348D02*
X11609580Y-14228396D01*
X11876246Y-14295062D02*
X11876246Y-14095062D01*
X11876246Y-14285539D02*
X11857199Y-14295062D01*
X11857199Y-14295062D02*
X11819103Y-14295062D01*
X11819103Y-14295062D02*
X11800056Y-14285539D01*
X11800056Y-14285539D02*
X11790532Y-14276015D01*
X11790532Y-14276015D02*
X11781008Y-14256967D01*
X11781008Y-14256967D02*
X11781008Y-14199824D01*
X11781008Y-14199824D02*
X11790532Y-14180777D01*
X11790532Y-14180777D02*
X11800056Y-14171253D01*
X11800056Y-14171253D02*
X11819103Y-14161729D01*
X11819103Y-14161729D02*
X11857199Y-14161729D01*
X11857199Y-14161729D02*
X11876246Y-14171253D01*
X11952437Y-14371253D02*
X11961961Y-14361729D01*
X11961961Y-14361729D02*
X11981008Y-14333158D01*
X11981008Y-14333158D02*
X11990532Y-14314110D01*
X11990532Y-14314110D02*
X12000056Y-14285539D01*
X12000056Y-14285539D02*
X12009580Y-14237919D01*
X12009580Y-14237919D02*
X12009580Y-14199824D01*
X12009580Y-14199824D02*
X12000056Y-14152205D01*
X12000056Y-14152205D02*
X11990532Y-14123634D01*
X11990532Y-14123634D02*
X11981008Y-14104586D01*
X11981008Y-14104586D02*
X11961961Y-14076015D01*
X11961961Y-14076015D02*
X11952437Y-14066491D01*
M02*
