%TF.GenerationSoftware,KiCad,Pcbnew,7.0.10*%
%TF.CreationDate,2024-01-18T23:13:16-08:00*%
%TF.ProjectId,r2dtf dev board rev 1,72326474-6620-4646-9576-20626f617264,rev?*%
%TF.SameCoordinates,Original*%
%TF.FileFunction,Soldermask,Bot*%
%TF.FilePolarity,Negative*%
%FSLAX46Y46*%
G04 Gerber Fmt 4.6, Leading zero omitted, Abs format (unit mm)*
G04 Created by KiCad (PCBNEW 7.0.10) date 2024-01-18 23:13:16*
%MOMM*%
%LPD*%
G01*
G04 APERTURE LIST*
%ADD10O,2.400000X4.400000*%
%ADD11C,1.778000*%
%ADD12C,2.000000*%
%ADD13R,1.700000X1.700000*%
%ADD14O,1.700000X1.700000*%
%ADD15C,3.200000*%
%ADD16C,1.727200*%
%ADD17R,1.727200X1.727200*%
G04 APERTURE END LIST*
D10*
%TO.C,SW1*%
X67100000Y-88200000D03*
X62400000Y-88200000D03*
%TD*%
D11*
%TO.C,U2*%
X159662500Y-93267500D03*
X159662500Y-90727500D03*
X159662500Y-88187500D03*
X159662500Y-85647500D03*
X159662500Y-83107500D03*
X159662500Y-80567500D03*
X159662500Y-78027500D03*
X159662500Y-75487500D03*
X159662500Y-72947500D03*
X159662500Y-70407500D03*
X159662500Y-67867500D03*
X159662500Y-65327500D03*
X159662500Y-62787500D03*
X97686500Y-62787500D03*
X100226500Y-62787500D03*
X102766500Y-62787500D03*
X105306500Y-62787500D03*
X107846500Y-62787500D03*
X97686500Y-111047500D03*
X100226500Y-111047500D03*
X102766500Y-111047500D03*
X105306500Y-111047500D03*
X107846500Y-111047500D03*
%TD*%
D12*
%TO.C,J6*%
X76100000Y-100750000D03*
X76100000Y-95750000D03*
%TD*%
D13*
%TO.C,J5*%
X87655400Y-65659000D03*
D14*
X85115400Y-65659000D03*
X82575400Y-65659000D03*
X80035400Y-65659000D03*
X77495400Y-65659000D03*
X74955400Y-65659000D03*
%TD*%
D12*
%TO.C,J1*%
X59600000Y-95750000D03*
X59600000Y-100750000D03*
%TD*%
D13*
%TO.C,J4*%
X74880000Y-108686600D03*
D14*
X77420000Y-108686600D03*
X79960000Y-108686600D03*
X82500000Y-108686600D03*
X85040000Y-108686600D03*
X87580000Y-108686600D03*
%TD*%
D11*
%TO.C,J2*%
X87172800Y-114736100D03*
X84632800Y-114736100D03*
%TD*%
%TO.C,J9*%
X143484600Y-121056400D03*
X143484600Y-123596400D03*
X143484600Y-126136400D03*
X143484600Y-128676400D03*
%TD*%
D15*
%TO.C,REF\u002A\u002A*%
X66500000Y-108000000D03*
%TD*%
%TO.C,REF\u002A\u002A*%
X143300000Y-67200000D03*
%TD*%
D11*
%TO.C,J10*%
X58000000Y-108079500D03*
X58000000Y-110619500D03*
X58000000Y-113159500D03*
X58000000Y-115699500D03*
%TD*%
D15*
%TO.C,REF\u002A\u002A*%
X165500000Y-131000000D03*
%TD*%
D12*
%TO.C,J8*%
X76100000Y-80750000D03*
X76100000Y-75750000D03*
%TD*%
D11*
%TO.C,J3*%
X87172800Y-118986100D03*
X84632800Y-118986100D03*
%TD*%
%TO.C,J13*%
X58000000Y-123024000D03*
X58000000Y-125564000D03*
X58000000Y-128104000D03*
X58000000Y-130644000D03*
%TD*%
D16*
%TO.C,XA1*%
X102880000Y-132490000D03*
X128280000Y-132490000D03*
X107960000Y-132490000D03*
X110500000Y-132490000D03*
X113040000Y-132490000D03*
X115580000Y-132490000D03*
X118120000Y-132490000D03*
X120660000Y-132490000D03*
X123200000Y-132490000D03*
X125740000Y-132490000D03*
X105420000Y-132490000D03*
X133360000Y-117250000D03*
X135900000Y-117250000D03*
X125740000Y-117250000D03*
X123200000Y-117250000D03*
X120660000Y-117250000D03*
X118120000Y-117250000D03*
X115580000Y-117250000D03*
X113040000Y-117250000D03*
X110500000Y-117250000D03*
X107960000Y-117250000D03*
X105420000Y-117250000D03*
X102880000Y-117250000D03*
X100340000Y-117250000D03*
X100340000Y-132490000D03*
D17*
X128280000Y-117250000D03*
X133360000Y-132490000D03*
D16*
X130820000Y-117250000D03*
X130820000Y-132490000D03*
X135900000Y-132490000D03*
%TD*%
D12*
%TO.C,J7*%
X76100000Y-90750000D03*
X76100000Y-85750000D03*
%TD*%
D11*
%TO.C,J12*%
X166860500Y-72940500D03*
X166860500Y-70400500D03*
X166860500Y-67860500D03*
X166860500Y-65320500D03*
X166860500Y-62780500D03*
%TD*%
%TO.C,U3*%
X148996400Y-116687600D03*
X151536400Y-116687600D03*
X154076400Y-116687600D03*
X156616400Y-116687600D03*
X159156400Y-116687600D03*
%TD*%
%TO.C,J14*%
X76600000Y-121524000D03*
X76600000Y-124064000D03*
X76600000Y-126604000D03*
X76600000Y-129144000D03*
X76600000Y-131684000D03*
%TD*%
%TO.C,J11*%
X166860500Y-87410000D03*
X166860500Y-84870000D03*
X166860500Y-82330000D03*
X166860500Y-79790000D03*
X166860500Y-77250000D03*
%TD*%
D15*
%TO.C,REF\u002A\u002A*%
X58000000Y-66000000D03*
%TD*%
M02*
