M48
; DRILL file {KiCad 7.0.10} date Thu Jan 18 23:13:19 2024
; FORMAT={-:-/ absolute / metric / decimal}
; #@! TF.CreationDate,2024-01-18T23:13:19-08:00
; #@! TF.GenerationSoftware,Kicad,Pcbnew,7.0.10
; #@! TF.FileFunction,Plated,1,2,PTH
FMAT,2
METRIC
; #@! TA.AperFunction,Plated,PTH,ComponentDrill
T1C0.300
; #@! TA.AperFunction,Plated,PTH,ViaDrill
T2C0.400
; #@! TA.AperFunction,Plated,PTH,ComponentDrill
T3C0.900
; #@! TA.AperFunction,Plated,PTH,ComponentDrill
T4C1.000
; #@! TA.AperFunction,Plated,PTH,ComponentDrill
T5C1.016
; #@! TA.AperFunction,Plated,PTH,ComponentDrill
T6C1.300
%
G90
G05
T1
X54.0Y-72.0
X54.0Y-73.0
X54.0Y-74.0
X54.5Y-98.1
X55.0Y-62.3
X55.0Y-72.0
X55.0Y-73.0
X55.0Y-74.0
X56.0Y-72.0
X56.0Y-73.0
X56.0Y-74.0
X56.2Y-109.3
X57.2Y-119.8
X60.5Y-104.5
X60.5Y-105.5
X60.5Y-106.5
X60.6Y-131.7
X60.6Y-132.7
X60.6Y-133.7
X60.8Y-116.8
X61.0Y-80.9
X61.0Y-81.9
X61.0Y-82.9
X61.5Y-104.5
X61.5Y-105.5
X61.5Y-106.5
X61.6Y-131.7
X61.6Y-132.7
X61.6Y-133.7
X62.0Y-80.9
X62.0Y-81.9
X62.0Y-82.9
X62.5Y-104.5
X62.5Y-105.5
X62.5Y-106.5
X62.6Y-131.7
X62.6Y-132.7
X62.6Y-133.7
X63.0Y-80.9
X63.0Y-81.9
X63.0Y-82.9
X64.4Y-119.7
X67.7Y-70.3
X68.2Y-132.0
X70.9Y-116.0
X70.9Y-117.0
X70.9Y-118.0
X71.9Y-116.0
X71.9Y-117.0
X71.9Y-118.0
X72.2Y-130.4
X72.9Y-116.0
X72.9Y-117.0
X72.9Y-118.0
X78.0Y-68.2
X80.1Y-62.3
X80.6Y-87.5
X80.6Y-88.5
X80.6Y-89.5
X81.5Y-122.7
X81.5Y-125.4
X81.5Y-128.0
X81.5Y-132.5
X81.6Y-87.5
X81.6Y-88.5
X81.6Y-89.5
X82.2Y-111.2
X82.6Y-87.5
X82.6Y-88.5
X82.6Y-89.5
X86.7Y-111.2
X89.5Y-106.0
X90.5Y-114.6
X95.1Y-61.3
X95.6Y-114.5
X96.8Y-87.0
X96.8Y-88.0
X96.8Y-89.0
X97.7Y-65.7
X97.8Y-87.0
X97.8Y-88.0
X97.8Y-89.0
X98.8Y-87.0
X98.8Y-88.0
X98.8Y-89.0
X105.5Y-98.9
X112.2Y-97.9
X112.2Y-98.9
X112.2Y-99.9
X113.2Y-97.9
X113.2Y-98.9
X113.2Y-99.9
X114.2Y-97.9
X114.2Y-98.9
X114.2Y-99.9
X114.7Y-81.8
X114.9Y-127.6
X114.9Y-128.6
X114.9Y-129.6
X115.9Y-127.6
X115.9Y-128.6
X115.9Y-129.6
X116.9Y-127.6
X116.9Y-128.6
X116.9Y-129.6
X120.6Y-121.8
X120.6Y-122.8
X120.6Y-123.8
X121.6Y-121.8
X121.6Y-122.8
X121.6Y-123.8
X122.6Y-121.8
X122.6Y-122.8
X122.6Y-123.8
X123.5Y-112.6
X124.3Y-128.0
X125.4Y-93.6
X126.7Y-80.8
X126.7Y-81.8
X126.7Y-82.8
X127.7Y-80.8
X127.7Y-81.8
X127.7Y-82.8
X128.6Y-73.7
X128.7Y-80.8
X128.7Y-81.8
X128.7Y-82.8
X129.6Y-62.5
X129.6Y-63.5
X129.6Y-64.5
X129.8Y-93.6
X130.6Y-62.5
X130.6Y-63.5
X130.6Y-64.5
X131.6Y-62.5
X131.6Y-63.5
X131.6Y-64.5
X133.9Y-122.3
X137.2Y-64.4
X140.8Y-106.4
X140.8Y-107.4
X140.8Y-108.4
X140.9Y-74.0
X141.8Y-106.4
X141.8Y-107.4
X141.8Y-108.4
X142.3Y-93.6
X142.8Y-106.4
X142.8Y-107.4
X142.8Y-108.4
X147.7Y-61.3
X150.3Y-64.4
X152.1Y-126.2
X155.9Y-101.7
X155.9Y-102.7
X155.9Y-103.7
X156.9Y-101.7
X156.9Y-102.7
X156.9Y-103.7
X157.9Y-101.7
X157.9Y-102.7
X157.9Y-103.7
X163.2Y-64.1
X163.2Y-66.6
X163.2Y-69.2
X163.2Y-71.6
X163.2Y-74.2
X163.2Y-76.7
X163.2Y-79.3
X163.2Y-81.8
X163.2Y-84.4
X169.0Y-69.2
X169.0Y-81.8
T2
X62.0Y-124.75
X62.0Y-128.9
X63.7Y-116.7
X65.0Y-115.4
X66.1Y-116.3
X66.1Y-119.0
X67.025Y-116.925
X67.1Y-120.0
X90.5Y-118.1
X90.5Y-130.2
X92.8Y-116.8
X92.8Y-131.176
X95.5Y-120.3
X96.8Y-120.3
X98.0Y-125.5
X98.0Y-132.5
X102.9Y-119.2
X102.9Y-120.774
X105.4Y-130.2
X106.7Y-130.2
X107.8Y-129.2
X107.9Y-113.5
X109.6Y-115.1
X112.3Y-129.2
X113.5Y-124.0
X114.3Y-113.5
X114.9Y-125.5
X116.0Y-124.0
X116.6Y-115.1
X120.4Y-125.5
X127.3Y-88.2
X140.5Y-76.6
X142.6Y-74.5
X143.9Y-85.6
X144.5Y-76.6
X146.6Y-74.5
X148.9Y-76.6
X151.0Y-74.5
X151.2Y-76.6
X152.2Y-88.2
X153.3Y-74.5
X154.447Y-85.647
T4
X74.88Y-108.687
X74.955Y-65.659
X77.42Y-108.687
X77.495Y-65.659
X79.96Y-108.687
X80.035Y-65.659
X82.5Y-108.687
X82.575Y-65.659
X85.04Y-108.687
X85.115Y-65.659
X87.58Y-108.687
X87.655Y-65.659
T5
X58.0Y-108.079
X58.0Y-110.619
X58.0Y-113.159
X58.0Y-115.7
X58.0Y-123.024
X58.0Y-125.564
X58.0Y-128.104
X58.0Y-130.644
X76.6Y-121.524
X76.6Y-124.064
X76.6Y-126.604
X76.6Y-129.144
X76.6Y-131.684
X84.633Y-114.736
X84.633Y-118.986
X87.173Y-114.736
X87.173Y-118.986
X97.686Y-62.787
X97.686Y-111.047
X100.227Y-62.787
X100.227Y-111.047
X100.34Y-117.25
X100.34Y-132.49
X102.766Y-62.787
X102.766Y-111.047
X102.88Y-117.25
X102.88Y-132.49
X105.306Y-62.787
X105.306Y-111.047
X105.42Y-117.25
X105.42Y-132.49
X107.846Y-62.787
X107.846Y-111.047
X107.96Y-117.25
X107.96Y-132.49
X110.5Y-117.25
X110.5Y-132.49
X113.04Y-117.25
X113.04Y-132.49
X115.58Y-117.25
X115.58Y-132.49
X118.12Y-117.25
X118.12Y-132.49
X120.66Y-117.25
X120.66Y-132.49
X123.2Y-117.25
X123.2Y-132.49
X125.74Y-117.25
X125.74Y-132.49
X128.28Y-117.25
X128.28Y-132.49
X130.82Y-117.25
X130.82Y-132.49
X133.36Y-117.25
X133.36Y-132.49
X135.9Y-117.25
X135.9Y-132.49
X143.485Y-121.056
X143.485Y-123.596
X143.485Y-126.136
X143.485Y-128.676
X148.996Y-116.688
X151.536Y-116.688
X154.076Y-116.688
X156.616Y-116.688
X159.156Y-116.688
X159.662Y-62.787
X159.662Y-65.328
X159.662Y-67.867
X159.662Y-70.407
X159.662Y-72.947
X159.662Y-75.487
X159.662Y-78.028
X159.662Y-80.567
X159.662Y-83.108
X159.662Y-85.647
X159.662Y-88.188
X159.662Y-90.727
X159.662Y-93.267
X166.861Y-62.78
X166.861Y-65.32
X166.861Y-67.861
X166.861Y-70.4
X166.861Y-72.941
X166.861Y-77.25
X166.861Y-79.79
X166.861Y-82.33
X166.861Y-84.87
X166.861Y-87.41
T6
X59.6Y-95.75
X59.6Y-100.75
X76.1Y-75.75
X76.1Y-80.75
X76.1Y-85.75
X76.1Y-90.75
X76.1Y-95.75
X76.1Y-100.75
T3
X62.4Y-87.2G85X62.4Y-89.2
G05
X67.1Y-87.2G85X67.1Y-89.2
G05
M30
