%TF.GenerationSoftware,KiCad,Pcbnew,7.0.10*%
%TF.CreationDate,2024-01-18T22:20:46-08:00*%
%TF.ProjectId,r2dtf dev board rev 1,72326474-6620-4646-9576-20626f617264,rev?*%
%TF.SameCoordinates,Original*%
%TF.FileFunction,Legend,Bot*%
%TF.FilePolarity,Positive*%
%FSLAX46Y46*%
G04 Gerber Fmt 4.6, Leading zero omitted, Abs format (unit mm)*
G04 Created by KiCad (PCBNEW 7.0.10) date 2024-01-18 22:20:46*
%MOMM*%
%LPD*%
G01*
G04 APERTURE LIST*
%ADD10C,0.153000*%
%ADD11C,0.010000*%
%ADD12C,3.200000*%
%ADD13C,1.727200*%
%ADD14R,1.727200X1.727200*%
%ADD15C,2.000000*%
%ADD16O,2.400000X4.400000*%
%ADD17C,1.778000*%
%ADD18R,1.700000X1.700000*%
%ADD19O,1.700000X1.700000*%
G04 APERTURE END LIST*
D10*
X116861247Y-69939663D02*
X116861247Y-68939663D01*
X116861247Y-68939663D02*
X116623152Y-68939663D01*
X116623152Y-68939663D02*
X116480295Y-68987282D01*
X116480295Y-68987282D02*
X116385057Y-69082520D01*
X116385057Y-69082520D02*
X116337438Y-69177758D01*
X116337438Y-69177758D02*
X116289819Y-69368234D01*
X116289819Y-69368234D02*
X116289819Y-69511091D01*
X116289819Y-69511091D02*
X116337438Y-69701567D01*
X116337438Y-69701567D02*
X116385057Y-69796805D01*
X116385057Y-69796805D02*
X116480295Y-69892044D01*
X116480295Y-69892044D02*
X116623152Y-69939663D01*
X116623152Y-69939663D02*
X116861247Y-69939663D01*
X115480295Y-69892044D02*
X115575533Y-69939663D01*
X115575533Y-69939663D02*
X115766009Y-69939663D01*
X115766009Y-69939663D02*
X115861247Y-69892044D01*
X115861247Y-69892044D02*
X115908866Y-69796805D01*
X115908866Y-69796805D02*
X115908866Y-69415853D01*
X115908866Y-69415853D02*
X115861247Y-69320615D01*
X115861247Y-69320615D02*
X115766009Y-69272996D01*
X115766009Y-69272996D02*
X115575533Y-69272996D01*
X115575533Y-69272996D02*
X115480295Y-69320615D01*
X115480295Y-69320615D02*
X115432676Y-69415853D01*
X115432676Y-69415853D02*
X115432676Y-69511091D01*
X115432676Y-69511091D02*
X115908866Y-69606329D01*
X115099342Y-69272996D02*
X114861247Y-69939663D01*
X114861247Y-69939663D02*
X114623152Y-69272996D01*
X113146961Y-69415853D02*
X113004104Y-69463472D01*
X113004104Y-69463472D02*
X112956485Y-69511091D01*
X112956485Y-69511091D02*
X112908866Y-69606329D01*
X112908866Y-69606329D02*
X112908866Y-69749186D01*
X112908866Y-69749186D02*
X112956485Y-69844424D01*
X112956485Y-69844424D02*
X113004104Y-69892044D01*
X113004104Y-69892044D02*
X113099342Y-69939663D01*
X113099342Y-69939663D02*
X113480294Y-69939663D01*
X113480294Y-69939663D02*
X113480294Y-68939663D01*
X113480294Y-68939663D02*
X113146961Y-68939663D01*
X113146961Y-68939663D02*
X113051723Y-68987282D01*
X113051723Y-68987282D02*
X113004104Y-69034901D01*
X113004104Y-69034901D02*
X112956485Y-69130139D01*
X112956485Y-69130139D02*
X112956485Y-69225377D01*
X112956485Y-69225377D02*
X113004104Y-69320615D01*
X113004104Y-69320615D02*
X113051723Y-69368234D01*
X113051723Y-69368234D02*
X113146961Y-69415853D01*
X113146961Y-69415853D02*
X113480294Y-69415853D01*
X112337437Y-69939663D02*
X112432675Y-69892044D01*
X112432675Y-69892044D02*
X112480294Y-69844424D01*
X112480294Y-69844424D02*
X112527913Y-69749186D01*
X112527913Y-69749186D02*
X112527913Y-69463472D01*
X112527913Y-69463472D02*
X112480294Y-69368234D01*
X112480294Y-69368234D02*
X112432675Y-69320615D01*
X112432675Y-69320615D02*
X112337437Y-69272996D01*
X112337437Y-69272996D02*
X112194580Y-69272996D01*
X112194580Y-69272996D02*
X112099342Y-69320615D01*
X112099342Y-69320615D02*
X112051723Y-69368234D01*
X112051723Y-69368234D02*
X112004104Y-69463472D01*
X112004104Y-69463472D02*
X112004104Y-69749186D01*
X112004104Y-69749186D02*
X112051723Y-69844424D01*
X112051723Y-69844424D02*
X112099342Y-69892044D01*
X112099342Y-69892044D02*
X112194580Y-69939663D01*
X112194580Y-69939663D02*
X112337437Y-69939663D01*
X111146961Y-69939663D02*
X111146961Y-69415853D01*
X111146961Y-69415853D02*
X111194580Y-69320615D01*
X111194580Y-69320615D02*
X111289818Y-69272996D01*
X111289818Y-69272996D02*
X111480294Y-69272996D01*
X111480294Y-69272996D02*
X111575532Y-69320615D01*
X111146961Y-69892044D02*
X111242199Y-69939663D01*
X111242199Y-69939663D02*
X111480294Y-69939663D01*
X111480294Y-69939663D02*
X111575532Y-69892044D01*
X111575532Y-69892044D02*
X111623151Y-69796805D01*
X111623151Y-69796805D02*
X111623151Y-69701567D01*
X111623151Y-69701567D02*
X111575532Y-69606329D01*
X111575532Y-69606329D02*
X111480294Y-69558710D01*
X111480294Y-69558710D02*
X111242199Y-69558710D01*
X111242199Y-69558710D02*
X111146961Y-69511091D01*
X110670770Y-69939663D02*
X110670770Y-69272996D01*
X110670770Y-69463472D02*
X110623151Y-69368234D01*
X110623151Y-69368234D02*
X110575532Y-69320615D01*
X110575532Y-69320615D02*
X110480294Y-69272996D01*
X110480294Y-69272996D02*
X110385056Y-69272996D01*
X109623151Y-69939663D02*
X109623151Y-68939663D01*
X109623151Y-69892044D02*
X109718389Y-69939663D01*
X109718389Y-69939663D02*
X109908865Y-69939663D01*
X109908865Y-69939663D02*
X110004103Y-69892044D01*
X110004103Y-69892044D02*
X110051722Y-69844424D01*
X110051722Y-69844424D02*
X110099341Y-69749186D01*
X110099341Y-69749186D02*
X110099341Y-69463472D01*
X110099341Y-69463472D02*
X110051722Y-69368234D01*
X110051722Y-69368234D02*
X110004103Y-69320615D01*
X110004103Y-69320615D02*
X109908865Y-69272996D01*
X109908865Y-69272996D02*
X109718389Y-69272996D01*
X109718389Y-69272996D02*
X109623151Y-69320615D01*
X108527912Y-69272996D02*
X108146960Y-69272996D01*
X108385055Y-69939663D02*
X108385055Y-69082520D01*
X108385055Y-69082520D02*
X108337436Y-68987282D01*
X108337436Y-68987282D02*
X108242198Y-68939663D01*
X108242198Y-68939663D02*
X108146960Y-68939663D01*
X107670769Y-69939663D02*
X107766007Y-69892044D01*
X107766007Y-69892044D02*
X107813626Y-69844424D01*
X107813626Y-69844424D02*
X107861245Y-69749186D01*
X107861245Y-69749186D02*
X107861245Y-69463472D01*
X107861245Y-69463472D02*
X107813626Y-69368234D01*
X107813626Y-69368234D02*
X107766007Y-69320615D01*
X107766007Y-69320615D02*
X107670769Y-69272996D01*
X107670769Y-69272996D02*
X107527912Y-69272996D01*
X107527912Y-69272996D02*
X107432674Y-69320615D01*
X107432674Y-69320615D02*
X107385055Y-69368234D01*
X107385055Y-69368234D02*
X107337436Y-69463472D01*
X107337436Y-69463472D02*
X107337436Y-69749186D01*
X107337436Y-69749186D02*
X107385055Y-69844424D01*
X107385055Y-69844424D02*
X107432674Y-69892044D01*
X107432674Y-69892044D02*
X107527912Y-69939663D01*
X107527912Y-69939663D02*
X107670769Y-69939663D01*
X106908864Y-69939663D02*
X106908864Y-69272996D01*
X106908864Y-69463472D02*
X106861245Y-69368234D01*
X106861245Y-69368234D02*
X106813626Y-69320615D01*
X106813626Y-69320615D02*
X106718388Y-69272996D01*
X106718388Y-69272996D02*
X106623150Y-69272996D01*
X99908862Y-70272996D02*
X100146957Y-70272996D01*
X100146957Y-70272996D02*
X100146957Y-68844424D01*
X100146957Y-68844424D02*
X99908862Y-68844424D01*
X98956481Y-69939663D02*
X99289814Y-69463472D01*
X99527909Y-69939663D02*
X99527909Y-68939663D01*
X99527909Y-68939663D02*
X99146957Y-68939663D01*
X99146957Y-68939663D02*
X99051719Y-68987282D01*
X99051719Y-68987282D02*
X99004100Y-69034901D01*
X99004100Y-69034901D02*
X98956481Y-69130139D01*
X98956481Y-69130139D02*
X98956481Y-69272996D01*
X98956481Y-69272996D02*
X99004100Y-69368234D01*
X99004100Y-69368234D02*
X99051719Y-69415853D01*
X99051719Y-69415853D02*
X99146957Y-69463472D01*
X99146957Y-69463472D02*
X99527909Y-69463472D01*
X98146957Y-69892044D02*
X98242195Y-69939663D01*
X98242195Y-69939663D02*
X98432671Y-69939663D01*
X98432671Y-69939663D02*
X98527909Y-69892044D01*
X98527909Y-69892044D02*
X98575528Y-69796805D01*
X98575528Y-69796805D02*
X98575528Y-69415853D01*
X98575528Y-69415853D02*
X98527909Y-69320615D01*
X98527909Y-69320615D02*
X98432671Y-69272996D01*
X98432671Y-69272996D02*
X98242195Y-69272996D01*
X98242195Y-69272996D02*
X98146957Y-69320615D01*
X98146957Y-69320615D02*
X98099338Y-69415853D01*
X98099338Y-69415853D02*
X98099338Y-69511091D01*
X98099338Y-69511091D02*
X98575528Y-69606329D01*
X97766004Y-69272996D02*
X97527909Y-69939663D01*
X97527909Y-69939663D02*
X97289814Y-69272996D01*
X95623147Y-69939663D02*
X96194575Y-69939663D01*
X95908861Y-69939663D02*
X95908861Y-68939663D01*
X95908861Y-68939663D02*
X96004099Y-69082520D01*
X96004099Y-69082520D02*
X96099337Y-69177758D01*
X96099337Y-69177758D02*
X96194575Y-69225377D01*
X95289813Y-70272996D02*
X95051718Y-70272996D01*
X95051718Y-70272996D02*
X95051718Y-68844424D01*
X95051718Y-68844424D02*
X95289813Y-68844424D01*
X116861247Y-71549663D02*
X116861247Y-70549663D01*
X116861247Y-70549663D02*
X116480295Y-70549663D01*
X116480295Y-70549663D02*
X116385057Y-70597282D01*
X116385057Y-70597282D02*
X116337438Y-70644901D01*
X116337438Y-70644901D02*
X116289819Y-70740139D01*
X116289819Y-70740139D02*
X116289819Y-70882996D01*
X116289819Y-70882996D02*
X116337438Y-70978234D01*
X116337438Y-70978234D02*
X116385057Y-71025853D01*
X116385057Y-71025853D02*
X116480295Y-71073472D01*
X116480295Y-71073472D02*
X116861247Y-71073472D01*
X115718390Y-71549663D02*
X115813628Y-71502044D01*
X115813628Y-71502044D02*
X115861247Y-71454424D01*
X115861247Y-71454424D02*
X115908866Y-71359186D01*
X115908866Y-71359186D02*
X115908866Y-71073472D01*
X115908866Y-71073472D02*
X115861247Y-70978234D01*
X115861247Y-70978234D02*
X115813628Y-70930615D01*
X115813628Y-70930615D02*
X115718390Y-70882996D01*
X115718390Y-70882996D02*
X115575533Y-70882996D01*
X115575533Y-70882996D02*
X115480295Y-70930615D01*
X115480295Y-70930615D02*
X115432676Y-70978234D01*
X115432676Y-70978234D02*
X115385057Y-71073472D01*
X115385057Y-71073472D02*
X115385057Y-71359186D01*
X115385057Y-71359186D02*
X115432676Y-71454424D01*
X115432676Y-71454424D02*
X115480295Y-71502044D01*
X115480295Y-71502044D02*
X115575533Y-71549663D01*
X115575533Y-71549663D02*
X115718390Y-71549663D01*
X114813628Y-71549663D02*
X114908866Y-71502044D01*
X114908866Y-71502044D02*
X114956485Y-71406805D01*
X114956485Y-71406805D02*
X114956485Y-70549663D01*
X114289818Y-71549663D02*
X114385056Y-71502044D01*
X114385056Y-71502044D02*
X114432675Y-71454424D01*
X114432675Y-71454424D02*
X114480294Y-71359186D01*
X114480294Y-71359186D02*
X114480294Y-71073472D01*
X114480294Y-71073472D02*
X114432675Y-70978234D01*
X114432675Y-70978234D02*
X114385056Y-70930615D01*
X114385056Y-70930615D02*
X114289818Y-70882996D01*
X114289818Y-70882996D02*
X114146961Y-70882996D01*
X114146961Y-70882996D02*
X114051723Y-70930615D01*
X114051723Y-70930615D02*
X114004104Y-70978234D01*
X114004104Y-70978234D02*
X113956485Y-71073472D01*
X113956485Y-71073472D02*
X113956485Y-71359186D01*
X113956485Y-71359186D02*
X114004104Y-71454424D01*
X114004104Y-71454424D02*
X114051723Y-71502044D01*
X114051723Y-71502044D02*
X114146961Y-71549663D01*
X114146961Y-71549663D02*
X114289818Y-71549663D01*
X113385056Y-71549663D02*
X113480294Y-71502044D01*
X113480294Y-71502044D02*
X113527913Y-71406805D01*
X113527913Y-71406805D02*
X113527913Y-70549663D01*
X112575532Y-70882996D02*
X112575532Y-71549663D01*
X113004103Y-70882996D02*
X113004103Y-71406805D01*
X113004103Y-71406805D02*
X112956484Y-71502044D01*
X112956484Y-71502044D02*
X112861246Y-71549663D01*
X112861246Y-71549663D02*
X112718389Y-71549663D01*
X112718389Y-71549663D02*
X112623151Y-71502044D01*
X112623151Y-71502044D02*
X112575532Y-71454424D01*
X111337436Y-71549663D02*
X111337436Y-70549663D01*
X111337436Y-70549663D02*
X111099341Y-70549663D01*
X111099341Y-70549663D02*
X110956484Y-70597282D01*
X110956484Y-70597282D02*
X110861246Y-70692520D01*
X110861246Y-70692520D02*
X110813627Y-70787758D01*
X110813627Y-70787758D02*
X110766008Y-70978234D01*
X110766008Y-70978234D02*
X110766008Y-71121091D01*
X110766008Y-71121091D02*
X110813627Y-71311567D01*
X110813627Y-71311567D02*
X110861246Y-71406805D01*
X110861246Y-71406805D02*
X110956484Y-71502044D01*
X110956484Y-71502044D02*
X111099341Y-71549663D01*
X111099341Y-71549663D02*
X111337436Y-71549663D01*
X109908865Y-70882996D02*
X109908865Y-71549663D01*
X110337436Y-70882996D02*
X110337436Y-71406805D01*
X110337436Y-71406805D02*
X110289817Y-71502044D01*
X110289817Y-71502044D02*
X110194579Y-71549663D01*
X110194579Y-71549663D02*
X110051722Y-71549663D01*
X110051722Y-71549663D02*
X109956484Y-71502044D01*
X109956484Y-71502044D02*
X109908865Y-71454424D01*
X109004103Y-71549663D02*
X109004103Y-71025853D01*
X109004103Y-71025853D02*
X109051722Y-70930615D01*
X109051722Y-70930615D02*
X109146960Y-70882996D01*
X109146960Y-70882996D02*
X109337436Y-70882996D01*
X109337436Y-70882996D02*
X109432674Y-70930615D01*
X109004103Y-71502044D02*
X109099341Y-71549663D01*
X109099341Y-71549663D02*
X109337436Y-71549663D01*
X109337436Y-71549663D02*
X109432674Y-71502044D01*
X109432674Y-71502044D02*
X109480293Y-71406805D01*
X109480293Y-71406805D02*
X109480293Y-71311567D01*
X109480293Y-71311567D02*
X109432674Y-71216329D01*
X109432674Y-71216329D02*
X109337436Y-71168710D01*
X109337436Y-71168710D02*
X109099341Y-71168710D01*
X109099341Y-71168710D02*
X109004103Y-71121091D01*
X108385055Y-71549663D02*
X108480293Y-71502044D01*
X108480293Y-71502044D02*
X108527912Y-71406805D01*
X108527912Y-71406805D02*
X108527912Y-70549663D01*
X107385054Y-70549663D02*
X107051721Y-71549663D01*
X107051721Y-71549663D02*
X106718388Y-70549663D01*
X106385054Y-71549663D02*
X106385054Y-70549663D01*
X106385054Y-70549663D02*
X105813626Y-71549663D01*
X105813626Y-71549663D02*
X105813626Y-70549663D01*
X105337435Y-71549663D02*
X105337435Y-70549663D01*
X105337435Y-71025853D02*
X104766007Y-71025853D01*
X104766007Y-71549663D02*
X104766007Y-70549663D01*
X103813626Y-70549663D02*
X104289816Y-70549663D01*
X104289816Y-70549663D02*
X104337435Y-71025853D01*
X104337435Y-71025853D02*
X104289816Y-70978234D01*
X104289816Y-70978234D02*
X104194578Y-70930615D01*
X104194578Y-70930615D02*
X103956483Y-70930615D01*
X103956483Y-70930615D02*
X103861245Y-70978234D01*
X103861245Y-70978234D02*
X103813626Y-71025853D01*
X103813626Y-71025853D02*
X103766007Y-71121091D01*
X103766007Y-71121091D02*
X103766007Y-71359186D01*
X103766007Y-71359186D02*
X103813626Y-71454424D01*
X103813626Y-71454424D02*
X103861245Y-71502044D01*
X103861245Y-71502044D02*
X103956483Y-71549663D01*
X103956483Y-71549663D02*
X104194578Y-71549663D01*
X104194578Y-71549663D02*
X104289816Y-71502044D01*
X104289816Y-71502044D02*
X104337435Y-71454424D01*
X103146959Y-70549663D02*
X103051721Y-70549663D01*
X103051721Y-70549663D02*
X102956483Y-70597282D01*
X102956483Y-70597282D02*
X102908864Y-70644901D01*
X102908864Y-70644901D02*
X102861245Y-70740139D01*
X102861245Y-70740139D02*
X102813626Y-70930615D01*
X102813626Y-70930615D02*
X102813626Y-71168710D01*
X102813626Y-71168710D02*
X102861245Y-71359186D01*
X102861245Y-71359186D02*
X102908864Y-71454424D01*
X102908864Y-71454424D02*
X102956483Y-71502044D01*
X102956483Y-71502044D02*
X103051721Y-71549663D01*
X103051721Y-71549663D02*
X103146959Y-71549663D01*
X103146959Y-71549663D02*
X103242197Y-71502044D01*
X103242197Y-71502044D02*
X103289816Y-71454424D01*
X103289816Y-71454424D02*
X103337435Y-71359186D01*
X103337435Y-71359186D02*
X103385054Y-71168710D01*
X103385054Y-71168710D02*
X103385054Y-70930615D01*
X103385054Y-70930615D02*
X103337435Y-70740139D01*
X103337435Y-70740139D02*
X103289816Y-70644901D01*
X103289816Y-70644901D02*
X103242197Y-70597282D01*
X103242197Y-70597282D02*
X103146959Y-70549663D01*
X101861245Y-71549663D02*
X102432673Y-71549663D01*
X102146959Y-71549663D02*
X102146959Y-70549663D01*
X102146959Y-70549663D02*
X102242197Y-70692520D01*
X102242197Y-70692520D02*
X102337435Y-70787758D01*
X102337435Y-70787758D02*
X102432673Y-70835377D01*
X101385054Y-71549663D02*
X101194578Y-71549663D01*
X101194578Y-71549663D02*
X101099340Y-71502044D01*
X101099340Y-71502044D02*
X101051721Y-71454424D01*
X101051721Y-71454424D02*
X100956483Y-71311567D01*
X100956483Y-71311567D02*
X100908864Y-71121091D01*
X100908864Y-71121091D02*
X100908864Y-70740139D01*
X100908864Y-70740139D02*
X100956483Y-70644901D01*
X100956483Y-70644901D02*
X101004102Y-70597282D01*
X101004102Y-70597282D02*
X101099340Y-70549663D01*
X101099340Y-70549663D02*
X101289816Y-70549663D01*
X101289816Y-70549663D02*
X101385054Y-70597282D01*
X101385054Y-70597282D02*
X101432673Y-70644901D01*
X101432673Y-70644901D02*
X101480292Y-70740139D01*
X101480292Y-70740139D02*
X101480292Y-70978234D01*
X101480292Y-70978234D02*
X101432673Y-71073472D01*
X101432673Y-71073472D02*
X101385054Y-71121091D01*
X101385054Y-71121091D02*
X101289816Y-71168710D01*
X101289816Y-71168710D02*
X101099340Y-71168710D01*
X101099340Y-71168710D02*
X101004102Y-71121091D01*
X101004102Y-71121091D02*
X100956483Y-71073472D01*
X100956483Y-71073472D02*
X100908864Y-70978234D01*
X99718387Y-71549663D02*
X99718387Y-70549663D01*
X99718387Y-70549663D02*
X99385054Y-71263948D01*
X99385054Y-71263948D02*
X99051721Y-70549663D01*
X99051721Y-70549663D02*
X99051721Y-71549663D01*
X98432673Y-71549663D02*
X98527911Y-71502044D01*
X98527911Y-71502044D02*
X98575530Y-71454424D01*
X98575530Y-71454424D02*
X98623149Y-71359186D01*
X98623149Y-71359186D02*
X98623149Y-71073472D01*
X98623149Y-71073472D02*
X98575530Y-70978234D01*
X98575530Y-70978234D02*
X98527911Y-70930615D01*
X98527911Y-70930615D02*
X98432673Y-70882996D01*
X98432673Y-70882996D02*
X98289816Y-70882996D01*
X98289816Y-70882996D02*
X98194578Y-70930615D01*
X98194578Y-70930615D02*
X98146959Y-70978234D01*
X98146959Y-70978234D02*
X98099340Y-71073472D01*
X98099340Y-71073472D02*
X98099340Y-71359186D01*
X98099340Y-71359186D02*
X98146959Y-71454424D01*
X98146959Y-71454424D02*
X98194578Y-71502044D01*
X98194578Y-71502044D02*
X98289816Y-71549663D01*
X98289816Y-71549663D02*
X98432673Y-71549663D01*
X97813625Y-70882996D02*
X97432673Y-70882996D01*
X97670768Y-70549663D02*
X97670768Y-71406805D01*
X97670768Y-71406805D02*
X97623149Y-71502044D01*
X97623149Y-71502044D02*
X97527911Y-71549663D01*
X97527911Y-71549663D02*
X97432673Y-71549663D01*
X96956482Y-71549663D02*
X97051720Y-71502044D01*
X97051720Y-71502044D02*
X97099339Y-71454424D01*
X97099339Y-71454424D02*
X97146958Y-71359186D01*
X97146958Y-71359186D02*
X97146958Y-71073472D01*
X97146958Y-71073472D02*
X97099339Y-70978234D01*
X97099339Y-70978234D02*
X97051720Y-70930615D01*
X97051720Y-70930615D02*
X96956482Y-70882996D01*
X96956482Y-70882996D02*
X96813625Y-70882996D01*
X96813625Y-70882996D02*
X96718387Y-70930615D01*
X96718387Y-70930615D02*
X96670768Y-70978234D01*
X96670768Y-70978234D02*
X96623149Y-71073472D01*
X96623149Y-71073472D02*
X96623149Y-71359186D01*
X96623149Y-71359186D02*
X96670768Y-71454424D01*
X96670768Y-71454424D02*
X96718387Y-71502044D01*
X96718387Y-71502044D02*
X96813625Y-71549663D01*
X96813625Y-71549663D02*
X96956482Y-71549663D01*
X96194577Y-71549663D02*
X96194577Y-70882996D01*
X96194577Y-71073472D02*
X96146958Y-70978234D01*
X96146958Y-70978234D02*
X96099339Y-70930615D01*
X96099339Y-70930615D02*
X96004101Y-70882996D01*
X96004101Y-70882996D02*
X95908863Y-70882996D01*
X94813624Y-71549663D02*
X94813624Y-70549663D01*
X94813624Y-70549663D02*
X94575529Y-70549663D01*
X94575529Y-70549663D02*
X94432672Y-70597282D01*
X94432672Y-70597282D02*
X94337434Y-70692520D01*
X94337434Y-70692520D02*
X94289815Y-70787758D01*
X94289815Y-70787758D02*
X94242196Y-70978234D01*
X94242196Y-70978234D02*
X94242196Y-71121091D01*
X94242196Y-71121091D02*
X94289815Y-71311567D01*
X94289815Y-71311567D02*
X94337434Y-71406805D01*
X94337434Y-71406805D02*
X94432672Y-71502044D01*
X94432672Y-71502044D02*
X94575529Y-71549663D01*
X94575529Y-71549663D02*
X94813624Y-71549663D01*
X93813624Y-71549663D02*
X93813624Y-70882996D01*
X93813624Y-71073472D02*
X93766005Y-70978234D01*
X93766005Y-70978234D02*
X93718386Y-70930615D01*
X93718386Y-70930615D02*
X93623148Y-70882996D01*
X93623148Y-70882996D02*
X93527910Y-70882996D01*
X93194576Y-71549663D02*
X93194576Y-70882996D01*
X93194576Y-70549663D02*
X93242195Y-70597282D01*
X93242195Y-70597282D02*
X93194576Y-70644901D01*
X93194576Y-70644901D02*
X93146957Y-70597282D01*
X93146957Y-70597282D02*
X93194576Y-70549663D01*
X93194576Y-70549663D02*
X93194576Y-70644901D01*
X92813624Y-70882996D02*
X92575529Y-71549663D01*
X92575529Y-71549663D02*
X92337434Y-70882996D01*
X91575529Y-71502044D02*
X91670767Y-71549663D01*
X91670767Y-71549663D02*
X91861243Y-71549663D01*
X91861243Y-71549663D02*
X91956481Y-71502044D01*
X91956481Y-71502044D02*
X92004100Y-71406805D01*
X92004100Y-71406805D02*
X92004100Y-71025853D01*
X92004100Y-71025853D02*
X91956481Y-70930615D01*
X91956481Y-70930615D02*
X91861243Y-70882996D01*
X91861243Y-70882996D02*
X91670767Y-70882996D01*
X91670767Y-70882996D02*
X91575529Y-70930615D01*
X91575529Y-70930615D02*
X91527910Y-71025853D01*
X91527910Y-71025853D02*
X91527910Y-71121091D01*
X91527910Y-71121091D02*
X92004100Y-71216329D01*
X91099338Y-71549663D02*
X91099338Y-70882996D01*
X91099338Y-71073472D02*
X91051719Y-70978234D01*
X91051719Y-70978234D02*
X91004100Y-70930615D01*
X91004100Y-70930615D02*
X90908862Y-70882996D01*
X90908862Y-70882996D02*
X90813624Y-70882996D01*
X116337438Y-72207282D02*
X116432676Y-72159663D01*
X116432676Y-72159663D02*
X116575533Y-72159663D01*
X116575533Y-72159663D02*
X116718390Y-72207282D01*
X116718390Y-72207282D02*
X116813628Y-72302520D01*
X116813628Y-72302520D02*
X116861247Y-72397758D01*
X116861247Y-72397758D02*
X116908866Y-72588234D01*
X116908866Y-72588234D02*
X116908866Y-72731091D01*
X116908866Y-72731091D02*
X116861247Y-72921567D01*
X116861247Y-72921567D02*
X116813628Y-73016805D01*
X116813628Y-73016805D02*
X116718390Y-73112044D01*
X116718390Y-73112044D02*
X116575533Y-73159663D01*
X116575533Y-73159663D02*
X116480295Y-73159663D01*
X116480295Y-73159663D02*
X116337438Y-73112044D01*
X116337438Y-73112044D02*
X116289819Y-73064424D01*
X116289819Y-73064424D02*
X116289819Y-72731091D01*
X116289819Y-72731091D02*
X116480295Y-72731091D01*
X115861247Y-73159663D02*
X115861247Y-72492996D01*
X115861247Y-72159663D02*
X115908866Y-72207282D01*
X115908866Y-72207282D02*
X115861247Y-72254901D01*
X115861247Y-72254901D02*
X115813628Y-72207282D01*
X115813628Y-72207282D02*
X115861247Y-72159663D01*
X115861247Y-72159663D02*
X115861247Y-72254901D01*
X115527914Y-72492996D02*
X115146962Y-72492996D01*
X115385057Y-72159663D02*
X115385057Y-73016805D01*
X115385057Y-73016805D02*
X115337438Y-73112044D01*
X115337438Y-73112044D02*
X115242200Y-73159663D01*
X115242200Y-73159663D02*
X115146962Y-73159663D01*
X114813628Y-73159663D02*
X114813628Y-72159663D01*
X114813628Y-72635853D02*
X114242200Y-72635853D01*
X114242200Y-73159663D02*
X114242200Y-72159663D01*
X113337438Y-72492996D02*
X113337438Y-73159663D01*
X113766009Y-72492996D02*
X113766009Y-73016805D01*
X113766009Y-73016805D02*
X113718390Y-73112044D01*
X113718390Y-73112044D02*
X113623152Y-73159663D01*
X113623152Y-73159663D02*
X113480295Y-73159663D01*
X113480295Y-73159663D02*
X113385057Y-73112044D01*
X113385057Y-73112044D02*
X113337438Y-73064424D01*
X112861247Y-73159663D02*
X112861247Y-72159663D01*
X112861247Y-72540615D02*
X112766009Y-72492996D01*
X112766009Y-72492996D02*
X112575533Y-72492996D01*
X112575533Y-72492996D02*
X112480295Y-72540615D01*
X112480295Y-72540615D02*
X112432676Y-72588234D01*
X112432676Y-72588234D02*
X112385057Y-72683472D01*
X112385057Y-72683472D02*
X112385057Y-72969186D01*
X112385057Y-72969186D02*
X112432676Y-73064424D01*
X112432676Y-73064424D02*
X112480295Y-73112044D01*
X112480295Y-73112044D02*
X112575533Y-73159663D01*
X112575533Y-73159663D02*
X112766009Y-73159663D01*
X112766009Y-73159663D02*
X112861247Y-73112044D01*
X111956485Y-73064424D02*
X111908866Y-73112044D01*
X111908866Y-73112044D02*
X111956485Y-73159663D01*
X111956485Y-73159663D02*
X112004104Y-73112044D01*
X112004104Y-73112044D02*
X111956485Y-73064424D01*
X111956485Y-73064424D02*
X111956485Y-73159663D01*
X111956485Y-72540615D02*
X111908866Y-72588234D01*
X111908866Y-72588234D02*
X111956485Y-72635853D01*
X111956485Y-72635853D02*
X112004104Y-72588234D01*
X112004104Y-72588234D02*
X111956485Y-72540615D01*
X111956485Y-72540615D02*
X111956485Y-72635853D01*
X110099343Y-72683472D02*
X110146962Y-72635853D01*
X110146962Y-72635853D02*
X110242200Y-72588234D01*
X110242200Y-72588234D02*
X110337438Y-72588234D01*
X110337438Y-72588234D02*
X110432676Y-72635853D01*
X110432676Y-72635853D02*
X110480295Y-72683472D01*
X110480295Y-72683472D02*
X110527914Y-72778710D01*
X110527914Y-72778710D02*
X110527914Y-72873948D01*
X110527914Y-72873948D02*
X110480295Y-72969186D01*
X110480295Y-72969186D02*
X110432676Y-73016805D01*
X110432676Y-73016805D02*
X110337438Y-73064424D01*
X110337438Y-73064424D02*
X110242200Y-73064424D01*
X110242200Y-73064424D02*
X110146962Y-73016805D01*
X110146962Y-73016805D02*
X110099343Y-72969186D01*
X110099343Y-72588234D02*
X110099343Y-72969186D01*
X110099343Y-72969186D02*
X110051724Y-73016805D01*
X110051724Y-73016805D02*
X110004105Y-73016805D01*
X110004105Y-73016805D02*
X109908866Y-72969186D01*
X109908866Y-72969186D02*
X109861247Y-72873948D01*
X109861247Y-72873948D02*
X109861247Y-72635853D01*
X109861247Y-72635853D02*
X109956486Y-72492996D01*
X109956486Y-72492996D02*
X110099343Y-72397758D01*
X110099343Y-72397758D02*
X110289819Y-72350139D01*
X110289819Y-72350139D02*
X110480295Y-72397758D01*
X110480295Y-72397758D02*
X110623152Y-72492996D01*
X110623152Y-72492996D02*
X110718390Y-72635853D01*
X110718390Y-72635853D02*
X110766009Y-72826329D01*
X110766009Y-72826329D02*
X110718390Y-73016805D01*
X110718390Y-73016805D02*
X110623152Y-73159663D01*
X110623152Y-73159663D02*
X110480295Y-73254901D01*
X110480295Y-73254901D02*
X110289819Y-73302520D01*
X110289819Y-73302520D02*
X110099343Y-73254901D01*
X110099343Y-73254901D02*
X109956486Y-73159663D01*
X109432676Y-73159663D02*
X109432676Y-72492996D01*
X109432676Y-72159663D02*
X109480295Y-72207282D01*
X109480295Y-72207282D02*
X109432676Y-72254901D01*
X109432676Y-72254901D02*
X109385057Y-72207282D01*
X109385057Y-72207282D02*
X109432676Y-72159663D01*
X109432676Y-72159663D02*
X109432676Y-72254901D01*
X108956486Y-72492996D02*
X108956486Y-73159663D01*
X108956486Y-72588234D02*
X108908867Y-72540615D01*
X108908867Y-72540615D02*
X108813629Y-72492996D01*
X108813629Y-72492996D02*
X108670772Y-72492996D01*
X108670772Y-72492996D02*
X108575534Y-72540615D01*
X108575534Y-72540615D02*
X108527915Y-72635853D01*
X108527915Y-72635853D02*
X108527915Y-73159663D01*
X107623153Y-73159663D02*
X107623153Y-72159663D01*
X107623153Y-73112044D02*
X107718391Y-73159663D01*
X107718391Y-73159663D02*
X107908867Y-73159663D01*
X107908867Y-73159663D02*
X108004105Y-73112044D01*
X108004105Y-73112044D02*
X108051724Y-73064424D01*
X108051724Y-73064424D02*
X108099343Y-72969186D01*
X108099343Y-72969186D02*
X108099343Y-72683472D01*
X108099343Y-72683472D02*
X108051724Y-72588234D01*
X108051724Y-72588234D02*
X108004105Y-72540615D01*
X108004105Y-72540615D02*
X107908867Y-72492996D01*
X107908867Y-72492996D02*
X107718391Y-72492996D01*
X107718391Y-72492996D02*
X107623153Y-72540615D01*
X107146962Y-73159663D02*
X107146962Y-72492996D01*
X107146962Y-72159663D02*
X107194581Y-72207282D01*
X107194581Y-72207282D02*
X107146962Y-72254901D01*
X107146962Y-72254901D02*
X107099343Y-72207282D01*
X107099343Y-72207282D02*
X107146962Y-72159663D01*
X107146962Y-72159663D02*
X107146962Y-72254901D01*
X106766010Y-72492996D02*
X106527915Y-73159663D01*
X106527915Y-73159663D02*
X106289820Y-72492996D01*
X105908867Y-73159663D02*
X105908867Y-72492996D01*
X105908867Y-72159663D02*
X105956486Y-72207282D01*
X105956486Y-72207282D02*
X105908867Y-72254901D01*
X105908867Y-72254901D02*
X105861248Y-72207282D01*
X105861248Y-72207282D02*
X105908867Y-72159663D01*
X105908867Y-72159663D02*
X105908867Y-72254901D01*
X105004106Y-73159663D02*
X105004106Y-72159663D01*
X105004106Y-73112044D02*
X105099344Y-73159663D01*
X105099344Y-73159663D02*
X105289820Y-73159663D01*
X105289820Y-73159663D02*
X105385058Y-73112044D01*
X105385058Y-73112044D02*
X105432677Y-73064424D01*
X105432677Y-73064424D02*
X105480296Y-72969186D01*
X105480296Y-72969186D02*
X105480296Y-72683472D01*
X105480296Y-72683472D02*
X105432677Y-72588234D01*
X105432677Y-72588234D02*
X105385058Y-72540615D01*
X105385058Y-72540615D02*
X105289820Y-72492996D01*
X105289820Y-72492996D02*
X105099344Y-72492996D01*
X105099344Y-72492996D02*
X105004106Y-72540615D01*
X104099344Y-72492996D02*
X104099344Y-73159663D01*
X104527915Y-72492996D02*
X104527915Y-73016805D01*
X104527915Y-73016805D02*
X104480296Y-73112044D01*
X104480296Y-73112044D02*
X104385058Y-73159663D01*
X104385058Y-73159663D02*
X104242201Y-73159663D01*
X104242201Y-73159663D02*
X104146963Y-73112044D01*
X104146963Y-73112044D02*
X104099344Y-73064424D01*
X103194582Y-73159663D02*
X103194582Y-72635853D01*
X103194582Y-72635853D02*
X103242201Y-72540615D01*
X103242201Y-72540615D02*
X103337439Y-72492996D01*
X103337439Y-72492996D02*
X103527915Y-72492996D01*
X103527915Y-72492996D02*
X103623153Y-72540615D01*
X103194582Y-73112044D02*
X103289820Y-73159663D01*
X103289820Y-73159663D02*
X103527915Y-73159663D01*
X103527915Y-73159663D02*
X103623153Y-73112044D01*
X103623153Y-73112044D02*
X103670772Y-73016805D01*
X103670772Y-73016805D02*
X103670772Y-72921567D01*
X103670772Y-72921567D02*
X103623153Y-72826329D01*
X103623153Y-72826329D02*
X103527915Y-72778710D01*
X103527915Y-72778710D02*
X103289820Y-72778710D01*
X103289820Y-72778710D02*
X103194582Y-72731091D01*
X102575534Y-73159663D02*
X102670772Y-73112044D01*
X102670772Y-73112044D02*
X102718391Y-73016805D01*
X102718391Y-73016805D02*
X102718391Y-72159663D01*
X101766010Y-72159663D02*
X101956486Y-72159663D01*
X101956486Y-72159663D02*
X102051724Y-72207282D01*
X102051724Y-72207282D02*
X102099343Y-72254901D01*
X102099343Y-72254901D02*
X102194581Y-72397758D01*
X102194581Y-72397758D02*
X102242200Y-72588234D01*
X102242200Y-72588234D02*
X102242200Y-72969186D01*
X102242200Y-72969186D02*
X102194581Y-73064424D01*
X102194581Y-73064424D02*
X102146962Y-73112044D01*
X102146962Y-73112044D02*
X102051724Y-73159663D01*
X102051724Y-73159663D02*
X101861248Y-73159663D01*
X101861248Y-73159663D02*
X101766010Y-73112044D01*
X101766010Y-73112044D02*
X101718391Y-73064424D01*
X101718391Y-73064424D02*
X101670772Y-72969186D01*
X101670772Y-72969186D02*
X101670772Y-72731091D01*
X101670772Y-72731091D02*
X101718391Y-72635853D01*
X101718391Y-72635853D02*
X101766010Y-72588234D01*
X101766010Y-72588234D02*
X101861248Y-72540615D01*
X101861248Y-72540615D02*
X102051724Y-72540615D01*
X102051724Y-72540615D02*
X102146962Y-72588234D01*
X102146962Y-72588234D02*
X102194581Y-72635853D01*
X102194581Y-72635853D02*
X102242200Y-72731091D01*
X100718391Y-73159663D02*
X101289819Y-73159663D01*
X101004105Y-73159663D02*
X101004105Y-72159663D01*
X101004105Y-72159663D02*
X101099343Y-72302520D01*
X101099343Y-72302520D02*
X101194581Y-72397758D01*
X101194581Y-72397758D02*
X101289819Y-72445377D01*
X116861247Y-74769663D02*
X116861247Y-73769663D01*
X116861247Y-73769663D02*
X116480295Y-73769663D01*
X116480295Y-73769663D02*
X116385057Y-73817282D01*
X116385057Y-73817282D02*
X116337438Y-73864901D01*
X116337438Y-73864901D02*
X116289819Y-73960139D01*
X116289819Y-73960139D02*
X116289819Y-74102996D01*
X116289819Y-74102996D02*
X116337438Y-74198234D01*
X116337438Y-74198234D02*
X116385057Y-74245853D01*
X116385057Y-74245853D02*
X116480295Y-74293472D01*
X116480295Y-74293472D02*
X116861247Y-74293472D01*
X115432676Y-74769663D02*
X115432676Y-74245853D01*
X115432676Y-74245853D02*
X115480295Y-74150615D01*
X115480295Y-74150615D02*
X115575533Y-74102996D01*
X115575533Y-74102996D02*
X115766009Y-74102996D01*
X115766009Y-74102996D02*
X115861247Y-74150615D01*
X115432676Y-74722044D02*
X115527914Y-74769663D01*
X115527914Y-74769663D02*
X115766009Y-74769663D01*
X115766009Y-74769663D02*
X115861247Y-74722044D01*
X115861247Y-74722044D02*
X115908866Y-74626805D01*
X115908866Y-74626805D02*
X115908866Y-74531567D01*
X115908866Y-74531567D02*
X115861247Y-74436329D01*
X115861247Y-74436329D02*
X115766009Y-74388710D01*
X115766009Y-74388710D02*
X115527914Y-74388710D01*
X115527914Y-74388710D02*
X115432676Y-74341091D01*
X114527914Y-74102996D02*
X114527914Y-74769663D01*
X114956485Y-74102996D02*
X114956485Y-74626805D01*
X114956485Y-74626805D02*
X114908866Y-74722044D01*
X114908866Y-74722044D02*
X114813628Y-74769663D01*
X114813628Y-74769663D02*
X114670771Y-74769663D01*
X114670771Y-74769663D02*
X114575533Y-74722044D01*
X114575533Y-74722044D02*
X114527914Y-74674424D01*
X113908866Y-74769663D02*
X114004104Y-74722044D01*
X114004104Y-74722044D02*
X114051723Y-74626805D01*
X114051723Y-74626805D02*
X114051723Y-73769663D01*
X112432675Y-74245853D02*
X112289818Y-74293472D01*
X112289818Y-74293472D02*
X112242199Y-74341091D01*
X112242199Y-74341091D02*
X112194580Y-74436329D01*
X112194580Y-74436329D02*
X112194580Y-74579186D01*
X112194580Y-74579186D02*
X112242199Y-74674424D01*
X112242199Y-74674424D02*
X112289818Y-74722044D01*
X112289818Y-74722044D02*
X112385056Y-74769663D01*
X112385056Y-74769663D02*
X112766008Y-74769663D01*
X112766008Y-74769663D02*
X112766008Y-73769663D01*
X112766008Y-73769663D02*
X112432675Y-73769663D01*
X112432675Y-73769663D02*
X112337437Y-73817282D01*
X112337437Y-73817282D02*
X112289818Y-73864901D01*
X112289818Y-73864901D02*
X112242199Y-73960139D01*
X112242199Y-73960139D02*
X112242199Y-74055377D01*
X112242199Y-74055377D02*
X112289818Y-74150615D01*
X112289818Y-74150615D02*
X112337437Y-74198234D01*
X112337437Y-74198234D02*
X112432675Y-74245853D01*
X112432675Y-74245853D02*
X112766008Y-74245853D01*
X111623151Y-74769663D02*
X111718389Y-74722044D01*
X111718389Y-74722044D02*
X111766008Y-74626805D01*
X111766008Y-74626805D02*
X111766008Y-73769663D01*
X110813627Y-74769663D02*
X110813627Y-74245853D01*
X110813627Y-74245853D02*
X110861246Y-74150615D01*
X110861246Y-74150615D02*
X110956484Y-74102996D01*
X110956484Y-74102996D02*
X111146960Y-74102996D01*
X111146960Y-74102996D02*
X111242198Y-74150615D01*
X110813627Y-74722044D02*
X110908865Y-74769663D01*
X110908865Y-74769663D02*
X111146960Y-74769663D01*
X111146960Y-74769663D02*
X111242198Y-74722044D01*
X111242198Y-74722044D02*
X111289817Y-74626805D01*
X111289817Y-74626805D02*
X111289817Y-74531567D01*
X111289817Y-74531567D02*
X111242198Y-74436329D01*
X111242198Y-74436329D02*
X111146960Y-74388710D01*
X111146960Y-74388710D02*
X110908865Y-74388710D01*
X110908865Y-74388710D02*
X110813627Y-74341091D01*
X109908865Y-74722044D02*
X110004103Y-74769663D01*
X110004103Y-74769663D02*
X110194579Y-74769663D01*
X110194579Y-74769663D02*
X110289817Y-74722044D01*
X110289817Y-74722044D02*
X110337436Y-74674424D01*
X110337436Y-74674424D02*
X110385055Y-74579186D01*
X110385055Y-74579186D02*
X110385055Y-74293472D01*
X110385055Y-74293472D02*
X110337436Y-74198234D01*
X110337436Y-74198234D02*
X110289817Y-74150615D01*
X110289817Y-74150615D02*
X110194579Y-74102996D01*
X110194579Y-74102996D02*
X110004103Y-74102996D01*
X110004103Y-74102996D02*
X109908865Y-74150615D01*
X109480293Y-74769663D02*
X109480293Y-73769663D01*
X109385055Y-74388710D02*
X109099341Y-74769663D01*
X109099341Y-74102996D02*
X109480293Y-74483948D01*
X108670769Y-74769663D02*
X108670769Y-73769663D01*
X108670769Y-74150615D02*
X108575531Y-74102996D01*
X108575531Y-74102996D02*
X108385055Y-74102996D01*
X108385055Y-74102996D02*
X108289817Y-74150615D01*
X108289817Y-74150615D02*
X108242198Y-74198234D01*
X108242198Y-74198234D02*
X108194579Y-74293472D01*
X108194579Y-74293472D02*
X108194579Y-74579186D01*
X108194579Y-74579186D02*
X108242198Y-74674424D01*
X108242198Y-74674424D02*
X108289817Y-74722044D01*
X108289817Y-74722044D02*
X108385055Y-74769663D01*
X108385055Y-74769663D02*
X108575531Y-74769663D01*
X108575531Y-74769663D02*
X108670769Y-74722044D01*
X107337436Y-74102996D02*
X107337436Y-74769663D01*
X107766007Y-74102996D02*
X107766007Y-74626805D01*
X107766007Y-74626805D02*
X107718388Y-74722044D01*
X107718388Y-74722044D02*
X107623150Y-74769663D01*
X107623150Y-74769663D02*
X107480293Y-74769663D01*
X107480293Y-74769663D02*
X107385055Y-74722044D01*
X107385055Y-74722044D02*
X107337436Y-74674424D01*
X106861245Y-74769663D02*
X106861245Y-74102996D01*
X106861245Y-74293472D02*
X106813626Y-74198234D01*
X106813626Y-74198234D02*
X106766007Y-74150615D01*
X106766007Y-74150615D02*
X106670769Y-74102996D01*
X106670769Y-74102996D02*
X106575531Y-74102996D01*
X106242197Y-74102996D02*
X106242197Y-74769663D01*
X106242197Y-74198234D02*
X106194578Y-74150615D01*
X106194578Y-74150615D02*
X106099340Y-74102996D01*
X106099340Y-74102996D02*
X105956483Y-74102996D01*
X105956483Y-74102996D02*
X105861245Y-74150615D01*
X105861245Y-74150615D02*
X105813626Y-74245853D01*
X105813626Y-74245853D02*
X105813626Y-74769663D01*
X105289816Y-74722044D02*
X105289816Y-74769663D01*
X105289816Y-74769663D02*
X105337435Y-74864901D01*
X105337435Y-74864901D02*
X105385054Y-74912520D01*
X103813626Y-73769663D02*
X103813626Y-74483948D01*
X103813626Y-74483948D02*
X103861245Y-74626805D01*
X103861245Y-74626805D02*
X103956483Y-74722044D01*
X103956483Y-74722044D02*
X104099340Y-74769663D01*
X104099340Y-74769663D02*
X104194578Y-74769663D01*
X102908864Y-74769663D02*
X102908864Y-74245853D01*
X102908864Y-74245853D02*
X102956483Y-74150615D01*
X102956483Y-74150615D02*
X103051721Y-74102996D01*
X103051721Y-74102996D02*
X103242197Y-74102996D01*
X103242197Y-74102996D02*
X103337435Y-74150615D01*
X102908864Y-74722044D02*
X103004102Y-74769663D01*
X103004102Y-74769663D02*
X103242197Y-74769663D01*
X103242197Y-74769663D02*
X103337435Y-74722044D01*
X103337435Y-74722044D02*
X103385054Y-74626805D01*
X103385054Y-74626805D02*
X103385054Y-74531567D01*
X103385054Y-74531567D02*
X103337435Y-74436329D01*
X103337435Y-74436329D02*
X103242197Y-74388710D01*
X103242197Y-74388710D02*
X103004102Y-74388710D01*
X103004102Y-74388710D02*
X102908864Y-74341091D01*
X102432673Y-74102996D02*
X102432673Y-74769663D01*
X102432673Y-74198234D02*
X102385054Y-74150615D01*
X102385054Y-74150615D02*
X102289816Y-74102996D01*
X102289816Y-74102996D02*
X102146959Y-74102996D01*
X102146959Y-74102996D02*
X102051721Y-74150615D01*
X102051721Y-74150615D02*
X102004102Y-74245853D01*
X102004102Y-74245853D02*
X102004102Y-74769663D01*
X101099340Y-74102996D02*
X101099340Y-74769663D01*
X101527911Y-74102996D02*
X101527911Y-74626805D01*
X101527911Y-74626805D02*
X101480292Y-74722044D01*
X101480292Y-74722044D02*
X101385054Y-74769663D01*
X101385054Y-74769663D02*
X101242197Y-74769663D01*
X101242197Y-74769663D02*
X101146959Y-74722044D01*
X101146959Y-74722044D02*
X101099340Y-74674424D01*
X100194578Y-74769663D02*
X100194578Y-74245853D01*
X100194578Y-74245853D02*
X100242197Y-74150615D01*
X100242197Y-74150615D02*
X100337435Y-74102996D01*
X100337435Y-74102996D02*
X100527911Y-74102996D01*
X100527911Y-74102996D02*
X100623149Y-74150615D01*
X100194578Y-74722044D02*
X100289816Y-74769663D01*
X100289816Y-74769663D02*
X100527911Y-74769663D01*
X100527911Y-74769663D02*
X100623149Y-74722044D01*
X100623149Y-74722044D02*
X100670768Y-74626805D01*
X100670768Y-74626805D02*
X100670768Y-74531567D01*
X100670768Y-74531567D02*
X100623149Y-74436329D01*
X100623149Y-74436329D02*
X100527911Y-74388710D01*
X100527911Y-74388710D02*
X100289816Y-74388710D01*
X100289816Y-74388710D02*
X100194578Y-74341091D01*
X99718387Y-74769663D02*
X99718387Y-74102996D01*
X99718387Y-74293472D02*
X99670768Y-74198234D01*
X99670768Y-74198234D02*
X99623149Y-74150615D01*
X99623149Y-74150615D02*
X99527911Y-74102996D01*
X99527911Y-74102996D02*
X99432673Y-74102996D01*
X99194577Y-74102996D02*
X98956482Y-74769663D01*
X98718387Y-74102996D02*
X98956482Y-74769663D01*
X98956482Y-74769663D02*
X99051720Y-75007758D01*
X99051720Y-75007758D02*
X99099339Y-75055377D01*
X99099339Y-75055377D02*
X99194577Y-75102996D01*
X97623148Y-73864901D02*
X97575529Y-73817282D01*
X97575529Y-73817282D02*
X97480291Y-73769663D01*
X97480291Y-73769663D02*
X97242196Y-73769663D01*
X97242196Y-73769663D02*
X97146958Y-73817282D01*
X97146958Y-73817282D02*
X97099339Y-73864901D01*
X97099339Y-73864901D02*
X97051720Y-73960139D01*
X97051720Y-73960139D02*
X97051720Y-74055377D01*
X97051720Y-74055377D02*
X97099339Y-74198234D01*
X97099339Y-74198234D02*
X97670767Y-74769663D01*
X97670767Y-74769663D02*
X97051720Y-74769663D01*
X96432672Y-73769663D02*
X96337434Y-73769663D01*
X96337434Y-73769663D02*
X96242196Y-73817282D01*
X96242196Y-73817282D02*
X96194577Y-73864901D01*
X96194577Y-73864901D02*
X96146958Y-73960139D01*
X96146958Y-73960139D02*
X96099339Y-74150615D01*
X96099339Y-74150615D02*
X96099339Y-74388710D01*
X96099339Y-74388710D02*
X96146958Y-74579186D01*
X96146958Y-74579186D02*
X96194577Y-74674424D01*
X96194577Y-74674424D02*
X96242196Y-74722044D01*
X96242196Y-74722044D02*
X96337434Y-74769663D01*
X96337434Y-74769663D02*
X96432672Y-74769663D01*
X96432672Y-74769663D02*
X96527910Y-74722044D01*
X96527910Y-74722044D02*
X96575529Y-74674424D01*
X96575529Y-74674424D02*
X96623148Y-74579186D01*
X96623148Y-74579186D02*
X96670767Y-74388710D01*
X96670767Y-74388710D02*
X96670767Y-74150615D01*
X96670767Y-74150615D02*
X96623148Y-73960139D01*
X96623148Y-73960139D02*
X96575529Y-73864901D01*
X96575529Y-73864901D02*
X96527910Y-73817282D01*
X96527910Y-73817282D02*
X96432672Y-73769663D01*
X95718386Y-73864901D02*
X95670767Y-73817282D01*
X95670767Y-73817282D02*
X95575529Y-73769663D01*
X95575529Y-73769663D02*
X95337434Y-73769663D01*
X95337434Y-73769663D02*
X95242196Y-73817282D01*
X95242196Y-73817282D02*
X95194577Y-73864901D01*
X95194577Y-73864901D02*
X95146958Y-73960139D01*
X95146958Y-73960139D02*
X95146958Y-74055377D01*
X95146958Y-74055377D02*
X95194577Y-74198234D01*
X95194577Y-74198234D02*
X95766005Y-74769663D01*
X95766005Y-74769663D02*
X95146958Y-74769663D01*
X94289815Y-74102996D02*
X94289815Y-74769663D01*
X94527910Y-73722044D02*
X94766005Y-74436329D01*
X94766005Y-74436329D02*
X94146958Y-74436329D01*
%TO.C,G\u002A\u002A\u002A*%
D11*
X112651627Y-99295859D02*
X113036427Y-99326464D01*
X113084947Y-100609785D01*
X113085274Y-100618455D01*
X113099811Y-101052122D01*
X113116103Y-101617274D01*
X113133232Y-102276987D01*
X113150280Y-102994339D01*
X113166331Y-103732408D01*
X113180466Y-104454272D01*
X113227465Y-107015439D01*
X112485482Y-107015439D01*
X112432142Y-105893606D01*
X112427550Y-105791673D01*
X112411520Y-105372226D01*
X112393708Y-104826015D01*
X112375020Y-104185288D01*
X112356369Y-103482295D01*
X112338664Y-102749287D01*
X112322814Y-102018513D01*
X112266826Y-99265255D01*
X112651627Y-99295859D01*
G36*
X112651627Y-99295859D02*
G01*
X113036427Y-99326464D01*
X113084947Y-100609785D01*
X113085274Y-100618455D01*
X113099811Y-101052122D01*
X113116103Y-101617274D01*
X113133232Y-102276987D01*
X113150280Y-102994339D01*
X113166331Y-103732408D01*
X113180466Y-104454272D01*
X113227465Y-107015439D01*
X112485482Y-107015439D01*
X112432142Y-105893606D01*
X112427550Y-105791673D01*
X112411520Y-105372226D01*
X112393708Y-104826015D01*
X112375020Y-104185288D01*
X112356369Y-103482295D01*
X112338664Y-102749287D01*
X112322814Y-102018513D01*
X112266826Y-99265255D01*
X112651627Y-99295859D01*
G37*
X104495814Y-94415804D02*
X104626236Y-94463310D01*
X104787932Y-94539500D01*
X104906512Y-94611288D01*
X104907403Y-94613935D01*
X104870468Y-94707630D01*
X104770332Y-94904809D01*
X104626116Y-95167538D01*
X104324270Y-95718607D01*
X103937780Y-96502652D01*
X103632571Y-97249518D01*
X103400249Y-97993150D01*
X103232419Y-98767492D01*
X103120687Y-99606489D01*
X103056660Y-100544084D01*
X103031944Y-101614223D01*
X103020520Y-103282673D01*
X102787686Y-102591719D01*
X102726207Y-102393945D01*
X102616490Y-101895554D01*
X102561753Y-101347217D01*
X102561470Y-100721205D01*
X102615118Y-99989787D01*
X102722173Y-99125235D01*
X102744746Y-98968520D01*
X102819709Y-98498976D01*
X102897718Y-98127476D01*
X102994223Y-97798986D01*
X103124675Y-97458472D01*
X103304523Y-97050902D01*
X103423584Y-96788018D01*
X103654658Y-96269750D01*
X103885720Y-95743127D01*
X104081087Y-95289106D01*
X104202609Y-95004055D01*
X104331182Y-94706652D01*
X104423088Y-94499059D01*
X104463828Y-94414412D01*
X104495814Y-94415804D01*
G36*
X104495814Y-94415804D02*
G01*
X104626236Y-94463310D01*
X104787932Y-94539500D01*
X104906512Y-94611288D01*
X104907403Y-94613935D01*
X104870468Y-94707630D01*
X104770332Y-94904809D01*
X104626116Y-95167538D01*
X104324270Y-95718607D01*
X103937780Y-96502652D01*
X103632571Y-97249518D01*
X103400249Y-97993150D01*
X103232419Y-98767492D01*
X103120687Y-99606489D01*
X103056660Y-100544084D01*
X103031944Y-101614223D01*
X103020520Y-103282673D01*
X102787686Y-102591719D01*
X102726207Y-102393945D01*
X102616490Y-101895554D01*
X102561753Y-101347217D01*
X102561470Y-100721205D01*
X102615118Y-99989787D01*
X102722173Y-99125235D01*
X102744746Y-98968520D01*
X102819709Y-98498976D01*
X102897718Y-98127476D01*
X102994223Y-97798986D01*
X103124675Y-97458472D01*
X103304523Y-97050902D01*
X103423584Y-96788018D01*
X103654658Y-96269750D01*
X103885720Y-95743127D01*
X104081087Y-95289106D01*
X104202609Y-95004055D01*
X104331182Y-94706652D01*
X104423088Y-94499059D01*
X104463828Y-94414412D01*
X104495814Y-94415804D01*
G37*
X112742468Y-92758908D02*
X113191003Y-92784315D01*
X113589142Y-92854521D01*
X114027186Y-92983692D01*
X114307286Y-93088474D01*
X114718189Y-93268113D01*
X115162118Y-93483931D01*
X115607694Y-93718635D01*
X116023536Y-93954926D01*
X116378263Y-94175509D01*
X116640496Y-94363088D01*
X116778853Y-94500365D01*
X116806408Y-94538695D01*
X116952518Y-94706982D01*
X117186321Y-94954060D01*
X117482084Y-95253154D01*
X117814073Y-95577489D01*
X117976543Y-95735792D01*
X118497978Y-96284092D01*
X118956633Y-96842822D01*
X119379698Y-97450117D01*
X119794362Y-98144114D01*
X120227815Y-98962947D01*
X120264651Y-99035934D01*
X120485337Y-99482943D01*
X120633581Y-99812280D01*
X120716926Y-100051175D01*
X120742917Y-100226853D01*
X120719099Y-100366544D01*
X120653016Y-100497475D01*
X120576054Y-100599377D01*
X120502824Y-100644493D01*
X120440293Y-100611304D01*
X120249436Y-100508288D01*
X119955694Y-100349066D01*
X119583994Y-100147152D01*
X119159264Y-99916060D01*
X118884029Y-99769278D01*
X118381375Y-99514506D01*
X117891595Y-99281100D01*
X117459346Y-99090042D01*
X117129289Y-98962314D01*
X117032006Y-98929225D01*
X116630439Y-98787947D01*
X116246821Y-98646701D01*
X115952688Y-98531671D01*
X115507524Y-98347728D01*
X114471022Y-98554007D01*
X113781482Y-98673358D01*
X112980331Y-98749892D01*
X112268165Y-98732064D01*
X111613340Y-98616201D01*
X110984210Y-98398631D01*
X110349131Y-98075682D01*
X110182127Y-97982797D01*
X109744639Y-97762074D01*
X109260600Y-97540591D01*
X108807588Y-97354635D01*
X108253824Y-97131871D01*
X107711615Y-96872088D01*
X107273539Y-96601183D01*
X106905304Y-96297438D01*
X106572615Y-95939132D01*
X106377708Y-95686887D01*
X106160398Y-95375586D01*
X105951143Y-95051341D01*
X105773058Y-94751457D01*
X105649257Y-94513239D01*
X105602853Y-94373993D01*
X105642376Y-94312261D01*
X105804725Y-94200169D01*
X106050782Y-94077029D01*
X106335057Y-93964853D01*
X106612061Y-93885653D01*
X106864395Y-93836635D01*
X107032219Y-93836075D01*
X107165412Y-93903332D01*
X107330947Y-94054099D01*
X107559981Y-94243004D01*
X107891854Y-94400248D01*
X108258274Y-94435232D01*
X108677610Y-94345921D01*
X109168232Y-94130278D01*
X109748510Y-93786270D01*
X109775774Y-93768645D01*
X110430402Y-93371928D01*
X111004350Y-93085017D01*
X111532192Y-92895390D01*
X112048502Y-92790525D01*
X112587853Y-92757899D01*
X112742468Y-92758908D01*
G36*
X112742468Y-92758908D02*
G01*
X113191003Y-92784315D01*
X113589142Y-92854521D01*
X114027186Y-92983692D01*
X114307286Y-93088474D01*
X114718189Y-93268113D01*
X115162118Y-93483931D01*
X115607694Y-93718635D01*
X116023536Y-93954926D01*
X116378263Y-94175509D01*
X116640496Y-94363088D01*
X116778853Y-94500365D01*
X116806408Y-94538695D01*
X116952518Y-94706982D01*
X117186321Y-94954060D01*
X117482084Y-95253154D01*
X117814073Y-95577489D01*
X117976543Y-95735792D01*
X118497978Y-96284092D01*
X118956633Y-96842822D01*
X119379698Y-97450117D01*
X119794362Y-98144114D01*
X120227815Y-98962947D01*
X120264651Y-99035934D01*
X120485337Y-99482943D01*
X120633581Y-99812280D01*
X120716926Y-100051175D01*
X120742917Y-100226853D01*
X120719099Y-100366544D01*
X120653016Y-100497475D01*
X120576054Y-100599377D01*
X120502824Y-100644493D01*
X120440293Y-100611304D01*
X120249436Y-100508288D01*
X119955694Y-100349066D01*
X119583994Y-100147152D01*
X119159264Y-99916060D01*
X118884029Y-99769278D01*
X118381375Y-99514506D01*
X117891595Y-99281100D01*
X117459346Y-99090042D01*
X117129289Y-98962314D01*
X117032006Y-98929225D01*
X116630439Y-98787947D01*
X116246821Y-98646701D01*
X115952688Y-98531671D01*
X115507524Y-98347728D01*
X114471022Y-98554007D01*
X113781482Y-98673358D01*
X112980331Y-98749892D01*
X112268165Y-98732064D01*
X111613340Y-98616201D01*
X110984210Y-98398631D01*
X110349131Y-98075682D01*
X110182127Y-97982797D01*
X109744639Y-97762074D01*
X109260600Y-97540591D01*
X108807588Y-97354635D01*
X108253824Y-97131871D01*
X107711615Y-96872088D01*
X107273539Y-96601183D01*
X106905304Y-96297438D01*
X106572615Y-95939132D01*
X106377708Y-95686887D01*
X106160398Y-95375586D01*
X105951143Y-95051341D01*
X105773058Y-94751457D01*
X105649257Y-94513239D01*
X105602853Y-94373993D01*
X105642376Y-94312261D01*
X105804725Y-94200169D01*
X106050782Y-94077029D01*
X106335057Y-93964853D01*
X106612061Y-93885653D01*
X106864395Y-93836635D01*
X107032219Y-93836075D01*
X107165412Y-93903332D01*
X107330947Y-94054099D01*
X107559981Y-94243004D01*
X107891854Y-94400248D01*
X108258274Y-94435232D01*
X108677610Y-94345921D01*
X109168232Y-94130278D01*
X109748510Y-93786270D01*
X109775774Y-93768645D01*
X110430402Y-93371928D01*
X111004350Y-93085017D01*
X111532192Y-92895390D01*
X112048502Y-92790525D01*
X112587853Y-92757899D01*
X112742468Y-92758908D01*
G37*
X104777059Y-95737365D02*
X104750137Y-95972281D01*
X104732106Y-96112259D01*
X104705029Y-96450476D01*
X104685401Y-96862896D01*
X104676567Y-97289599D01*
X104665698Y-97717170D01*
X104621508Y-98187832D01*
X104543384Y-98496099D01*
X104484460Y-98630692D01*
X104393558Y-98770318D01*
X104295113Y-98775325D01*
X104149020Y-98662650D01*
X104121993Y-98635758D01*
X104044726Y-98500571D01*
X104005256Y-98284385D01*
X103994186Y-97943568D01*
X104001904Y-97689103D01*
X104044670Y-97372746D01*
X104137825Y-97034667D01*
X104295842Y-96610928D01*
X104385181Y-96390692D01*
X104558934Y-95987219D01*
X104681882Y-95744238D01*
X104754449Y-95661152D01*
X104777059Y-95737365D01*
G36*
X104777059Y-95737365D02*
G01*
X104750137Y-95972281D01*
X104732106Y-96112259D01*
X104705029Y-96450476D01*
X104685401Y-96862896D01*
X104676567Y-97289599D01*
X104665698Y-97717170D01*
X104621508Y-98187832D01*
X104543384Y-98496099D01*
X104484460Y-98630692D01*
X104393558Y-98770318D01*
X104295113Y-98775325D01*
X104149020Y-98662650D01*
X104121993Y-98635758D01*
X104044726Y-98500571D01*
X104005256Y-98284385D01*
X103994186Y-97943568D01*
X104001904Y-97689103D01*
X104044670Y-97372746D01*
X104137825Y-97034667D01*
X104295842Y-96610928D01*
X104385181Y-96390692D01*
X104558934Y-95987219D01*
X104681882Y-95744238D01*
X104754449Y-95661152D01*
X104777059Y-95737365D01*
G37*
X105298297Y-93822630D02*
X105341308Y-93945474D01*
X105261208Y-94151672D01*
X105182833Y-94254588D01*
X105018561Y-94307876D01*
X104849945Y-94199394D01*
X104848122Y-94197155D01*
X104818858Y-94049551D01*
X104898459Y-93891674D01*
X105041218Y-93779494D01*
X105201428Y-93768983D01*
X105298297Y-93822630D01*
G36*
X105298297Y-93822630D02*
G01*
X105341308Y-93945474D01*
X105261208Y-94151672D01*
X105182833Y-94254588D01*
X105018561Y-94307876D01*
X104849945Y-94199394D01*
X104848122Y-94197155D01*
X104818858Y-94049551D01*
X104898459Y-93891674D01*
X105041218Y-93779494D01*
X105201428Y-93768983D01*
X105298297Y-93822630D01*
G37*
X106834778Y-93169572D02*
X106854921Y-93218282D01*
X106927976Y-93405651D01*
X106957520Y-93500441D01*
X106934253Y-93516097D01*
X106789218Y-93554068D01*
X106555353Y-93593668D01*
X106444326Y-93611987D01*
X106157947Y-93681219D01*
X105946298Y-93761529D01*
X105823074Y-93817764D01*
X105705744Y-93803016D01*
X105575570Y-93664984D01*
X105488223Y-93532571D01*
X105478708Y-93423663D01*
X105572319Y-93325417D01*
X105788667Y-93217800D01*
X106147359Y-93080777D01*
X106712037Y-92875810D01*
X106834778Y-93169572D01*
G36*
X106834778Y-93169572D02*
G01*
X106854921Y-93218282D01*
X106927976Y-93405651D01*
X106957520Y-93500441D01*
X106934253Y-93516097D01*
X106789218Y-93554068D01*
X106555353Y-93593668D01*
X106444326Y-93611987D01*
X106157947Y-93681219D01*
X105946298Y-93761529D01*
X105823074Y-93817764D01*
X105705744Y-93803016D01*
X105575570Y-93664984D01*
X105488223Y-93532571D01*
X105478708Y-93423663D01*
X105572319Y-93325417D01*
X105788667Y-93217800D01*
X106147359Y-93080777D01*
X106712037Y-92875810D01*
X106834778Y-93169572D01*
G37*
X102192900Y-85641606D02*
X102491520Y-85658968D01*
X102717329Y-85698574D01*
X102919579Y-85769224D01*
X103147520Y-85879716D01*
X103525165Y-86095658D01*
X103988729Y-86409270D01*
X104416998Y-86747585D01*
X104770402Y-87078898D01*
X105009374Y-87371507D01*
X105102146Y-87521488D01*
X105440645Y-88153895D01*
X105763473Y-88880006D01*
X106046125Y-89641096D01*
X106264097Y-90378439D01*
X106313533Y-90578684D01*
X106423620Y-91050454D01*
X106522156Y-91506291D01*
X106603431Y-91916479D01*
X106661731Y-92251301D01*
X106691344Y-92481041D01*
X106686557Y-92575984D01*
X106682657Y-92578159D01*
X106575768Y-92621404D01*
X106357264Y-92703858D01*
X106068520Y-92809862D01*
X106026531Y-92825073D01*
X105737408Y-92928003D01*
X105517778Y-93003172D01*
X105412353Y-93035225D01*
X105402159Y-93032888D01*
X105364210Y-92935728D01*
X105348853Y-92738805D01*
X105340245Y-92514504D01*
X105290015Y-92035382D01*
X105203717Y-91482286D01*
X105091495Y-90910160D01*
X104963498Y-90373948D01*
X104829871Y-89928592D01*
X104753804Y-89719471D01*
X104391624Y-88911038D01*
X103968059Y-88226276D01*
X103495505Y-87686015D01*
X103244894Y-87465156D01*
X102942504Y-87257435D01*
X102656852Y-87149617D01*
X102341284Y-87118772D01*
X102170335Y-87136239D01*
X101998548Y-87228949D01*
X101817629Y-87436272D01*
X101700216Y-87585186D01*
X101464076Y-87853106D01*
X101208111Y-88115232D01*
X100964617Y-88340690D01*
X100765887Y-88498606D01*
X100644213Y-88558106D01*
X100404103Y-88502646D01*
X100131481Y-88314991D01*
X99920277Y-88030681D01*
X99894861Y-87982734D01*
X99720841Y-87756472D01*
X99503734Y-87655782D01*
X99474306Y-87649477D01*
X99303666Y-87570954D01*
X99259537Y-87425689D01*
X99274099Y-87335238D01*
X99309520Y-87353387D01*
X99370936Y-87434056D01*
X99559199Y-87564396D01*
X99798088Y-87668738D01*
X100017161Y-87711439D01*
X100056101Y-87706881D01*
X100244767Y-87622073D01*
X100444699Y-87463952D01*
X100608176Y-87255236D01*
X100704091Y-86939618D01*
X100633573Y-86620240D01*
X100397161Y-86310189D01*
X100102136Y-86031944D01*
X100502995Y-85834525D01*
X100615582Y-85781926D01*
X100823107Y-85707660D01*
X101056706Y-85663717D01*
X101364060Y-85642822D01*
X101792853Y-85637700D01*
X102192900Y-85641606D01*
G36*
X102192900Y-85641606D02*
G01*
X102491520Y-85658968D01*
X102717329Y-85698574D01*
X102919579Y-85769224D01*
X103147520Y-85879716D01*
X103525165Y-86095658D01*
X103988729Y-86409270D01*
X104416998Y-86747585D01*
X104770402Y-87078898D01*
X105009374Y-87371507D01*
X105102146Y-87521488D01*
X105440645Y-88153895D01*
X105763473Y-88880006D01*
X106046125Y-89641096D01*
X106264097Y-90378439D01*
X106313533Y-90578684D01*
X106423620Y-91050454D01*
X106522156Y-91506291D01*
X106603431Y-91916479D01*
X106661731Y-92251301D01*
X106691344Y-92481041D01*
X106686557Y-92575984D01*
X106682657Y-92578159D01*
X106575768Y-92621404D01*
X106357264Y-92703858D01*
X106068520Y-92809862D01*
X106026531Y-92825073D01*
X105737408Y-92928003D01*
X105517778Y-93003172D01*
X105412353Y-93035225D01*
X105402159Y-93032888D01*
X105364210Y-92935728D01*
X105348853Y-92738805D01*
X105340245Y-92514504D01*
X105290015Y-92035382D01*
X105203717Y-91482286D01*
X105091495Y-90910160D01*
X104963498Y-90373948D01*
X104829871Y-89928592D01*
X104753804Y-89719471D01*
X104391624Y-88911038D01*
X103968059Y-88226276D01*
X103495505Y-87686015D01*
X103244894Y-87465156D01*
X102942504Y-87257435D01*
X102656852Y-87149617D01*
X102341284Y-87118772D01*
X102170335Y-87136239D01*
X101998548Y-87228949D01*
X101817629Y-87436272D01*
X101700216Y-87585186D01*
X101464076Y-87853106D01*
X101208111Y-88115232D01*
X100964617Y-88340690D01*
X100765887Y-88498606D01*
X100644213Y-88558106D01*
X100404103Y-88502646D01*
X100131481Y-88314991D01*
X99920277Y-88030681D01*
X99894861Y-87982734D01*
X99720841Y-87756472D01*
X99503734Y-87655782D01*
X99474306Y-87649477D01*
X99303666Y-87570954D01*
X99259537Y-87425689D01*
X99274099Y-87335238D01*
X99309520Y-87353387D01*
X99370936Y-87434056D01*
X99559199Y-87564396D01*
X99798088Y-87668738D01*
X100017161Y-87711439D01*
X100056101Y-87706881D01*
X100244767Y-87622073D01*
X100444699Y-87463952D01*
X100608176Y-87255236D01*
X100704091Y-86939618D01*
X100633573Y-86620240D01*
X100397161Y-86310189D01*
X100102136Y-86031944D01*
X100502995Y-85834525D01*
X100615582Y-85781926D01*
X100823107Y-85707660D01*
X101056706Y-85663717D01*
X101364060Y-85642822D01*
X101792853Y-85637700D01*
X102192900Y-85641606D01*
G37*
X98877450Y-89375870D02*
X99117313Y-89457963D01*
X99360621Y-89589313D01*
X99554250Y-89749034D01*
X99585784Y-89786050D01*
X99629046Y-89874318D01*
X99615344Y-89989903D01*
X99534906Y-90172268D01*
X99377958Y-90460873D01*
X99347014Y-90515294D01*
X99188400Y-90767146D01*
X99055294Y-90937136D01*
X98973828Y-90990986D01*
X98918685Y-90960986D01*
X98781185Y-90784536D01*
X98666365Y-90507463D01*
X98584584Y-90179618D01*
X98546206Y-89850856D01*
X98561589Y-89571031D01*
X98641096Y-89389996D01*
X98694156Y-89363923D01*
X98877450Y-89375870D01*
G36*
X98877450Y-89375870D02*
G01*
X99117313Y-89457963D01*
X99360621Y-89589313D01*
X99554250Y-89749034D01*
X99585784Y-89786050D01*
X99629046Y-89874318D01*
X99615344Y-89989903D01*
X99534906Y-90172268D01*
X99377958Y-90460873D01*
X99347014Y-90515294D01*
X99188400Y-90767146D01*
X99055294Y-90937136D01*
X98973828Y-90990986D01*
X98918685Y-90960986D01*
X98781185Y-90784536D01*
X98666365Y-90507463D01*
X98584584Y-90179618D01*
X98546206Y-89850856D01*
X98561589Y-89571031D01*
X98641096Y-89389996D01*
X98694156Y-89363923D01*
X98877450Y-89375870D01*
G37*
X99513687Y-88074164D02*
X99627708Y-88267432D01*
X99656938Y-88337351D01*
X99815424Y-88528493D01*
X100052277Y-88711851D01*
X100310711Y-88839833D01*
X100326166Y-88862436D01*
X100292992Y-88987606D01*
X100183711Y-89178257D01*
X100053034Y-89359351D01*
X99928051Y-89465120D01*
X99796057Y-89450691D01*
X99604590Y-89329791D01*
X99580639Y-89313238D01*
X99334531Y-89168484D01*
X99062353Y-89037778D01*
X98992146Y-89006558D01*
X98815572Y-88905589D01*
X98744853Y-88826766D01*
X98780517Y-88669748D01*
X98878791Y-88433563D01*
X99003198Y-88204103D01*
X99116899Y-88057537D01*
X99137388Y-88041893D01*
X99330931Y-87991047D01*
X99513687Y-88074164D01*
G36*
X99513687Y-88074164D02*
G01*
X99627708Y-88267432D01*
X99656938Y-88337351D01*
X99815424Y-88528493D01*
X100052277Y-88711851D01*
X100310711Y-88839833D01*
X100326166Y-88862436D01*
X100292992Y-88987606D01*
X100183711Y-89178257D01*
X100053034Y-89359351D01*
X99928051Y-89465120D01*
X99796057Y-89450691D01*
X99604590Y-89329791D01*
X99580639Y-89313238D01*
X99334531Y-89168484D01*
X99062353Y-89037778D01*
X98992146Y-89006558D01*
X98815572Y-88905589D01*
X98744853Y-88826766D01*
X98780517Y-88669748D01*
X98878791Y-88433563D01*
X99003198Y-88204103D01*
X99116899Y-88057537D01*
X99137388Y-88041893D01*
X99330931Y-87991047D01*
X99513687Y-88074164D01*
G37*
X102162696Y-84236393D02*
X102619199Y-84424430D01*
X103086439Y-84683372D01*
X103526913Y-84987445D01*
X103914673Y-85314692D01*
X104223771Y-85643158D01*
X104428258Y-85950886D01*
X104502186Y-86215922D01*
X104502186Y-86458980D01*
X104191075Y-86185821D01*
X104186914Y-86182188D01*
X103947875Y-86005898D01*
X103623696Y-85806591D01*
X103283297Y-85626717D01*
X103233746Y-85603049D01*
X102963413Y-85481198D01*
X102737932Y-85404336D01*
X102503766Y-85362179D01*
X102207381Y-85344442D01*
X101795242Y-85340839D01*
X101425995Y-85344023D01*
X101110021Y-85360779D01*
X100867391Y-85400026D01*
X100646527Y-85470633D01*
X100395853Y-85581469D01*
X99911788Y-85865543D01*
X99487918Y-86228554D01*
X99173259Y-86630651D01*
X98997146Y-87041221D01*
X98963745Y-87173650D01*
X98895882Y-87359466D01*
X98806668Y-87439985D01*
X98662109Y-87457439D01*
X98575643Y-87452724D01*
X98363402Y-87366324D01*
X98259734Y-87162182D01*
X98257084Y-86828567D01*
X98365187Y-86373155D01*
X98581864Y-85868973D01*
X98874527Y-85386888D01*
X99211703Y-84987600D01*
X99590311Y-84666765D01*
X100195482Y-84316228D01*
X100834168Y-84125558D01*
X101494022Y-84097899D01*
X102162696Y-84236393D01*
G36*
X102162696Y-84236393D02*
G01*
X102619199Y-84424430D01*
X103086439Y-84683372D01*
X103526913Y-84987445D01*
X103914673Y-85314692D01*
X104223771Y-85643158D01*
X104428258Y-85950886D01*
X104502186Y-86215922D01*
X104502186Y-86458980D01*
X104191075Y-86185821D01*
X104186914Y-86182188D01*
X103947875Y-86005898D01*
X103623696Y-85806591D01*
X103283297Y-85626717D01*
X103233746Y-85603049D01*
X102963413Y-85481198D01*
X102737932Y-85404336D01*
X102503766Y-85362179D01*
X102207381Y-85344442D01*
X101795242Y-85340839D01*
X101425995Y-85344023D01*
X101110021Y-85360779D01*
X100867391Y-85400026D01*
X100646527Y-85470633D01*
X100395853Y-85581469D01*
X99911788Y-85865543D01*
X99487918Y-86228554D01*
X99173259Y-86630651D01*
X98997146Y-87041221D01*
X98963745Y-87173650D01*
X98895882Y-87359466D01*
X98806668Y-87439985D01*
X98662109Y-87457439D01*
X98575643Y-87452724D01*
X98363402Y-87366324D01*
X98259734Y-87162182D01*
X98257084Y-86828567D01*
X98365187Y-86373155D01*
X98581864Y-85868973D01*
X98874527Y-85386888D01*
X99211703Y-84987600D01*
X99590311Y-84666765D01*
X100195482Y-84316228D01*
X100834168Y-84125558D01*
X101494022Y-84097899D01*
X102162696Y-84236393D01*
G37*
X100067222Y-86458410D02*
X100266745Y-86570377D01*
X100392355Y-86760652D01*
X100398606Y-87009527D01*
X100338955Y-87245772D01*
X100216533Y-87012939D01*
X100103276Y-86868972D01*
X99914214Y-86778599D01*
X99729967Y-86808526D01*
X99603063Y-86963025D01*
X99572726Y-87040537D01*
X99527102Y-87091297D01*
X99476871Y-86993429D01*
X99467908Y-86851055D01*
X99549218Y-86641176D01*
X99628224Y-86548237D01*
X99839233Y-86444461D01*
X100067222Y-86458410D01*
G36*
X100067222Y-86458410D02*
G01*
X100266745Y-86570377D01*
X100392355Y-86760652D01*
X100398606Y-87009527D01*
X100338955Y-87245772D01*
X100216533Y-87012939D01*
X100103276Y-86868972D01*
X99914214Y-86778599D01*
X99729967Y-86808526D01*
X99603063Y-86963025D01*
X99572726Y-87040537D01*
X99527102Y-87091297D01*
X99476871Y-86993429D01*
X99467908Y-86851055D01*
X99549218Y-86641176D01*
X99628224Y-86548237D01*
X99839233Y-86444461D01*
X100067222Y-86458410D01*
G37*
X101602304Y-83589335D02*
X101660861Y-83594004D01*
X102129009Y-83638434D01*
X102460973Y-83689025D01*
X102686717Y-83754105D01*
X102836203Y-83842006D01*
X102939393Y-83961056D01*
X103026711Y-84117119D01*
X103045348Y-84201166D01*
X103041014Y-84202955D01*
X102931994Y-84182864D01*
X102712721Y-84116619D01*
X102424750Y-84016579D01*
X102115375Y-83912497D01*
X101825384Y-83847820D01*
X101517017Y-83825855D01*
X101115520Y-83836311D01*
X100809781Y-83856671D01*
X100475513Y-83905440D01*
X100187176Y-83993602D01*
X99872854Y-84138657D01*
X99600732Y-84287283D01*
X99389790Y-84420437D01*
X99285853Y-84509207D01*
X99225214Y-84568867D01*
X99189148Y-84522339D01*
X99195189Y-84398660D01*
X99249872Y-84245676D01*
X99403937Y-84073999D01*
X99709594Y-83895210D01*
X100117834Y-83747424D01*
X100593081Y-83640566D01*
X101099763Y-83584561D01*
X101602304Y-83589335D01*
G36*
X101602304Y-83589335D02*
G01*
X101660861Y-83594004D01*
X102129009Y-83638434D01*
X102460973Y-83689025D01*
X102686717Y-83754105D01*
X102836203Y-83842006D01*
X102939393Y-83961056D01*
X103026711Y-84117119D01*
X103045348Y-84201166D01*
X103041014Y-84202955D01*
X102931994Y-84182864D01*
X102712721Y-84116619D01*
X102424750Y-84016579D01*
X102115375Y-83912497D01*
X101825384Y-83847820D01*
X101517017Y-83825855D01*
X101115520Y-83836311D01*
X100809781Y-83856671D01*
X100475513Y-83905440D01*
X100187176Y-83993602D01*
X99872854Y-84138657D01*
X99600732Y-84287283D01*
X99389790Y-84420437D01*
X99285853Y-84509207D01*
X99225214Y-84568867D01*
X99189148Y-84522339D01*
X99195189Y-84398660D01*
X99249872Y-84245676D01*
X99403937Y-84073999D01*
X99709594Y-83895210D01*
X100117834Y-83747424D01*
X100593081Y-83640566D01*
X101099763Y-83584561D01*
X101602304Y-83589335D01*
G37*
%TD*%
%LPC*%
D12*
%TO.C,REF\u002A\u002A*%
X143300000Y-67200000D03*
%TD*%
%TO.C,REF\u002A\u002A*%
X66500000Y-108000000D03*
%TD*%
%TO.C,REF\u002A\u002A*%
X165500000Y-131000000D03*
%TD*%
%TO.C,REF\u002A\u002A*%
X58000000Y-66000000D03*
%TD*%
D13*
%TO.C,XA1*%
X102880000Y-132490000D03*
X128280000Y-132490000D03*
X107960000Y-132490000D03*
X110500000Y-132490000D03*
X113040000Y-132490000D03*
X115580000Y-132490000D03*
X118120000Y-132490000D03*
X120660000Y-132490000D03*
X123200000Y-132490000D03*
X125740000Y-132490000D03*
X105420000Y-132490000D03*
X133360000Y-117250000D03*
X135900000Y-117250000D03*
X125740000Y-117250000D03*
X123200000Y-117250000D03*
X120660000Y-117250000D03*
X118120000Y-117250000D03*
X115580000Y-117250000D03*
X113040000Y-117250000D03*
X110500000Y-117250000D03*
X107960000Y-117250000D03*
X105420000Y-117250000D03*
X102880000Y-117250000D03*
X100340000Y-117250000D03*
X100340000Y-132490000D03*
D14*
X128280000Y-117250000D03*
X133360000Y-132490000D03*
D13*
X130820000Y-117250000D03*
X130820000Y-132490000D03*
X135900000Y-132490000D03*
%TD*%
D15*
%TO.C,J1*%
X59600000Y-95750000D03*
X59600000Y-100750000D03*
%TD*%
D16*
%TO.C,SW1*%
X67100000Y-88200000D03*
X62400000Y-88200000D03*
%TD*%
D17*
%TO.C,U2*%
X159662500Y-93267500D03*
X159662500Y-90727500D03*
X159662500Y-88187500D03*
X159662500Y-85647500D03*
X159662500Y-83107500D03*
X159662500Y-80567500D03*
X159662500Y-78027500D03*
X159662500Y-75487500D03*
X159662500Y-72947500D03*
X159662500Y-70407500D03*
X159662500Y-67867500D03*
X159662500Y-65327500D03*
X159662500Y-62787500D03*
X97686500Y-62787500D03*
X100226500Y-62787500D03*
X102766500Y-62787500D03*
X105306500Y-62787500D03*
X107846500Y-62787500D03*
X97686500Y-111047500D03*
X100226500Y-111047500D03*
X102766500Y-111047500D03*
X105306500Y-111047500D03*
X107846500Y-111047500D03*
%TD*%
D15*
%TO.C,J6*%
X76100000Y-100750000D03*
X76100000Y-95750000D03*
%TD*%
D18*
%TO.C,J5*%
X87655400Y-65659000D03*
D19*
X85115400Y-65659000D03*
X82575400Y-65659000D03*
X80035400Y-65659000D03*
X77495400Y-65659000D03*
X74955400Y-65659000D03*
%TD*%
D18*
%TO.C,J4*%
X74880000Y-108686600D03*
D19*
X77420000Y-108686600D03*
X79960000Y-108686600D03*
X82500000Y-108686600D03*
X85040000Y-108686600D03*
X87580000Y-108686600D03*
%TD*%
D17*
%TO.C,J2*%
X87172800Y-114736100D03*
X84632800Y-114736100D03*
%TD*%
%TO.C,J9*%
X143484600Y-121056400D03*
X143484600Y-123596400D03*
X143484600Y-126136400D03*
X143484600Y-128676400D03*
%TD*%
%TO.C,J10*%
X58000000Y-108079500D03*
X58000000Y-110619500D03*
X58000000Y-113159500D03*
X58000000Y-115699500D03*
%TD*%
D15*
%TO.C,J8*%
X76100000Y-80750000D03*
X76100000Y-75750000D03*
%TD*%
D17*
%TO.C,J3*%
X87172800Y-118986100D03*
X84632800Y-118986100D03*
%TD*%
%TO.C,J13*%
X58000000Y-123024000D03*
X58000000Y-125564000D03*
X58000000Y-128104000D03*
X58000000Y-130644000D03*
%TD*%
D15*
%TO.C,J7*%
X76100000Y-90750000D03*
X76100000Y-85750000D03*
%TD*%
D17*
%TO.C,J12*%
X166860500Y-62780500D03*
X166860500Y-65320500D03*
X166860500Y-67860500D03*
X166860500Y-70400500D03*
X166860500Y-72940500D03*
%TD*%
%TO.C,U3*%
X148996400Y-116687600D03*
X151536400Y-116687600D03*
X154076400Y-116687600D03*
X156616400Y-116687600D03*
X159156400Y-116687600D03*
%TD*%
%TO.C,J14*%
X76600000Y-121524000D03*
X76600000Y-124064000D03*
X76600000Y-126604000D03*
X76600000Y-129144000D03*
X76600000Y-131684000D03*
%TD*%
%TO.C,J11*%
X166860500Y-77250000D03*
X166860500Y-79790000D03*
X166860500Y-82330000D03*
X166860500Y-84870000D03*
X166860500Y-87410000D03*
%TD*%
%LPD*%
M02*
