%TF.GenerationSoftware,KiCad,Pcbnew,7.0.10*%
%TF.CreationDate,2024-01-18T22:20:53-08:00*%
%TF.ProjectId,r2dtf dev board rev 1,72326474-6620-4646-9576-20626f617264,rev?*%
%TF.SameCoordinates,Original*%
%TF.FileFunction,Drillmap*%
%TF.FilePolarity,Positive*%
%FSLAX45Y45*%
G04 Gerber Fmt 4.5, Leading zero omitted, Abs format (unit mm)*
G04 Created by KiCad (PCBNEW 7.0.10) date 2024-01-18 22:20:53*
%MOMM*%
%LPD*%
G01*
G04 APERTURE LIST*
%ADD10C,0.100000*%
%ADD11C,0.200000*%
%ADD12C,0.101600*%
%ADD13C,0.130000*%
G04 APERTURE END LIST*
D10*
X5201421Y-6200000D02*
X5201421Y-13358579D01*
X16800000Y-6000000D02*
X5401421Y-6000000D01*
X17000000Y-13358579D02*
X17000000Y-6200000D01*
X5401421Y-13558579D02*
X16800000Y-13558579D01*
X5201421Y-13358579D02*
G75*
G03*
X5401421Y-13558579I200000J0D01*
G01*
X16800000Y-13558579D02*
G75*
G03*
X17000000Y-13358579I0J200000D01*
G01*
X17000000Y-6200000D02*
G75*
G03*
X16800000Y-6000000I-200000J0D01*
G01*
X5401421Y-6000000D02*
G75*
G03*
X5201421Y-6200000I0J-200000D01*
G01*
D11*
D10*
X5385000Y-7185000D02*
X5415000Y-7215000D01*
X5415000Y-7185000D02*
X5385000Y-7215000D01*
X5385000Y-7285000D02*
X5415000Y-7315000D01*
X5415000Y-7285000D02*
X5385000Y-7315000D01*
X5385000Y-7385000D02*
X5415000Y-7415000D01*
X5415000Y-7385000D02*
X5385000Y-7415000D01*
X5435000Y-9795000D02*
X5465000Y-9825000D01*
X5465000Y-9795000D02*
X5435000Y-9825000D01*
X5485000Y-6215000D02*
X5515000Y-6245000D01*
X5515000Y-6215000D02*
X5485000Y-6245000D01*
X5485000Y-7185000D02*
X5515000Y-7215000D01*
X5515000Y-7185000D02*
X5485000Y-7215000D01*
X5485000Y-7285000D02*
X5515000Y-7315000D01*
X5515000Y-7285000D02*
X5485000Y-7315000D01*
X5485000Y-7385000D02*
X5515000Y-7415000D01*
X5515000Y-7385000D02*
X5485000Y-7415000D01*
X5585000Y-7185000D02*
X5615000Y-7215000D01*
X5615000Y-7185000D02*
X5585000Y-7215000D01*
X5585000Y-7285000D02*
X5615000Y-7315000D01*
X5615000Y-7285000D02*
X5585000Y-7315000D01*
X5585000Y-7385000D02*
X5615000Y-7415000D01*
X5615000Y-7385000D02*
X5585000Y-7415000D01*
X5605000Y-10915000D02*
X5635000Y-10945000D01*
X5635000Y-10915000D02*
X5605000Y-10945000D01*
X5705000Y-11965000D02*
X5735000Y-11995000D01*
X5735000Y-11965000D02*
X5705000Y-11995000D01*
X6035000Y-10435000D02*
X6065000Y-10465000D01*
X6065000Y-10435000D02*
X6035000Y-10465000D01*
X6035000Y-10535000D02*
X6065000Y-10565000D01*
X6065000Y-10535000D02*
X6035000Y-10565000D01*
X6035000Y-10635000D02*
X6065000Y-10665000D01*
X6065000Y-10635000D02*
X6035000Y-10665000D01*
X6045000Y-13155000D02*
X6075000Y-13185000D01*
X6075000Y-13155000D02*
X6045000Y-13185000D01*
X6045000Y-13255000D02*
X6075000Y-13285000D01*
X6075000Y-13255000D02*
X6045000Y-13285000D01*
X6045000Y-13355000D02*
X6075000Y-13385000D01*
X6075000Y-13355000D02*
X6045000Y-13385000D01*
X6065000Y-11665000D02*
X6095000Y-11695000D01*
X6095000Y-11665000D02*
X6065000Y-11695000D01*
X6085000Y-8075000D02*
X6115000Y-8105000D01*
X6115000Y-8075000D02*
X6085000Y-8105000D01*
X6085000Y-8175000D02*
X6115000Y-8205000D01*
X6115000Y-8175000D02*
X6085000Y-8205000D01*
X6085000Y-8275000D02*
X6115000Y-8305000D01*
X6115000Y-8275000D02*
X6085000Y-8305000D01*
X6135000Y-10435000D02*
X6165000Y-10465000D01*
X6165000Y-10435000D02*
X6135000Y-10465000D01*
X6135000Y-10535000D02*
X6165000Y-10565000D01*
X6165000Y-10535000D02*
X6135000Y-10565000D01*
X6135000Y-10635000D02*
X6165000Y-10665000D01*
X6165000Y-10635000D02*
X6135000Y-10665000D01*
X6145000Y-13155000D02*
X6175000Y-13185000D01*
X6175000Y-13155000D02*
X6145000Y-13185000D01*
X6145000Y-13255000D02*
X6175000Y-13285000D01*
X6175000Y-13255000D02*
X6145000Y-13285000D01*
X6145000Y-13355000D02*
X6175000Y-13385000D01*
X6175000Y-13355000D02*
X6145000Y-13385000D01*
X6185000Y-8075000D02*
X6215000Y-8105000D01*
X6215000Y-8075000D02*
X6185000Y-8105000D01*
X6185000Y-8175000D02*
X6215000Y-8205000D01*
X6215000Y-8175000D02*
X6185000Y-8205000D01*
X6185000Y-8275000D02*
X6215000Y-8305000D01*
X6215000Y-8275000D02*
X6185000Y-8305000D01*
X6235000Y-10435000D02*
X6265000Y-10465000D01*
X6265000Y-10435000D02*
X6235000Y-10465000D01*
X6235000Y-10535000D02*
X6265000Y-10565000D01*
X6265000Y-10535000D02*
X6235000Y-10565000D01*
X6235000Y-10635000D02*
X6265000Y-10665000D01*
X6265000Y-10635000D02*
X6235000Y-10665000D01*
X6245000Y-13155000D02*
X6275000Y-13185000D01*
X6275000Y-13155000D02*
X6245000Y-13185000D01*
X6245000Y-13255000D02*
X6275000Y-13285000D01*
X6275000Y-13255000D02*
X6245000Y-13285000D01*
X6245000Y-13355000D02*
X6275000Y-13385000D01*
X6275000Y-13355000D02*
X6245000Y-13385000D01*
X6285000Y-8075000D02*
X6315000Y-8105000D01*
X6315000Y-8075000D02*
X6285000Y-8105000D01*
X6285000Y-8175000D02*
X6315000Y-8205000D01*
X6315000Y-8175000D02*
X6285000Y-8205000D01*
X6285000Y-8275000D02*
X6315000Y-8305000D01*
X6315000Y-8275000D02*
X6285000Y-8305000D01*
X6425000Y-11955000D02*
X6455000Y-11985000D01*
X6455000Y-11955000D02*
X6425000Y-11985000D01*
X6755000Y-7015000D02*
X6785000Y-7045000D01*
X6785000Y-7015000D02*
X6755000Y-7045000D01*
X6805000Y-13185000D02*
X6835000Y-13215000D01*
X6835000Y-13185000D02*
X6805000Y-13215000D01*
X7075000Y-11585000D02*
X7105000Y-11615000D01*
X7105000Y-11585000D02*
X7075000Y-11615000D01*
X7075000Y-11685000D02*
X7105000Y-11715000D01*
X7105000Y-11685000D02*
X7075000Y-11715000D01*
X7075000Y-11785000D02*
X7105000Y-11815000D01*
X7105000Y-11785000D02*
X7075000Y-11815000D01*
X7175000Y-11585000D02*
X7205000Y-11615000D01*
X7205000Y-11585000D02*
X7175000Y-11615000D01*
X7175000Y-11685000D02*
X7205000Y-11715000D01*
X7205000Y-11685000D02*
X7175000Y-11715000D01*
X7175000Y-11785000D02*
X7205000Y-11815000D01*
X7205000Y-11785000D02*
X7175000Y-11815000D01*
X7205000Y-13025000D02*
X7235000Y-13055000D01*
X7235000Y-13025000D02*
X7205000Y-13055000D01*
X7275000Y-11585000D02*
X7305000Y-11615000D01*
X7305000Y-11585000D02*
X7275000Y-11615000D01*
X7275000Y-11685000D02*
X7305000Y-11715000D01*
X7305000Y-11685000D02*
X7275000Y-11715000D01*
X7275000Y-11785000D02*
X7305000Y-11815000D01*
X7305000Y-11785000D02*
X7275000Y-11815000D01*
X7785000Y-6805000D02*
X7815000Y-6835000D01*
X7815000Y-6805000D02*
X7785000Y-6835000D01*
X7995000Y-6215000D02*
X8025000Y-6245000D01*
X8025000Y-6215000D02*
X7995000Y-6245000D01*
X8045000Y-8735000D02*
X8075000Y-8765000D01*
X8075000Y-8735000D02*
X8045000Y-8765000D01*
X8045000Y-8835000D02*
X8075000Y-8865000D01*
X8075000Y-8835000D02*
X8045000Y-8865000D01*
X8045000Y-8935000D02*
X8075000Y-8965000D01*
X8075000Y-8935000D02*
X8045000Y-8965000D01*
X8135000Y-12255000D02*
X8165000Y-12285000D01*
X8165000Y-12255000D02*
X8135000Y-12285000D01*
X8135000Y-12525000D02*
X8165000Y-12555000D01*
X8165000Y-12525000D02*
X8135000Y-12555000D01*
X8135000Y-12785000D02*
X8165000Y-12815000D01*
X8165000Y-12785000D02*
X8135000Y-12815000D01*
X8135000Y-13235000D02*
X8165000Y-13265000D01*
X8165000Y-13235000D02*
X8135000Y-13265000D01*
X8145000Y-8735000D02*
X8175000Y-8765000D01*
X8175000Y-8735000D02*
X8145000Y-8765000D01*
X8145000Y-8835000D02*
X8175000Y-8865000D01*
X8175000Y-8835000D02*
X8145000Y-8865000D01*
X8145000Y-8935000D02*
X8175000Y-8965000D01*
X8175000Y-8935000D02*
X8145000Y-8965000D01*
X8205000Y-11105000D02*
X8235000Y-11135000D01*
X8235000Y-11105000D02*
X8205000Y-11135000D01*
X8245000Y-8735000D02*
X8275000Y-8765000D01*
X8275000Y-8735000D02*
X8245000Y-8765000D01*
X8245000Y-8835000D02*
X8275000Y-8865000D01*
X8275000Y-8835000D02*
X8245000Y-8865000D01*
X8245000Y-8935000D02*
X8275000Y-8965000D01*
X8275000Y-8935000D02*
X8245000Y-8965000D01*
X8655000Y-11105000D02*
X8685000Y-11135000D01*
X8685000Y-11105000D02*
X8655000Y-11135000D01*
X8935000Y-10585000D02*
X8965000Y-10615000D01*
X8965000Y-10585000D02*
X8935000Y-10615000D01*
X9035000Y-11445000D02*
X9065000Y-11475000D01*
X9065000Y-11445000D02*
X9035000Y-11475000D01*
X9495000Y-6115000D02*
X9525000Y-6145000D01*
X9525000Y-6115000D02*
X9495000Y-6145000D01*
X9545000Y-11435000D02*
X9575000Y-11465000D01*
X9575000Y-11435000D02*
X9545000Y-11465000D01*
X9665000Y-8685000D02*
X9695000Y-8715000D01*
X9695000Y-8685000D02*
X9665000Y-8715000D01*
X9665000Y-8785000D02*
X9695000Y-8815000D01*
X9695000Y-8785000D02*
X9665000Y-8815000D01*
X9665000Y-8885000D02*
X9695000Y-8915000D01*
X9695000Y-8885000D02*
X9665000Y-8915000D01*
X9755000Y-6555000D02*
X9785000Y-6585000D01*
X9785000Y-6555000D02*
X9755000Y-6585000D01*
X9765000Y-8685000D02*
X9795000Y-8715000D01*
X9795000Y-8685000D02*
X9765000Y-8715000D01*
X9765000Y-8785000D02*
X9795000Y-8815000D01*
X9795000Y-8785000D02*
X9765000Y-8815000D01*
X9765000Y-8885000D02*
X9795000Y-8915000D01*
X9795000Y-8885000D02*
X9765000Y-8915000D01*
X9865000Y-8685000D02*
X9895000Y-8715000D01*
X9895000Y-8685000D02*
X9865000Y-8715000D01*
X9865000Y-8785000D02*
X9895000Y-8815000D01*
X9895000Y-8785000D02*
X9865000Y-8815000D01*
X9865000Y-8885000D02*
X9895000Y-8915000D01*
X9895000Y-8885000D02*
X9865000Y-8915000D01*
X10535000Y-9875000D02*
X10565000Y-9905000D01*
X10565000Y-9875000D02*
X10535000Y-9905000D01*
X11205000Y-9775000D02*
X11235000Y-9805000D01*
X11235000Y-9775000D02*
X11205000Y-9805000D01*
X11205000Y-9875000D02*
X11235000Y-9905000D01*
X11235000Y-9875000D02*
X11205000Y-9905000D01*
X11205000Y-9975000D02*
X11235000Y-10005000D01*
X11235000Y-9975000D02*
X11205000Y-10005000D01*
X11305000Y-9775000D02*
X11335000Y-9805000D01*
X11335000Y-9775000D02*
X11305000Y-9805000D01*
X11305000Y-9875000D02*
X11335000Y-9905000D01*
X11335000Y-9875000D02*
X11305000Y-9905000D01*
X11305000Y-9975000D02*
X11335000Y-10005000D01*
X11335000Y-9975000D02*
X11305000Y-10005000D01*
X11405000Y-9775000D02*
X11435000Y-9805000D01*
X11435000Y-9775000D02*
X11405000Y-9805000D01*
X11405000Y-9875000D02*
X11435000Y-9905000D01*
X11435000Y-9875000D02*
X11405000Y-9905000D01*
X11405000Y-9975000D02*
X11435000Y-10005000D01*
X11435000Y-9975000D02*
X11405000Y-10005000D01*
X11455000Y-8165000D02*
X11485000Y-8195000D01*
X11485000Y-8165000D02*
X11455000Y-8195000D01*
X11475000Y-12745000D02*
X11505000Y-12775000D01*
X11505000Y-12745000D02*
X11475000Y-12775000D01*
X11475000Y-12845000D02*
X11505000Y-12875000D01*
X11505000Y-12845000D02*
X11475000Y-12875000D01*
X11475000Y-12945000D02*
X11505000Y-12975000D01*
X11505000Y-12945000D02*
X11475000Y-12975000D01*
X11575000Y-12745000D02*
X11605000Y-12775000D01*
X11605000Y-12745000D02*
X11575000Y-12775000D01*
X11575000Y-12845000D02*
X11605000Y-12875000D01*
X11605000Y-12845000D02*
X11575000Y-12875000D01*
X11575000Y-12945000D02*
X11605000Y-12975000D01*
X11605000Y-12945000D02*
X11575000Y-12975000D01*
X11675000Y-12745000D02*
X11705000Y-12775000D01*
X11705000Y-12745000D02*
X11675000Y-12775000D01*
X11675000Y-12845000D02*
X11705000Y-12875000D01*
X11705000Y-12845000D02*
X11675000Y-12875000D01*
X11675000Y-12945000D02*
X11705000Y-12975000D01*
X11705000Y-12945000D02*
X11675000Y-12975000D01*
X12045000Y-12165000D02*
X12075000Y-12195000D01*
X12075000Y-12165000D02*
X12045000Y-12195000D01*
X12045000Y-12265000D02*
X12075000Y-12295000D01*
X12075000Y-12265000D02*
X12045000Y-12295000D01*
X12045000Y-12365000D02*
X12075000Y-12395000D01*
X12075000Y-12365000D02*
X12045000Y-12395000D01*
X12145000Y-12165000D02*
X12175000Y-12195000D01*
X12175000Y-12165000D02*
X12145000Y-12195000D01*
X12145000Y-12265000D02*
X12175000Y-12295000D01*
X12175000Y-12265000D02*
X12145000Y-12295000D01*
X12145000Y-12365000D02*
X12175000Y-12395000D01*
X12175000Y-12365000D02*
X12145000Y-12395000D01*
X12245000Y-12165000D02*
X12275000Y-12195000D01*
X12275000Y-12165000D02*
X12245000Y-12195000D01*
X12245000Y-12265000D02*
X12275000Y-12295000D01*
X12275000Y-12265000D02*
X12245000Y-12295000D01*
X12245000Y-12365000D02*
X12275000Y-12395000D01*
X12275000Y-12365000D02*
X12245000Y-12395000D01*
X12335000Y-11245000D02*
X12365000Y-11275000D01*
X12365000Y-11245000D02*
X12335000Y-11275000D01*
X12415000Y-12785000D02*
X12445000Y-12815000D01*
X12445000Y-12785000D02*
X12415000Y-12815000D01*
X12525000Y-9345000D02*
X12555000Y-9375000D01*
X12555000Y-9345000D02*
X12525000Y-9375000D01*
X12655000Y-8065000D02*
X12685000Y-8095000D01*
X12685000Y-8065000D02*
X12655000Y-8095000D01*
X12655000Y-8165000D02*
X12685000Y-8195000D01*
X12685000Y-8165000D02*
X12655000Y-8195000D01*
X12655000Y-8265000D02*
X12685000Y-8295000D01*
X12685000Y-8265000D02*
X12655000Y-8295000D01*
X12755000Y-8065000D02*
X12785000Y-8095000D01*
X12785000Y-8065000D02*
X12755000Y-8095000D01*
X12755000Y-8165000D02*
X12785000Y-8195000D01*
X12785000Y-8165000D02*
X12755000Y-8195000D01*
X12755000Y-8265000D02*
X12785000Y-8295000D01*
X12785000Y-8265000D02*
X12755000Y-8295000D01*
X12845000Y-7355000D02*
X12875000Y-7385000D01*
X12875000Y-7355000D02*
X12845000Y-7385000D01*
X12855000Y-8065000D02*
X12885000Y-8095000D01*
X12885000Y-8065000D02*
X12855000Y-8095000D01*
X12855000Y-8165000D02*
X12885000Y-8195000D01*
X12885000Y-8165000D02*
X12855000Y-8195000D01*
X12855000Y-8265000D02*
X12885000Y-8295000D01*
X12885000Y-8265000D02*
X12855000Y-8295000D01*
X12945000Y-6235000D02*
X12975000Y-6265000D01*
X12975000Y-6235000D02*
X12945000Y-6265000D01*
X12945000Y-6335000D02*
X12975000Y-6365000D01*
X12975000Y-6335000D02*
X12945000Y-6365000D01*
X12945000Y-6435000D02*
X12975000Y-6465000D01*
X12975000Y-6435000D02*
X12945000Y-6465000D01*
X12965000Y-9345000D02*
X12995000Y-9375000D01*
X12995000Y-9345000D02*
X12965000Y-9375000D01*
X13045000Y-6235000D02*
X13075000Y-6265000D01*
X13075000Y-6235000D02*
X13045000Y-6265000D01*
X13045000Y-6335000D02*
X13075000Y-6365000D01*
X13075000Y-6335000D02*
X13045000Y-6365000D01*
X13045000Y-6435000D02*
X13075000Y-6465000D01*
X13075000Y-6435000D02*
X13045000Y-6465000D01*
X13145000Y-6235000D02*
X13175000Y-6265000D01*
X13175000Y-6235000D02*
X13145000Y-6265000D01*
X13145000Y-6335000D02*
X13175000Y-6365000D01*
X13175000Y-6335000D02*
X13145000Y-6365000D01*
X13145000Y-6435000D02*
X13175000Y-6465000D01*
X13175000Y-6435000D02*
X13145000Y-6465000D01*
X13375000Y-12215000D02*
X13405000Y-12245000D01*
X13405000Y-12215000D02*
X13375000Y-12245000D01*
X13705000Y-6425000D02*
X13735000Y-6455000D01*
X13735000Y-6425000D02*
X13705000Y-6455000D01*
X14065000Y-10625000D02*
X14095000Y-10655000D01*
X14095000Y-10625000D02*
X14065000Y-10655000D01*
X14065000Y-10725000D02*
X14095000Y-10755000D01*
X14095000Y-10725000D02*
X14065000Y-10755000D01*
X14065000Y-10825000D02*
X14095000Y-10855000D01*
X14095000Y-10825000D02*
X14065000Y-10855000D01*
X14075000Y-7385000D02*
X14105000Y-7415000D01*
X14105000Y-7385000D02*
X14075000Y-7415000D01*
X14165000Y-10625000D02*
X14195000Y-10655000D01*
X14195000Y-10625000D02*
X14165000Y-10655000D01*
X14165000Y-10725000D02*
X14195000Y-10755000D01*
X14195000Y-10725000D02*
X14165000Y-10755000D01*
X14165000Y-10825000D02*
X14195000Y-10855000D01*
X14195000Y-10825000D02*
X14165000Y-10855000D01*
X14215000Y-9345000D02*
X14245000Y-9375000D01*
X14245000Y-9345000D02*
X14215000Y-9375000D01*
X14265000Y-10625000D02*
X14295000Y-10655000D01*
X14295000Y-10625000D02*
X14265000Y-10655000D01*
X14265000Y-10725000D02*
X14295000Y-10755000D01*
X14295000Y-10725000D02*
X14265000Y-10755000D01*
X14265000Y-10825000D02*
X14295000Y-10855000D01*
X14295000Y-10825000D02*
X14265000Y-10855000D01*
X14755000Y-6115000D02*
X14785000Y-6145000D01*
X14785000Y-6115000D02*
X14755000Y-6145000D01*
X15015000Y-6425000D02*
X15045000Y-6455000D01*
X15045000Y-6425000D02*
X15015000Y-6455000D01*
X15195000Y-12605000D02*
X15225000Y-12635000D01*
X15225000Y-12605000D02*
X15195000Y-12635000D01*
X15575000Y-10155000D02*
X15605000Y-10185000D01*
X15605000Y-10155000D02*
X15575000Y-10185000D01*
X15575000Y-10255000D02*
X15605000Y-10285000D01*
X15605000Y-10255000D02*
X15575000Y-10285000D01*
X15575000Y-10355000D02*
X15605000Y-10385000D01*
X15605000Y-10355000D02*
X15575000Y-10385000D01*
X15675000Y-10155000D02*
X15705000Y-10185000D01*
X15705000Y-10155000D02*
X15675000Y-10185000D01*
X15675000Y-10255000D02*
X15705000Y-10285000D01*
X15705000Y-10255000D02*
X15675000Y-10285000D01*
X15675000Y-10355000D02*
X15705000Y-10385000D01*
X15705000Y-10355000D02*
X15675000Y-10385000D01*
X15775000Y-10155000D02*
X15805000Y-10185000D01*
X15805000Y-10155000D02*
X15775000Y-10185000D01*
X15775000Y-10255000D02*
X15805000Y-10285000D01*
X15805000Y-10255000D02*
X15775000Y-10285000D01*
X15775000Y-10355000D02*
X15805000Y-10385000D01*
X15805000Y-10355000D02*
X15775000Y-10385000D01*
X16305000Y-6395000D02*
X16335000Y-6425000D01*
X16335000Y-6395000D02*
X16305000Y-6425000D01*
X16305000Y-6645000D02*
X16335000Y-6675000D01*
X16335000Y-6645000D02*
X16305000Y-6675000D01*
X16305000Y-6905000D02*
X16335000Y-6935000D01*
X16335000Y-6905000D02*
X16305000Y-6935000D01*
X16305000Y-7145000D02*
X16335000Y-7175000D01*
X16335000Y-7145000D02*
X16305000Y-7175000D01*
X16305000Y-7405000D02*
X16335000Y-7435000D01*
X16335000Y-7405000D02*
X16305000Y-7435000D01*
X16305000Y-7655000D02*
X16335000Y-7685000D01*
X16335000Y-7655000D02*
X16305000Y-7685000D01*
X16305000Y-7915000D02*
X16335000Y-7945000D01*
X16335000Y-7915000D02*
X16305000Y-7945000D01*
X16305000Y-8165000D02*
X16335000Y-8195000D01*
X16335000Y-8165000D02*
X16305000Y-8195000D01*
X16305000Y-8425000D02*
X16335000Y-8455000D01*
X16335000Y-8425000D02*
X16305000Y-8455000D01*
X16885000Y-6905000D02*
X16915000Y-6935000D01*
X16915000Y-6905000D02*
X16885000Y-6935000D01*
X16885000Y-8165000D02*
X16915000Y-8195000D01*
X16915000Y-8165000D02*
X16885000Y-8195000D01*
X6220000Y-12475000D02*
G75*
G03*
X6180000Y-12475000I-20000J0D01*
G01*
X6180000Y-12475000D02*
G75*
G03*
X6220000Y-12475000I20000J0D01*
G01*
X6220000Y-12890000D02*
G75*
G03*
X6180000Y-12890000I-20000J0D01*
G01*
X6180000Y-12890000D02*
G75*
G03*
X6220000Y-12890000I20000J0D01*
G01*
X6390000Y-11670000D02*
G75*
G03*
X6350000Y-11670000I-20000J0D01*
G01*
X6350000Y-11670000D02*
G75*
G03*
X6390000Y-11670000I20000J0D01*
G01*
X6520000Y-11540000D02*
G75*
G03*
X6480000Y-11540000I-20000J0D01*
G01*
X6480000Y-11540000D02*
G75*
G03*
X6520000Y-11540000I20000J0D01*
G01*
X6630000Y-11630000D02*
G75*
G03*
X6590000Y-11630000I-20000J0D01*
G01*
X6590000Y-11630000D02*
G75*
G03*
X6630000Y-11630000I20000J0D01*
G01*
X6630000Y-11900000D02*
G75*
G03*
X6590000Y-11900000I-20000J0D01*
G01*
X6590000Y-11900000D02*
G75*
G03*
X6630000Y-11900000I20000J0D01*
G01*
X6722500Y-11692500D02*
G75*
G03*
X6682500Y-11692500I-20000J0D01*
G01*
X6682500Y-11692500D02*
G75*
G03*
X6722500Y-11692500I20000J0D01*
G01*
X6730000Y-12000000D02*
G75*
G03*
X6690000Y-12000000I-20000J0D01*
G01*
X6690000Y-12000000D02*
G75*
G03*
X6730000Y-12000000I20000J0D01*
G01*
X9070000Y-11810000D02*
G75*
G03*
X9030000Y-11810000I-20000J0D01*
G01*
X9030000Y-11810000D02*
G75*
G03*
X9070000Y-11810000I20000J0D01*
G01*
X9070000Y-13020000D02*
G75*
G03*
X9030000Y-13020000I-20000J0D01*
G01*
X9030000Y-13020000D02*
G75*
G03*
X9070000Y-13020000I20000J0D01*
G01*
X9300000Y-11680000D02*
G75*
G03*
X9260000Y-11680000I-20000J0D01*
G01*
X9260000Y-11680000D02*
G75*
G03*
X9300000Y-11680000I20000J0D01*
G01*
X9300000Y-13117640D02*
G75*
G03*
X9260000Y-13117640I-20000J0D01*
G01*
X9260000Y-13117640D02*
G75*
G03*
X9300000Y-13117640I20000J0D01*
G01*
X9570000Y-12030000D02*
G75*
G03*
X9530000Y-12030000I-20000J0D01*
G01*
X9530000Y-12030000D02*
G75*
G03*
X9570000Y-12030000I20000J0D01*
G01*
X9700000Y-12030000D02*
G75*
G03*
X9660000Y-12030000I-20000J0D01*
G01*
X9660000Y-12030000D02*
G75*
G03*
X9700000Y-12030000I20000J0D01*
G01*
X9820000Y-12550000D02*
G75*
G03*
X9780000Y-12550000I-20000J0D01*
G01*
X9780000Y-12550000D02*
G75*
G03*
X9820000Y-12550000I20000J0D01*
G01*
X9820000Y-13250000D02*
G75*
G03*
X9780000Y-13250000I-20000J0D01*
G01*
X9780000Y-13250000D02*
G75*
G03*
X9820000Y-13250000I20000J0D01*
G01*
X10310000Y-11920000D02*
G75*
G03*
X10270000Y-11920000I-20000J0D01*
G01*
X10270000Y-11920000D02*
G75*
G03*
X10310000Y-11920000I20000J0D01*
G01*
X10310000Y-12077400D02*
G75*
G03*
X10270000Y-12077400I-20000J0D01*
G01*
X10270000Y-12077400D02*
G75*
G03*
X10310000Y-12077400I20000J0D01*
G01*
X10560000Y-13020000D02*
G75*
G03*
X10520000Y-13020000I-20000J0D01*
G01*
X10520000Y-13020000D02*
G75*
G03*
X10560000Y-13020000I20000J0D01*
G01*
X10690000Y-13020000D02*
G75*
G03*
X10650000Y-13020000I-20000J0D01*
G01*
X10650000Y-13020000D02*
G75*
G03*
X10690000Y-13020000I20000J0D01*
G01*
X10800000Y-12920000D02*
G75*
G03*
X10760000Y-12920000I-20000J0D01*
G01*
X10760000Y-12920000D02*
G75*
G03*
X10800000Y-12920000I20000J0D01*
G01*
X10810000Y-11350000D02*
G75*
G03*
X10770000Y-11350000I-20000J0D01*
G01*
X10770000Y-11350000D02*
G75*
G03*
X10810000Y-11350000I20000J0D01*
G01*
X10980000Y-11510000D02*
G75*
G03*
X10940000Y-11510000I-20000J0D01*
G01*
X10940000Y-11510000D02*
G75*
G03*
X10980000Y-11510000I20000J0D01*
G01*
X11250000Y-12920000D02*
G75*
G03*
X11210000Y-12920000I-20000J0D01*
G01*
X11210000Y-12920000D02*
G75*
G03*
X11250000Y-12920000I20000J0D01*
G01*
X11370000Y-12400000D02*
G75*
G03*
X11330000Y-12400000I-20000J0D01*
G01*
X11330000Y-12400000D02*
G75*
G03*
X11370000Y-12400000I20000J0D01*
G01*
X11450000Y-11350000D02*
G75*
G03*
X11410000Y-11350000I-20000J0D01*
G01*
X11410000Y-11350000D02*
G75*
G03*
X11450000Y-11350000I20000J0D01*
G01*
X11510000Y-12550000D02*
G75*
G03*
X11470000Y-12550000I-20000J0D01*
G01*
X11470000Y-12550000D02*
G75*
G03*
X11510000Y-12550000I20000J0D01*
G01*
X11620000Y-12400000D02*
G75*
G03*
X11580000Y-12400000I-20000J0D01*
G01*
X11580000Y-12400000D02*
G75*
G03*
X11620000Y-12400000I20000J0D01*
G01*
X11680000Y-11510000D02*
G75*
G03*
X11640000Y-11510000I-20000J0D01*
G01*
X11640000Y-11510000D02*
G75*
G03*
X11680000Y-11510000I20000J0D01*
G01*
X12060000Y-12550000D02*
G75*
G03*
X12020000Y-12550000I-20000J0D01*
G01*
X12020000Y-12550000D02*
G75*
G03*
X12060000Y-12550000I20000J0D01*
G01*
X12750000Y-8820000D02*
G75*
G03*
X12710000Y-8820000I-20000J0D01*
G01*
X12710000Y-8820000D02*
G75*
G03*
X12750000Y-8820000I20000J0D01*
G01*
X14070000Y-7660000D02*
G75*
G03*
X14030000Y-7660000I-20000J0D01*
G01*
X14030000Y-7660000D02*
G75*
G03*
X14070000Y-7660000I20000J0D01*
G01*
X14280000Y-7450000D02*
G75*
G03*
X14240000Y-7450000I-20000J0D01*
G01*
X14240000Y-7450000D02*
G75*
G03*
X14280000Y-7450000I20000J0D01*
G01*
X14410000Y-8560000D02*
G75*
G03*
X14370000Y-8560000I-20000J0D01*
G01*
X14370000Y-8560000D02*
G75*
G03*
X14410000Y-8560000I20000J0D01*
G01*
X14470000Y-7660000D02*
G75*
G03*
X14430000Y-7660000I-20000J0D01*
G01*
X14430000Y-7660000D02*
G75*
G03*
X14470000Y-7660000I20000J0D01*
G01*
X14680000Y-7450000D02*
G75*
G03*
X14640000Y-7450000I-20000J0D01*
G01*
X14640000Y-7450000D02*
G75*
G03*
X14680000Y-7450000I20000J0D01*
G01*
X14910000Y-7660000D02*
G75*
G03*
X14870000Y-7660000I-20000J0D01*
G01*
X14870000Y-7660000D02*
G75*
G03*
X14910000Y-7660000I20000J0D01*
G01*
X15120000Y-7450000D02*
G75*
G03*
X15080000Y-7450000I-20000J0D01*
G01*
X15080000Y-7450000D02*
G75*
G03*
X15120000Y-7450000I20000J0D01*
G01*
X15140000Y-7660000D02*
G75*
G03*
X15100000Y-7660000I-20000J0D01*
G01*
X15100000Y-7660000D02*
G75*
G03*
X15140000Y-7660000I20000J0D01*
G01*
X15240000Y-8820000D02*
G75*
G03*
X15200000Y-8820000I-20000J0D01*
G01*
X15200000Y-8820000D02*
G75*
G03*
X15240000Y-8820000I20000J0D01*
G01*
X15350000Y-7450000D02*
G75*
G03*
X15310000Y-7450000I-20000J0D01*
G01*
X15310000Y-7450000D02*
G75*
G03*
X15350000Y-7450000I20000J0D01*
G01*
X15464750Y-8564750D02*
G75*
G03*
X15424750Y-8564750I-20000J0D01*
G01*
X15424750Y-8564750D02*
G75*
G03*
X15464750Y-8564750I20000J0D01*
G01*
X6240000Y-8775000D02*
X6240000Y-8865000D01*
X6195000Y-8820000D02*
X6285000Y-8820000D01*
X6195000Y-8720000D02*
X6195000Y-8920000D01*
X6195000Y-8920000D02*
G75*
G03*
X6285000Y-8920000I45000J0D01*
G01*
X6285000Y-8920000D02*
X6285000Y-8720000D01*
X6285000Y-8720000D02*
G75*
G03*
X6195000Y-8720000I-45000J0D01*
G01*
X6710000Y-8775000D02*
X6710000Y-8865000D01*
X6665000Y-8820000D02*
X6755000Y-8820000D01*
X6665000Y-8720000D02*
X6665000Y-8920000D01*
X6665000Y-8920000D02*
G75*
G03*
X6755000Y-8920000I45000J0D01*
G01*
X6755000Y-8920000D02*
X6755000Y-8720000D01*
X6755000Y-8720000D02*
G75*
G03*
X6665000Y-8720000I-45000J0D01*
G01*
X7523356Y-10904016D02*
X7523356Y-10833304D01*
X7452644Y-10833304D01*
X7452644Y-10904016D01*
X7523356Y-10904016D01*
X7530896Y-6601256D02*
X7530896Y-6530544D01*
X7460184Y-6530544D01*
X7460184Y-6601256D01*
X7530896Y-6601256D01*
X7777356Y-10904016D02*
X7777356Y-10833304D01*
X7706644Y-10833304D01*
X7706644Y-10904016D01*
X7777356Y-10904016D01*
X7784896Y-6601256D02*
X7784896Y-6530544D01*
X7714184Y-6530544D01*
X7714184Y-6601256D01*
X7784896Y-6601256D01*
X8031356Y-10904016D02*
X8031356Y-10833304D01*
X7960644Y-10833304D01*
X7960644Y-10904016D01*
X8031356Y-10904016D01*
X8038896Y-6601256D02*
X8038896Y-6530544D01*
X7968184Y-6530544D01*
X7968184Y-6601256D01*
X8038896Y-6601256D01*
X8285356Y-10904016D02*
X8285356Y-10833304D01*
X8214644Y-10833304D01*
X8214644Y-10904016D01*
X8285356Y-10904016D01*
X8292896Y-6601256D02*
X8292896Y-6530544D01*
X8222184Y-6530544D01*
X8222184Y-6601256D01*
X8292896Y-6601256D01*
X8539356Y-10904016D02*
X8539356Y-10833304D01*
X8468644Y-10833304D01*
X8468644Y-10904016D01*
X8539356Y-10904016D01*
X8546896Y-6601256D02*
X8546896Y-6530544D01*
X8476184Y-6530544D01*
X8476184Y-6601256D01*
X8546896Y-6601256D01*
X8793356Y-10904016D02*
X8793356Y-10833304D01*
X8722644Y-10833304D01*
X8722644Y-10904016D01*
X8793356Y-10904016D01*
X8800896Y-6601256D02*
X8800896Y-6530544D01*
X8730184Y-6530544D01*
X8730184Y-6601256D01*
X8800896Y-6601256D01*
D12*
X5800000Y-10858750D02*
X5850800Y-10807950D01*
X5800000Y-10757150D01*
X5749200Y-10807950D01*
X5800000Y-10858750D01*
X5800000Y-11112750D02*
X5850800Y-11061950D01*
X5800000Y-11011150D01*
X5749200Y-11061950D01*
X5800000Y-11112750D01*
X5800000Y-11366750D02*
X5850800Y-11315950D01*
X5800000Y-11265150D01*
X5749200Y-11315950D01*
X5800000Y-11366750D01*
X5800000Y-11620750D02*
X5850800Y-11569950D01*
X5800000Y-11519150D01*
X5749200Y-11569950D01*
X5800000Y-11620750D01*
X5800000Y-12353200D02*
X5850800Y-12302400D01*
X5800000Y-12251600D01*
X5749200Y-12302400D01*
X5800000Y-12353200D01*
X5800000Y-12607200D02*
X5850800Y-12556400D01*
X5800000Y-12505600D01*
X5749200Y-12556400D01*
X5800000Y-12607200D01*
X5800000Y-12861200D02*
X5850800Y-12810400D01*
X5800000Y-12759600D01*
X5749200Y-12810400D01*
X5800000Y-12861200D01*
X5800000Y-13115200D02*
X5850800Y-13064400D01*
X5800000Y-13013600D01*
X5749200Y-13064400D01*
X5800000Y-13115200D01*
X7660000Y-12203200D02*
X7710800Y-12152400D01*
X7660000Y-12101600D01*
X7609200Y-12152400D01*
X7660000Y-12203200D01*
X7660000Y-12457200D02*
X7710800Y-12406400D01*
X7660000Y-12355600D01*
X7609200Y-12406400D01*
X7660000Y-12457200D01*
X7660000Y-12711200D02*
X7710800Y-12660400D01*
X7660000Y-12609600D01*
X7609200Y-12660400D01*
X7660000Y-12711200D01*
X7660000Y-12965200D02*
X7710800Y-12914400D01*
X7660000Y-12863600D01*
X7609200Y-12914400D01*
X7660000Y-12965200D01*
X7660000Y-13219200D02*
X7710800Y-13168400D01*
X7660000Y-13117600D01*
X7609200Y-13168400D01*
X7660000Y-13219200D01*
X8463280Y-11524410D02*
X8514080Y-11473610D01*
X8463280Y-11422810D01*
X8412480Y-11473610D01*
X8463280Y-11524410D01*
X8463280Y-11949410D02*
X8514080Y-11898610D01*
X8463280Y-11847810D01*
X8412480Y-11898610D01*
X8463280Y-11949410D01*
X8717280Y-11524410D02*
X8768080Y-11473610D01*
X8717280Y-11422810D01*
X8666480Y-11473610D01*
X8717280Y-11524410D01*
X8717280Y-11949410D02*
X8768080Y-11898610D01*
X8717280Y-11847810D01*
X8666480Y-11898610D01*
X8717280Y-11949410D01*
X9768650Y-6329550D02*
X9819450Y-6278750D01*
X9768650Y-6227950D01*
X9717850Y-6278750D01*
X9768650Y-6329550D01*
X9768650Y-11155550D02*
X9819450Y-11104750D01*
X9768650Y-11053950D01*
X9717850Y-11104750D01*
X9768650Y-11155550D01*
X10022650Y-6329550D02*
X10073450Y-6278750D01*
X10022650Y-6227950D01*
X9971850Y-6278750D01*
X10022650Y-6329550D01*
X10022650Y-11155550D02*
X10073450Y-11104750D01*
X10022650Y-11053950D01*
X9971850Y-11104750D01*
X10022650Y-11155550D01*
X10034000Y-11775800D02*
X10084800Y-11725000D01*
X10034000Y-11674200D01*
X9983200Y-11725000D01*
X10034000Y-11775800D01*
X10034000Y-13299800D02*
X10084800Y-13249000D01*
X10034000Y-13198200D01*
X9983200Y-13249000D01*
X10034000Y-13299800D01*
X10276650Y-6329550D02*
X10327450Y-6278750D01*
X10276650Y-6227950D01*
X10225850Y-6278750D01*
X10276650Y-6329550D01*
X10276650Y-11155550D02*
X10327450Y-11104750D01*
X10276650Y-11053950D01*
X10225850Y-11104750D01*
X10276650Y-11155550D01*
X10288000Y-11775800D02*
X10338800Y-11725000D01*
X10288000Y-11674200D01*
X10237200Y-11725000D01*
X10288000Y-11775800D01*
X10288000Y-13299800D02*
X10338800Y-13249000D01*
X10288000Y-13198200D01*
X10237200Y-13249000D01*
X10288000Y-13299800D01*
X10530650Y-6329550D02*
X10581450Y-6278750D01*
X10530650Y-6227950D01*
X10479850Y-6278750D01*
X10530650Y-6329550D01*
X10530650Y-11155550D02*
X10581450Y-11104750D01*
X10530650Y-11053950D01*
X10479850Y-11104750D01*
X10530650Y-11155550D01*
X10542000Y-11775800D02*
X10592800Y-11725000D01*
X10542000Y-11674200D01*
X10491200Y-11725000D01*
X10542000Y-11775800D01*
X10542000Y-13299800D02*
X10592800Y-13249000D01*
X10542000Y-13198200D01*
X10491200Y-13249000D01*
X10542000Y-13299800D01*
X10784650Y-6329550D02*
X10835450Y-6278750D01*
X10784650Y-6227950D01*
X10733850Y-6278750D01*
X10784650Y-6329550D01*
X10784650Y-11155550D02*
X10835450Y-11104750D01*
X10784650Y-11053950D01*
X10733850Y-11104750D01*
X10784650Y-11155550D01*
X10796000Y-11775800D02*
X10846800Y-11725000D01*
X10796000Y-11674200D01*
X10745200Y-11725000D01*
X10796000Y-11775800D01*
X10796000Y-13299800D02*
X10846800Y-13249000D01*
X10796000Y-13198200D01*
X10745200Y-13249000D01*
X10796000Y-13299800D01*
X11050000Y-11775800D02*
X11100800Y-11725000D01*
X11050000Y-11674200D01*
X10999200Y-11725000D01*
X11050000Y-11775800D01*
X11050000Y-13299800D02*
X11100800Y-13249000D01*
X11050000Y-13198200D01*
X10999200Y-13249000D01*
X11050000Y-13299800D01*
X11304000Y-11775800D02*
X11354800Y-11725000D01*
X11304000Y-11674200D01*
X11253200Y-11725000D01*
X11304000Y-11775800D01*
X11304000Y-13299800D02*
X11354800Y-13249000D01*
X11304000Y-13198200D01*
X11253200Y-13249000D01*
X11304000Y-13299800D01*
X11558000Y-11775800D02*
X11608800Y-11725000D01*
X11558000Y-11674200D01*
X11507200Y-11725000D01*
X11558000Y-11775800D01*
X11558000Y-13299800D02*
X11608800Y-13249000D01*
X11558000Y-13198200D01*
X11507200Y-13249000D01*
X11558000Y-13299800D01*
X11812000Y-11775800D02*
X11862800Y-11725000D01*
X11812000Y-11674200D01*
X11761200Y-11725000D01*
X11812000Y-11775800D01*
X11812000Y-13299800D02*
X11862800Y-13249000D01*
X11812000Y-13198200D01*
X11761200Y-13249000D01*
X11812000Y-13299800D01*
X12066000Y-11775800D02*
X12116800Y-11725000D01*
X12066000Y-11674200D01*
X12015200Y-11725000D01*
X12066000Y-11775800D01*
X12066000Y-13299800D02*
X12116800Y-13249000D01*
X12066000Y-13198200D01*
X12015200Y-13249000D01*
X12066000Y-13299800D01*
X12320000Y-11775800D02*
X12370800Y-11725000D01*
X12320000Y-11674200D01*
X12269200Y-11725000D01*
X12320000Y-11775800D01*
X12320000Y-13299800D02*
X12370800Y-13249000D01*
X12320000Y-13198200D01*
X12269200Y-13249000D01*
X12320000Y-13299800D01*
X12574000Y-11775800D02*
X12624800Y-11725000D01*
X12574000Y-11674200D01*
X12523200Y-11725000D01*
X12574000Y-11775800D01*
X12574000Y-13299800D02*
X12624800Y-13249000D01*
X12574000Y-13198200D01*
X12523200Y-13249000D01*
X12574000Y-13299800D01*
X12828000Y-11775800D02*
X12878800Y-11725000D01*
X12828000Y-11674200D01*
X12777200Y-11725000D01*
X12828000Y-11775800D01*
X12828000Y-13299800D02*
X12878800Y-13249000D01*
X12828000Y-13198200D01*
X12777200Y-13249000D01*
X12828000Y-13299800D01*
X13082000Y-11775800D02*
X13132800Y-11725000D01*
X13082000Y-11674200D01*
X13031200Y-11725000D01*
X13082000Y-11775800D01*
X13082000Y-13299800D02*
X13132800Y-13249000D01*
X13082000Y-13198200D01*
X13031200Y-13249000D01*
X13082000Y-13299800D01*
X13336000Y-11775800D02*
X13386800Y-11725000D01*
X13336000Y-11674200D01*
X13285200Y-11725000D01*
X13336000Y-11775800D01*
X13336000Y-13299800D02*
X13386800Y-13249000D01*
X13336000Y-13198200D01*
X13285200Y-13249000D01*
X13336000Y-13299800D01*
X13590000Y-11775800D02*
X13640800Y-11725000D01*
X13590000Y-11674200D01*
X13539200Y-11725000D01*
X13590000Y-11775800D01*
X13590000Y-13299800D02*
X13640800Y-13249000D01*
X13590000Y-13198200D01*
X13539200Y-13249000D01*
X13590000Y-13299800D01*
X14348460Y-12156440D02*
X14399260Y-12105640D01*
X14348460Y-12054840D01*
X14297660Y-12105640D01*
X14348460Y-12156440D01*
X14348460Y-12410440D02*
X14399260Y-12359640D01*
X14348460Y-12308840D01*
X14297660Y-12359640D01*
X14348460Y-12410440D01*
X14348460Y-12664440D02*
X14399260Y-12613640D01*
X14348460Y-12562840D01*
X14297660Y-12613640D01*
X14348460Y-12664440D01*
X14348460Y-12918440D02*
X14399260Y-12867640D01*
X14348460Y-12816840D01*
X14297660Y-12867640D01*
X14348460Y-12918440D01*
X14899640Y-11719560D02*
X14950440Y-11668760D01*
X14899640Y-11617960D01*
X14848840Y-11668760D01*
X14899640Y-11719560D01*
X15153640Y-11719560D02*
X15204440Y-11668760D01*
X15153640Y-11617960D01*
X15102840Y-11668760D01*
X15153640Y-11719560D01*
X15407640Y-11719560D02*
X15458440Y-11668760D01*
X15407640Y-11617960D01*
X15356840Y-11668760D01*
X15407640Y-11719560D01*
X15661640Y-11719560D02*
X15712440Y-11668760D01*
X15661640Y-11617960D01*
X15610840Y-11668760D01*
X15661640Y-11719560D01*
X15915640Y-11719560D02*
X15966440Y-11668760D01*
X15915640Y-11617960D01*
X15864840Y-11668760D01*
X15915640Y-11719560D01*
X15966250Y-6329550D02*
X16017050Y-6278750D01*
X15966250Y-6227950D01*
X15915450Y-6278750D01*
X15966250Y-6329550D01*
X15966250Y-6583550D02*
X16017050Y-6532750D01*
X15966250Y-6481950D01*
X15915450Y-6532750D01*
X15966250Y-6583550D01*
X15966250Y-6837550D02*
X16017050Y-6786750D01*
X15966250Y-6735950D01*
X15915450Y-6786750D01*
X15966250Y-6837550D01*
X15966250Y-7091550D02*
X16017050Y-7040750D01*
X15966250Y-6989950D01*
X15915450Y-7040750D01*
X15966250Y-7091550D01*
X15966250Y-7345550D02*
X16017050Y-7294750D01*
X15966250Y-7243950D01*
X15915450Y-7294750D01*
X15966250Y-7345550D01*
X15966250Y-7599550D02*
X16017050Y-7548750D01*
X15966250Y-7497950D01*
X15915450Y-7548750D01*
X15966250Y-7599550D01*
X15966250Y-7853550D02*
X16017050Y-7802750D01*
X15966250Y-7751950D01*
X15915450Y-7802750D01*
X15966250Y-7853550D01*
X15966250Y-8107550D02*
X16017050Y-8056750D01*
X15966250Y-8005950D01*
X15915450Y-8056750D01*
X15966250Y-8107550D01*
X15966250Y-8361550D02*
X16017050Y-8310750D01*
X15966250Y-8259950D01*
X15915450Y-8310750D01*
X15966250Y-8361550D01*
X15966250Y-8615550D02*
X16017050Y-8564750D01*
X15966250Y-8513950D01*
X15915450Y-8564750D01*
X15966250Y-8615550D01*
X15966250Y-8869550D02*
X16017050Y-8818750D01*
X15966250Y-8767950D01*
X15915450Y-8818750D01*
X15966250Y-8869550D01*
X15966250Y-9123550D02*
X16017050Y-9072750D01*
X15966250Y-9021950D01*
X15915450Y-9072750D01*
X15966250Y-9123550D01*
X15966250Y-9377550D02*
X16017050Y-9326750D01*
X15966250Y-9275950D01*
X15915450Y-9326750D01*
X15966250Y-9377550D01*
X16686050Y-6328850D02*
X16736850Y-6278050D01*
X16686050Y-6227250D01*
X16635250Y-6278050D01*
X16686050Y-6328850D01*
X16686050Y-6582850D02*
X16736850Y-6532050D01*
X16686050Y-6481250D01*
X16635250Y-6532050D01*
X16686050Y-6582850D01*
X16686050Y-6836850D02*
X16736850Y-6786050D01*
X16686050Y-6735250D01*
X16635250Y-6786050D01*
X16686050Y-6836850D01*
X16686050Y-7090850D02*
X16736850Y-7040050D01*
X16686050Y-6989250D01*
X16635250Y-7040050D01*
X16686050Y-7090850D01*
X16686050Y-7344850D02*
X16736850Y-7294050D01*
X16686050Y-7243250D01*
X16635250Y-7294050D01*
X16686050Y-7344850D01*
X16686050Y-7775800D02*
X16736850Y-7725000D01*
X16686050Y-7674200D01*
X16635250Y-7725000D01*
X16686050Y-7775800D01*
X16686050Y-8029800D02*
X16736850Y-7979000D01*
X16686050Y-7928200D01*
X16635250Y-7979000D01*
X16686050Y-8029800D01*
X16686050Y-8283800D02*
X16736850Y-8233000D01*
X16686050Y-8182200D01*
X16635250Y-8233000D01*
X16686050Y-8283800D01*
X16686050Y-8537800D02*
X16736850Y-8487000D01*
X16686050Y-8436200D01*
X16635250Y-8487000D01*
X16686050Y-8537800D01*
X16686050Y-8791800D02*
X16736850Y-8741000D01*
X16686050Y-8690200D01*
X16635250Y-8741000D01*
X16686050Y-8791800D01*
D13*
X5895000Y-9510000D02*
X6025000Y-9640000D01*
X6025000Y-9510000D02*
X5895000Y-9640000D01*
X6025000Y-9575000D02*
G75*
G03*
X5895000Y-9575000I-65000J0D01*
G01*
X5895000Y-9575000D02*
G75*
G03*
X6025000Y-9575000I65000J0D01*
G01*
X5895000Y-10010000D02*
X6025000Y-10140000D01*
X6025000Y-10010000D02*
X5895000Y-10140000D01*
X6025000Y-10075000D02*
G75*
G03*
X5895000Y-10075000I-65000J0D01*
G01*
X5895000Y-10075000D02*
G75*
G03*
X6025000Y-10075000I65000J0D01*
G01*
X7545000Y-7510000D02*
X7675000Y-7640000D01*
X7675000Y-7510000D02*
X7545000Y-7640000D01*
X7675000Y-7575000D02*
G75*
G03*
X7545000Y-7575000I-65000J0D01*
G01*
X7545000Y-7575000D02*
G75*
G03*
X7675000Y-7575000I65000J0D01*
G01*
X7545000Y-8010000D02*
X7675000Y-8140000D01*
X7675000Y-8010000D02*
X7545000Y-8140000D01*
X7675000Y-8075000D02*
G75*
G03*
X7545000Y-8075000I-65000J0D01*
G01*
X7545000Y-8075000D02*
G75*
G03*
X7675000Y-8075000I65000J0D01*
G01*
X7545000Y-8510000D02*
X7675000Y-8640000D01*
X7675000Y-8510000D02*
X7545000Y-8640000D01*
X7675000Y-8575000D02*
G75*
G03*
X7545000Y-8575000I-65000J0D01*
G01*
X7545000Y-8575000D02*
G75*
G03*
X7675000Y-8575000I65000J0D01*
G01*
X7545000Y-9010000D02*
X7675000Y-9140000D01*
X7675000Y-9010000D02*
X7545000Y-9140000D01*
X7675000Y-9075000D02*
G75*
G03*
X7545000Y-9075000I-65000J0D01*
G01*
X7545000Y-9075000D02*
G75*
G03*
X7675000Y-9075000I65000J0D01*
G01*
X7545000Y-9510000D02*
X7675000Y-9640000D01*
X7675000Y-9510000D02*
X7545000Y-9640000D01*
X7675000Y-9575000D02*
G75*
G03*
X7545000Y-9575000I-65000J0D01*
G01*
X7545000Y-9575000D02*
G75*
G03*
X7675000Y-9575000I65000J0D01*
G01*
X7545000Y-10010000D02*
X7675000Y-10140000D01*
X7675000Y-10010000D02*
X7545000Y-10140000D01*
X7675000Y-10075000D02*
G75*
G03*
X7545000Y-10075000I-65000J0D01*
G01*
X7545000Y-10075000D02*
G75*
G03*
X7675000Y-10075000I65000J0D01*
G01*
D11*
X5457198Y-13875062D02*
X5457198Y-13675062D01*
X5457198Y-13675062D02*
X5504817Y-13675062D01*
X5504817Y-13675062D02*
X5533389Y-13684586D01*
X5533389Y-13684586D02*
X5552436Y-13703634D01*
X5552436Y-13703634D02*
X5561960Y-13722681D01*
X5561960Y-13722681D02*
X5571484Y-13760777D01*
X5571484Y-13760777D02*
X5571484Y-13789348D01*
X5571484Y-13789348D02*
X5561960Y-13827443D01*
X5561960Y-13827443D02*
X5552436Y-13846491D01*
X5552436Y-13846491D02*
X5533389Y-13865539D01*
X5533389Y-13865539D02*
X5504817Y-13875062D01*
X5504817Y-13875062D02*
X5457198Y-13875062D01*
X5657198Y-13875062D02*
X5657198Y-13741729D01*
X5657198Y-13779824D02*
X5666722Y-13760777D01*
X5666722Y-13760777D02*
X5676246Y-13751253D01*
X5676246Y-13751253D02*
X5695293Y-13741729D01*
X5695293Y-13741729D02*
X5714341Y-13741729D01*
X5781008Y-13875062D02*
X5781008Y-13741729D01*
X5781008Y-13675062D02*
X5771484Y-13684586D01*
X5771484Y-13684586D02*
X5781008Y-13694110D01*
X5781008Y-13694110D02*
X5790531Y-13684586D01*
X5790531Y-13684586D02*
X5781008Y-13675062D01*
X5781008Y-13675062D02*
X5781008Y-13694110D01*
X5904817Y-13875062D02*
X5885770Y-13865539D01*
X5885770Y-13865539D02*
X5876246Y-13846491D01*
X5876246Y-13846491D02*
X5876246Y-13675062D01*
X6009579Y-13875062D02*
X5990531Y-13865539D01*
X5990531Y-13865539D02*
X5981008Y-13846491D01*
X5981008Y-13846491D02*
X5981008Y-13675062D01*
X6238151Y-13875062D02*
X6238151Y-13675062D01*
X6238151Y-13675062D02*
X6304817Y-13817919D01*
X6304817Y-13817919D02*
X6371484Y-13675062D01*
X6371484Y-13675062D02*
X6371484Y-13875062D01*
X6552436Y-13875062D02*
X6552436Y-13770300D01*
X6552436Y-13770300D02*
X6542912Y-13751253D01*
X6542912Y-13751253D02*
X6523865Y-13741729D01*
X6523865Y-13741729D02*
X6485770Y-13741729D01*
X6485770Y-13741729D02*
X6466722Y-13751253D01*
X6552436Y-13865539D02*
X6533389Y-13875062D01*
X6533389Y-13875062D02*
X6485770Y-13875062D01*
X6485770Y-13875062D02*
X6466722Y-13865539D01*
X6466722Y-13865539D02*
X6457198Y-13846491D01*
X6457198Y-13846491D02*
X6457198Y-13827443D01*
X6457198Y-13827443D02*
X6466722Y-13808396D01*
X6466722Y-13808396D02*
X6485770Y-13798872D01*
X6485770Y-13798872D02*
X6533389Y-13798872D01*
X6533389Y-13798872D02*
X6552436Y-13789348D01*
X6647674Y-13741729D02*
X6647674Y-13941729D01*
X6647674Y-13751253D02*
X6666722Y-13741729D01*
X6666722Y-13741729D02*
X6704817Y-13741729D01*
X6704817Y-13741729D02*
X6723865Y-13751253D01*
X6723865Y-13751253D02*
X6733389Y-13760777D01*
X6733389Y-13760777D02*
X6742912Y-13779824D01*
X6742912Y-13779824D02*
X6742912Y-13836967D01*
X6742912Y-13836967D02*
X6733389Y-13856015D01*
X6733389Y-13856015D02*
X6723865Y-13865539D01*
X6723865Y-13865539D02*
X6704817Y-13875062D01*
X6704817Y-13875062D02*
X6666722Y-13875062D01*
X6666722Y-13875062D02*
X6647674Y-13865539D01*
X6828627Y-13856015D02*
X6838151Y-13865539D01*
X6838151Y-13865539D02*
X6828627Y-13875062D01*
X6828627Y-13875062D02*
X6819103Y-13865539D01*
X6819103Y-13865539D02*
X6828627Y-13856015D01*
X6828627Y-13856015D02*
X6828627Y-13875062D01*
X6828627Y-13751253D02*
X6838151Y-13760777D01*
X6838151Y-13760777D02*
X6828627Y-13770300D01*
X6828627Y-13770300D02*
X6819103Y-13760777D01*
X6819103Y-13760777D02*
X6828627Y-13751253D01*
X6828627Y-13751253D02*
X6828627Y-13770300D01*
D10*
X5166421Y-14188579D02*
X5196421Y-14218579D01*
X5196421Y-14188579D02*
X5166421Y-14218579D01*
D11*
X5495293Y-14095062D02*
X5514341Y-14095062D01*
X5514341Y-14095062D02*
X5533389Y-14104586D01*
X5533389Y-14104586D02*
X5542913Y-14114110D01*
X5542913Y-14114110D02*
X5552436Y-14133158D01*
X5552436Y-14133158D02*
X5561960Y-14171253D01*
X5561960Y-14171253D02*
X5561960Y-14218872D01*
X5561960Y-14218872D02*
X5552436Y-14256967D01*
X5552436Y-14256967D02*
X5542913Y-14276015D01*
X5542913Y-14276015D02*
X5533389Y-14285539D01*
X5533389Y-14285539D02*
X5514341Y-14295062D01*
X5514341Y-14295062D02*
X5495293Y-14295062D01*
X5495293Y-14295062D02*
X5476246Y-14285539D01*
X5476246Y-14285539D02*
X5466722Y-14276015D01*
X5466722Y-14276015D02*
X5457198Y-14256967D01*
X5457198Y-14256967D02*
X5447674Y-14218872D01*
X5447674Y-14218872D02*
X5447674Y-14171253D01*
X5447674Y-14171253D02*
X5457198Y-14133158D01*
X5457198Y-14133158D02*
X5466722Y-14114110D01*
X5466722Y-14114110D02*
X5476246Y-14104586D01*
X5476246Y-14104586D02*
X5495293Y-14095062D01*
X5647674Y-14276015D02*
X5657198Y-14285539D01*
X5657198Y-14285539D02*
X5647674Y-14295062D01*
X5647674Y-14295062D02*
X5638151Y-14285539D01*
X5638151Y-14285539D02*
X5647674Y-14276015D01*
X5647674Y-14276015D02*
X5647674Y-14295062D01*
X5723865Y-14095062D02*
X5847674Y-14095062D01*
X5847674Y-14095062D02*
X5781008Y-14171253D01*
X5781008Y-14171253D02*
X5809579Y-14171253D01*
X5809579Y-14171253D02*
X5828627Y-14180777D01*
X5828627Y-14180777D02*
X5838151Y-14190300D01*
X5838151Y-14190300D02*
X5847674Y-14209348D01*
X5847674Y-14209348D02*
X5847674Y-14256967D01*
X5847674Y-14256967D02*
X5838151Y-14276015D01*
X5838151Y-14276015D02*
X5828627Y-14285539D01*
X5828627Y-14285539D02*
X5809579Y-14295062D01*
X5809579Y-14295062D02*
X5752436Y-14295062D01*
X5752436Y-14295062D02*
X5733389Y-14285539D01*
X5733389Y-14285539D02*
X5723865Y-14276015D01*
X5971484Y-14095062D02*
X5990532Y-14095062D01*
X5990532Y-14095062D02*
X6009579Y-14104586D01*
X6009579Y-14104586D02*
X6019103Y-14114110D01*
X6019103Y-14114110D02*
X6028627Y-14133158D01*
X6028627Y-14133158D02*
X6038151Y-14171253D01*
X6038151Y-14171253D02*
X6038151Y-14218872D01*
X6038151Y-14218872D02*
X6028627Y-14256967D01*
X6028627Y-14256967D02*
X6019103Y-14276015D01*
X6019103Y-14276015D02*
X6009579Y-14285539D01*
X6009579Y-14285539D02*
X5990532Y-14295062D01*
X5990532Y-14295062D02*
X5971484Y-14295062D01*
X5971484Y-14295062D02*
X5952436Y-14285539D01*
X5952436Y-14285539D02*
X5942912Y-14276015D01*
X5942912Y-14276015D02*
X5933389Y-14256967D01*
X5933389Y-14256967D02*
X5923865Y-14218872D01*
X5923865Y-14218872D02*
X5923865Y-14171253D01*
X5923865Y-14171253D02*
X5933389Y-14133158D01*
X5933389Y-14133158D02*
X5942912Y-14114110D01*
X5942912Y-14114110D02*
X5952436Y-14104586D01*
X5952436Y-14104586D02*
X5971484Y-14095062D01*
X6161960Y-14095062D02*
X6181008Y-14095062D01*
X6181008Y-14095062D02*
X6200055Y-14104586D01*
X6200055Y-14104586D02*
X6209579Y-14114110D01*
X6209579Y-14114110D02*
X6219103Y-14133158D01*
X6219103Y-14133158D02*
X6228627Y-14171253D01*
X6228627Y-14171253D02*
X6228627Y-14218872D01*
X6228627Y-14218872D02*
X6219103Y-14256967D01*
X6219103Y-14256967D02*
X6209579Y-14276015D01*
X6209579Y-14276015D02*
X6200055Y-14285539D01*
X6200055Y-14285539D02*
X6181008Y-14295062D01*
X6181008Y-14295062D02*
X6161960Y-14295062D01*
X6161960Y-14295062D02*
X6142912Y-14285539D01*
X6142912Y-14285539D02*
X6133389Y-14276015D01*
X6133389Y-14276015D02*
X6123865Y-14256967D01*
X6123865Y-14256967D02*
X6114341Y-14218872D01*
X6114341Y-14218872D02*
X6114341Y-14171253D01*
X6114341Y-14171253D02*
X6123865Y-14133158D01*
X6123865Y-14133158D02*
X6133389Y-14114110D01*
X6133389Y-14114110D02*
X6142912Y-14104586D01*
X6142912Y-14104586D02*
X6161960Y-14095062D01*
X6314341Y-14295062D02*
X6314341Y-14161729D01*
X6314341Y-14180777D02*
X6323865Y-14171253D01*
X6323865Y-14171253D02*
X6342912Y-14161729D01*
X6342912Y-14161729D02*
X6371484Y-14161729D01*
X6371484Y-14161729D02*
X6390532Y-14171253D01*
X6390532Y-14171253D02*
X6400055Y-14190300D01*
X6400055Y-14190300D02*
X6400055Y-14295062D01*
X6400055Y-14190300D02*
X6409579Y-14171253D01*
X6409579Y-14171253D02*
X6428627Y-14161729D01*
X6428627Y-14161729D02*
X6457198Y-14161729D01*
X6457198Y-14161729D02*
X6476246Y-14171253D01*
X6476246Y-14171253D02*
X6485770Y-14190300D01*
X6485770Y-14190300D02*
X6485770Y-14295062D01*
X6581008Y-14295062D02*
X6581008Y-14161729D01*
X6581008Y-14180777D02*
X6590532Y-14171253D01*
X6590532Y-14171253D02*
X6609579Y-14161729D01*
X6609579Y-14161729D02*
X6638151Y-14161729D01*
X6638151Y-14161729D02*
X6657198Y-14171253D01*
X6657198Y-14171253D02*
X6666722Y-14190300D01*
X6666722Y-14190300D02*
X6666722Y-14295062D01*
X6666722Y-14190300D02*
X6676246Y-14171253D01*
X6676246Y-14171253D02*
X6695293Y-14161729D01*
X6695293Y-14161729D02*
X6723865Y-14161729D01*
X6723865Y-14161729D02*
X6742913Y-14171253D01*
X6742913Y-14171253D02*
X6752436Y-14190300D01*
X6752436Y-14190300D02*
X6752436Y-14295062D01*
X7142913Y-14085539D02*
X6971484Y-14342681D01*
X7400055Y-14095062D02*
X7419103Y-14095062D01*
X7419103Y-14095062D02*
X7438151Y-14104586D01*
X7438151Y-14104586D02*
X7447675Y-14114110D01*
X7447675Y-14114110D02*
X7457198Y-14133158D01*
X7457198Y-14133158D02*
X7466722Y-14171253D01*
X7466722Y-14171253D02*
X7466722Y-14218872D01*
X7466722Y-14218872D02*
X7457198Y-14256967D01*
X7457198Y-14256967D02*
X7447675Y-14276015D01*
X7447675Y-14276015D02*
X7438151Y-14285539D01*
X7438151Y-14285539D02*
X7419103Y-14295062D01*
X7419103Y-14295062D02*
X7400055Y-14295062D01*
X7400055Y-14295062D02*
X7381008Y-14285539D01*
X7381008Y-14285539D02*
X7371484Y-14276015D01*
X7371484Y-14276015D02*
X7361960Y-14256967D01*
X7361960Y-14256967D02*
X7352436Y-14218872D01*
X7352436Y-14218872D02*
X7352436Y-14171253D01*
X7352436Y-14171253D02*
X7361960Y-14133158D01*
X7361960Y-14133158D02*
X7371484Y-14114110D01*
X7371484Y-14114110D02*
X7381008Y-14104586D01*
X7381008Y-14104586D02*
X7400055Y-14095062D01*
X7552436Y-14276015D02*
X7561960Y-14285539D01*
X7561960Y-14285539D02*
X7552436Y-14295062D01*
X7552436Y-14295062D02*
X7542913Y-14285539D01*
X7542913Y-14285539D02*
X7552436Y-14276015D01*
X7552436Y-14276015D02*
X7552436Y-14295062D01*
X7685770Y-14095062D02*
X7704817Y-14095062D01*
X7704817Y-14095062D02*
X7723865Y-14104586D01*
X7723865Y-14104586D02*
X7733389Y-14114110D01*
X7733389Y-14114110D02*
X7742913Y-14133158D01*
X7742913Y-14133158D02*
X7752436Y-14171253D01*
X7752436Y-14171253D02*
X7752436Y-14218872D01*
X7752436Y-14218872D02*
X7742913Y-14256967D01*
X7742913Y-14256967D02*
X7733389Y-14276015D01*
X7733389Y-14276015D02*
X7723865Y-14285539D01*
X7723865Y-14285539D02*
X7704817Y-14295062D01*
X7704817Y-14295062D02*
X7685770Y-14295062D01*
X7685770Y-14295062D02*
X7666722Y-14285539D01*
X7666722Y-14285539D02*
X7657198Y-14276015D01*
X7657198Y-14276015D02*
X7647675Y-14256967D01*
X7647675Y-14256967D02*
X7638151Y-14218872D01*
X7638151Y-14218872D02*
X7638151Y-14171253D01*
X7638151Y-14171253D02*
X7647675Y-14133158D01*
X7647675Y-14133158D02*
X7657198Y-14114110D01*
X7657198Y-14114110D02*
X7666722Y-14104586D01*
X7666722Y-14104586D02*
X7685770Y-14095062D01*
X7942913Y-14295062D02*
X7828627Y-14295062D01*
X7885770Y-14295062D02*
X7885770Y-14095062D01*
X7885770Y-14095062D02*
X7866722Y-14123634D01*
X7866722Y-14123634D02*
X7847675Y-14142681D01*
X7847675Y-14142681D02*
X7828627Y-14152205D01*
X8133389Y-14295062D02*
X8019103Y-14295062D01*
X8076246Y-14295062D02*
X8076246Y-14095062D01*
X8076246Y-14095062D02*
X8057198Y-14123634D01*
X8057198Y-14123634D02*
X8038151Y-14142681D01*
X8038151Y-14142681D02*
X8019103Y-14152205D01*
X8247675Y-14180777D02*
X8228627Y-14171253D01*
X8228627Y-14171253D02*
X8219103Y-14161729D01*
X8219103Y-14161729D02*
X8209579Y-14142681D01*
X8209579Y-14142681D02*
X8209579Y-14133158D01*
X8209579Y-14133158D02*
X8219103Y-14114110D01*
X8219103Y-14114110D02*
X8228627Y-14104586D01*
X8228627Y-14104586D02*
X8247675Y-14095062D01*
X8247675Y-14095062D02*
X8285770Y-14095062D01*
X8285770Y-14095062D02*
X8304817Y-14104586D01*
X8304817Y-14104586D02*
X8314341Y-14114110D01*
X8314341Y-14114110D02*
X8323865Y-14133158D01*
X8323865Y-14133158D02*
X8323865Y-14142681D01*
X8323865Y-14142681D02*
X8314341Y-14161729D01*
X8314341Y-14161729D02*
X8304817Y-14171253D01*
X8304817Y-14171253D02*
X8285770Y-14180777D01*
X8285770Y-14180777D02*
X8247675Y-14180777D01*
X8247675Y-14180777D02*
X8228627Y-14190300D01*
X8228627Y-14190300D02*
X8219103Y-14199824D01*
X8219103Y-14199824D02*
X8209579Y-14218872D01*
X8209579Y-14218872D02*
X8209579Y-14256967D01*
X8209579Y-14256967D02*
X8219103Y-14276015D01*
X8219103Y-14276015D02*
X8228627Y-14285539D01*
X8228627Y-14285539D02*
X8247675Y-14295062D01*
X8247675Y-14295062D02*
X8285770Y-14295062D01*
X8285770Y-14295062D02*
X8304817Y-14285539D01*
X8304817Y-14285539D02*
X8314341Y-14276015D01*
X8314341Y-14276015D02*
X8323865Y-14256967D01*
X8323865Y-14256967D02*
X8323865Y-14218872D01*
X8323865Y-14218872D02*
X8314341Y-14199824D01*
X8314341Y-14199824D02*
X8304817Y-14190300D01*
X8304817Y-14190300D02*
X8285770Y-14180777D01*
X8400056Y-14095062D02*
X8400056Y-14133158D01*
X8476246Y-14095062D02*
X8476246Y-14133158D01*
X8771484Y-14371253D02*
X8761960Y-14361729D01*
X8761960Y-14361729D02*
X8742913Y-14333158D01*
X8742913Y-14333158D02*
X8733389Y-14314110D01*
X8733389Y-14314110D02*
X8723865Y-14285539D01*
X8723865Y-14285539D02*
X8714341Y-14237919D01*
X8714341Y-14237919D02*
X8714341Y-14199824D01*
X8714341Y-14199824D02*
X8723865Y-14152205D01*
X8723865Y-14152205D02*
X8733389Y-14123634D01*
X8733389Y-14123634D02*
X8742913Y-14104586D01*
X8742913Y-14104586D02*
X8761960Y-14076015D01*
X8761960Y-14076015D02*
X8771484Y-14066491D01*
X8952437Y-14295062D02*
X8838151Y-14295062D01*
X8895294Y-14295062D02*
X8895294Y-14095062D01*
X8895294Y-14095062D02*
X8876246Y-14123634D01*
X8876246Y-14123634D02*
X8857199Y-14142681D01*
X8857199Y-14142681D02*
X8838151Y-14152205D01*
X9019103Y-14095062D02*
X9152437Y-14095062D01*
X9152437Y-14095062D02*
X9066722Y-14295062D01*
X9209580Y-14095062D02*
X9333389Y-14095062D01*
X9333389Y-14095062D02*
X9266722Y-14171253D01*
X9266722Y-14171253D02*
X9295294Y-14171253D01*
X9295294Y-14171253D02*
X9314341Y-14180777D01*
X9314341Y-14180777D02*
X9323865Y-14190300D01*
X9323865Y-14190300D02*
X9333389Y-14209348D01*
X9333389Y-14209348D02*
X9333389Y-14256967D01*
X9333389Y-14256967D02*
X9323865Y-14276015D01*
X9323865Y-14276015D02*
X9314341Y-14285539D01*
X9314341Y-14285539D02*
X9295294Y-14295062D01*
X9295294Y-14295062D02*
X9238151Y-14295062D01*
X9238151Y-14295062D02*
X9219103Y-14285539D01*
X9219103Y-14285539D02*
X9209580Y-14276015D01*
X9571484Y-14295062D02*
X9571484Y-14095062D01*
X9657199Y-14295062D02*
X9657199Y-14190300D01*
X9657199Y-14190300D02*
X9647675Y-14171253D01*
X9647675Y-14171253D02*
X9628627Y-14161729D01*
X9628627Y-14161729D02*
X9600056Y-14161729D01*
X9600056Y-14161729D02*
X9581008Y-14171253D01*
X9581008Y-14171253D02*
X9571484Y-14180777D01*
X9781008Y-14295062D02*
X9761961Y-14285539D01*
X9761961Y-14285539D02*
X9752437Y-14276015D01*
X9752437Y-14276015D02*
X9742913Y-14256967D01*
X9742913Y-14256967D02*
X9742913Y-14199824D01*
X9742913Y-14199824D02*
X9752437Y-14180777D01*
X9752437Y-14180777D02*
X9761961Y-14171253D01*
X9761961Y-14171253D02*
X9781008Y-14161729D01*
X9781008Y-14161729D02*
X9809580Y-14161729D01*
X9809580Y-14161729D02*
X9828627Y-14171253D01*
X9828627Y-14171253D02*
X9838151Y-14180777D01*
X9838151Y-14180777D02*
X9847675Y-14199824D01*
X9847675Y-14199824D02*
X9847675Y-14256967D01*
X9847675Y-14256967D02*
X9838151Y-14276015D01*
X9838151Y-14276015D02*
X9828627Y-14285539D01*
X9828627Y-14285539D02*
X9809580Y-14295062D01*
X9809580Y-14295062D02*
X9781008Y-14295062D01*
X9961961Y-14295062D02*
X9942913Y-14285539D01*
X9942913Y-14285539D02*
X9933389Y-14266491D01*
X9933389Y-14266491D02*
X9933389Y-14095062D01*
X10114342Y-14285539D02*
X10095294Y-14295062D01*
X10095294Y-14295062D02*
X10057199Y-14295062D01*
X10057199Y-14295062D02*
X10038151Y-14285539D01*
X10038151Y-14285539D02*
X10028627Y-14266491D01*
X10028627Y-14266491D02*
X10028627Y-14190300D01*
X10028627Y-14190300D02*
X10038151Y-14171253D01*
X10038151Y-14171253D02*
X10057199Y-14161729D01*
X10057199Y-14161729D02*
X10095294Y-14161729D01*
X10095294Y-14161729D02*
X10114342Y-14171253D01*
X10114342Y-14171253D02*
X10123865Y-14190300D01*
X10123865Y-14190300D02*
X10123865Y-14209348D01*
X10123865Y-14209348D02*
X10028627Y-14228396D01*
X10200056Y-14285539D02*
X10219103Y-14295062D01*
X10219103Y-14295062D02*
X10257199Y-14295062D01*
X10257199Y-14295062D02*
X10276246Y-14285539D01*
X10276246Y-14285539D02*
X10285770Y-14266491D01*
X10285770Y-14266491D02*
X10285770Y-14256967D01*
X10285770Y-14256967D02*
X10276246Y-14237919D01*
X10276246Y-14237919D02*
X10257199Y-14228396D01*
X10257199Y-14228396D02*
X10228627Y-14228396D01*
X10228627Y-14228396D02*
X10209580Y-14218872D01*
X10209580Y-14218872D02*
X10200056Y-14199824D01*
X10200056Y-14199824D02*
X10200056Y-14190300D01*
X10200056Y-14190300D02*
X10209580Y-14171253D01*
X10209580Y-14171253D02*
X10228627Y-14161729D01*
X10228627Y-14161729D02*
X10257199Y-14161729D01*
X10257199Y-14161729D02*
X10276246Y-14171253D01*
X10352437Y-14371253D02*
X10361961Y-14361729D01*
X10361961Y-14361729D02*
X10381008Y-14333158D01*
X10381008Y-14333158D02*
X10390532Y-14314110D01*
X10390532Y-14314110D02*
X10400056Y-14285539D01*
X10400056Y-14285539D02*
X10409580Y-14237919D01*
X10409580Y-14237919D02*
X10409580Y-14199824D01*
X10409580Y-14199824D02*
X10400056Y-14152205D01*
X10400056Y-14152205D02*
X10390532Y-14123634D01*
X10390532Y-14123634D02*
X10381008Y-14104586D01*
X10381008Y-14104586D02*
X10361961Y-14076015D01*
X10361961Y-14076015D02*
X10352437Y-14066491D01*
D10*
X5196421Y-14467579D02*
G75*
G03*
X5156421Y-14467579I-20000J0D01*
G01*
X5156421Y-14467579D02*
G75*
G03*
X5196421Y-14467579I20000J0D01*
G01*
D11*
X5495293Y-14359062D02*
X5514341Y-14359062D01*
X5514341Y-14359062D02*
X5533389Y-14368586D01*
X5533389Y-14368586D02*
X5542913Y-14378110D01*
X5542913Y-14378110D02*
X5552436Y-14397158D01*
X5552436Y-14397158D02*
X5561960Y-14435253D01*
X5561960Y-14435253D02*
X5561960Y-14482872D01*
X5561960Y-14482872D02*
X5552436Y-14520967D01*
X5552436Y-14520967D02*
X5542913Y-14540015D01*
X5542913Y-14540015D02*
X5533389Y-14549539D01*
X5533389Y-14549539D02*
X5514341Y-14559062D01*
X5514341Y-14559062D02*
X5495293Y-14559062D01*
X5495293Y-14559062D02*
X5476246Y-14549539D01*
X5476246Y-14549539D02*
X5466722Y-14540015D01*
X5466722Y-14540015D02*
X5457198Y-14520967D01*
X5457198Y-14520967D02*
X5447674Y-14482872D01*
X5447674Y-14482872D02*
X5447674Y-14435253D01*
X5447674Y-14435253D02*
X5457198Y-14397158D01*
X5457198Y-14397158D02*
X5466722Y-14378110D01*
X5466722Y-14378110D02*
X5476246Y-14368586D01*
X5476246Y-14368586D02*
X5495293Y-14359062D01*
X5647674Y-14540015D02*
X5657198Y-14549539D01*
X5657198Y-14549539D02*
X5647674Y-14559062D01*
X5647674Y-14559062D02*
X5638151Y-14549539D01*
X5638151Y-14549539D02*
X5647674Y-14540015D01*
X5647674Y-14540015D02*
X5647674Y-14559062D01*
X5828627Y-14425729D02*
X5828627Y-14559062D01*
X5781008Y-14349539D02*
X5733389Y-14492396D01*
X5733389Y-14492396D02*
X5857198Y-14492396D01*
X5971484Y-14359062D02*
X5990532Y-14359062D01*
X5990532Y-14359062D02*
X6009579Y-14368586D01*
X6009579Y-14368586D02*
X6019103Y-14378110D01*
X6019103Y-14378110D02*
X6028627Y-14397158D01*
X6028627Y-14397158D02*
X6038151Y-14435253D01*
X6038151Y-14435253D02*
X6038151Y-14482872D01*
X6038151Y-14482872D02*
X6028627Y-14520967D01*
X6028627Y-14520967D02*
X6019103Y-14540015D01*
X6019103Y-14540015D02*
X6009579Y-14549539D01*
X6009579Y-14549539D02*
X5990532Y-14559062D01*
X5990532Y-14559062D02*
X5971484Y-14559062D01*
X5971484Y-14559062D02*
X5952436Y-14549539D01*
X5952436Y-14549539D02*
X5942912Y-14540015D01*
X5942912Y-14540015D02*
X5933389Y-14520967D01*
X5933389Y-14520967D02*
X5923865Y-14482872D01*
X5923865Y-14482872D02*
X5923865Y-14435253D01*
X5923865Y-14435253D02*
X5933389Y-14397158D01*
X5933389Y-14397158D02*
X5942912Y-14378110D01*
X5942912Y-14378110D02*
X5952436Y-14368586D01*
X5952436Y-14368586D02*
X5971484Y-14359062D01*
X6161960Y-14359062D02*
X6181008Y-14359062D01*
X6181008Y-14359062D02*
X6200055Y-14368586D01*
X6200055Y-14368586D02*
X6209579Y-14378110D01*
X6209579Y-14378110D02*
X6219103Y-14397158D01*
X6219103Y-14397158D02*
X6228627Y-14435253D01*
X6228627Y-14435253D02*
X6228627Y-14482872D01*
X6228627Y-14482872D02*
X6219103Y-14520967D01*
X6219103Y-14520967D02*
X6209579Y-14540015D01*
X6209579Y-14540015D02*
X6200055Y-14549539D01*
X6200055Y-14549539D02*
X6181008Y-14559062D01*
X6181008Y-14559062D02*
X6161960Y-14559062D01*
X6161960Y-14559062D02*
X6142912Y-14549539D01*
X6142912Y-14549539D02*
X6133389Y-14540015D01*
X6133389Y-14540015D02*
X6123865Y-14520967D01*
X6123865Y-14520967D02*
X6114341Y-14482872D01*
X6114341Y-14482872D02*
X6114341Y-14435253D01*
X6114341Y-14435253D02*
X6123865Y-14397158D01*
X6123865Y-14397158D02*
X6133389Y-14378110D01*
X6133389Y-14378110D02*
X6142912Y-14368586D01*
X6142912Y-14368586D02*
X6161960Y-14359062D01*
X6314341Y-14559062D02*
X6314341Y-14425729D01*
X6314341Y-14444777D02*
X6323865Y-14435253D01*
X6323865Y-14435253D02*
X6342912Y-14425729D01*
X6342912Y-14425729D02*
X6371484Y-14425729D01*
X6371484Y-14425729D02*
X6390532Y-14435253D01*
X6390532Y-14435253D02*
X6400055Y-14454300D01*
X6400055Y-14454300D02*
X6400055Y-14559062D01*
X6400055Y-14454300D02*
X6409579Y-14435253D01*
X6409579Y-14435253D02*
X6428627Y-14425729D01*
X6428627Y-14425729D02*
X6457198Y-14425729D01*
X6457198Y-14425729D02*
X6476246Y-14435253D01*
X6476246Y-14435253D02*
X6485770Y-14454300D01*
X6485770Y-14454300D02*
X6485770Y-14559062D01*
X6581008Y-14559062D02*
X6581008Y-14425729D01*
X6581008Y-14444777D02*
X6590532Y-14435253D01*
X6590532Y-14435253D02*
X6609579Y-14425729D01*
X6609579Y-14425729D02*
X6638151Y-14425729D01*
X6638151Y-14425729D02*
X6657198Y-14435253D01*
X6657198Y-14435253D02*
X6666722Y-14454300D01*
X6666722Y-14454300D02*
X6666722Y-14559062D01*
X6666722Y-14454300D02*
X6676246Y-14435253D01*
X6676246Y-14435253D02*
X6695293Y-14425729D01*
X6695293Y-14425729D02*
X6723865Y-14425729D01*
X6723865Y-14425729D02*
X6742913Y-14435253D01*
X6742913Y-14435253D02*
X6752436Y-14454300D01*
X6752436Y-14454300D02*
X6752436Y-14559062D01*
X7142913Y-14349539D02*
X6971484Y-14606681D01*
X7400055Y-14359062D02*
X7419103Y-14359062D01*
X7419103Y-14359062D02*
X7438151Y-14368586D01*
X7438151Y-14368586D02*
X7447675Y-14378110D01*
X7447675Y-14378110D02*
X7457198Y-14397158D01*
X7457198Y-14397158D02*
X7466722Y-14435253D01*
X7466722Y-14435253D02*
X7466722Y-14482872D01*
X7466722Y-14482872D02*
X7457198Y-14520967D01*
X7457198Y-14520967D02*
X7447675Y-14540015D01*
X7447675Y-14540015D02*
X7438151Y-14549539D01*
X7438151Y-14549539D02*
X7419103Y-14559062D01*
X7419103Y-14559062D02*
X7400055Y-14559062D01*
X7400055Y-14559062D02*
X7381008Y-14549539D01*
X7381008Y-14549539D02*
X7371484Y-14540015D01*
X7371484Y-14540015D02*
X7361960Y-14520967D01*
X7361960Y-14520967D02*
X7352436Y-14482872D01*
X7352436Y-14482872D02*
X7352436Y-14435253D01*
X7352436Y-14435253D02*
X7361960Y-14397158D01*
X7361960Y-14397158D02*
X7371484Y-14378110D01*
X7371484Y-14378110D02*
X7381008Y-14368586D01*
X7381008Y-14368586D02*
X7400055Y-14359062D01*
X7552436Y-14540015D02*
X7561960Y-14549539D01*
X7561960Y-14549539D02*
X7552436Y-14559062D01*
X7552436Y-14559062D02*
X7542913Y-14549539D01*
X7542913Y-14549539D02*
X7552436Y-14540015D01*
X7552436Y-14540015D02*
X7552436Y-14559062D01*
X7685770Y-14359062D02*
X7704817Y-14359062D01*
X7704817Y-14359062D02*
X7723865Y-14368586D01*
X7723865Y-14368586D02*
X7733389Y-14378110D01*
X7733389Y-14378110D02*
X7742913Y-14397158D01*
X7742913Y-14397158D02*
X7752436Y-14435253D01*
X7752436Y-14435253D02*
X7752436Y-14482872D01*
X7752436Y-14482872D02*
X7742913Y-14520967D01*
X7742913Y-14520967D02*
X7733389Y-14540015D01*
X7733389Y-14540015D02*
X7723865Y-14549539D01*
X7723865Y-14549539D02*
X7704817Y-14559062D01*
X7704817Y-14559062D02*
X7685770Y-14559062D01*
X7685770Y-14559062D02*
X7666722Y-14549539D01*
X7666722Y-14549539D02*
X7657198Y-14540015D01*
X7657198Y-14540015D02*
X7647675Y-14520967D01*
X7647675Y-14520967D02*
X7638151Y-14482872D01*
X7638151Y-14482872D02*
X7638151Y-14435253D01*
X7638151Y-14435253D02*
X7647675Y-14397158D01*
X7647675Y-14397158D02*
X7657198Y-14378110D01*
X7657198Y-14378110D02*
X7666722Y-14368586D01*
X7666722Y-14368586D02*
X7685770Y-14359062D01*
X7942913Y-14559062D02*
X7828627Y-14559062D01*
X7885770Y-14559062D02*
X7885770Y-14359062D01*
X7885770Y-14359062D02*
X7866722Y-14387634D01*
X7866722Y-14387634D02*
X7847675Y-14406681D01*
X7847675Y-14406681D02*
X7828627Y-14416205D01*
X8123865Y-14359062D02*
X8028627Y-14359062D01*
X8028627Y-14359062D02*
X8019103Y-14454300D01*
X8019103Y-14454300D02*
X8028627Y-14444777D01*
X8028627Y-14444777D02*
X8047675Y-14435253D01*
X8047675Y-14435253D02*
X8095294Y-14435253D01*
X8095294Y-14435253D02*
X8114341Y-14444777D01*
X8114341Y-14444777D02*
X8123865Y-14454300D01*
X8123865Y-14454300D02*
X8133389Y-14473348D01*
X8133389Y-14473348D02*
X8133389Y-14520967D01*
X8133389Y-14520967D02*
X8123865Y-14540015D01*
X8123865Y-14540015D02*
X8114341Y-14549539D01*
X8114341Y-14549539D02*
X8095294Y-14559062D01*
X8095294Y-14559062D02*
X8047675Y-14559062D01*
X8047675Y-14559062D02*
X8028627Y-14549539D01*
X8028627Y-14549539D02*
X8019103Y-14540015D01*
X8200056Y-14359062D02*
X8333389Y-14359062D01*
X8333389Y-14359062D02*
X8247675Y-14559062D01*
X8400056Y-14359062D02*
X8400056Y-14397158D01*
X8476246Y-14359062D02*
X8476246Y-14397158D01*
X8771484Y-14635253D02*
X8761960Y-14625729D01*
X8761960Y-14625729D02*
X8742913Y-14597158D01*
X8742913Y-14597158D02*
X8733389Y-14578110D01*
X8733389Y-14578110D02*
X8723865Y-14549539D01*
X8723865Y-14549539D02*
X8714341Y-14501919D01*
X8714341Y-14501919D02*
X8714341Y-14463824D01*
X8714341Y-14463824D02*
X8723865Y-14416205D01*
X8723865Y-14416205D02*
X8733389Y-14387634D01*
X8733389Y-14387634D02*
X8742913Y-14368586D01*
X8742913Y-14368586D02*
X8761960Y-14340015D01*
X8761960Y-14340015D02*
X8771484Y-14330491D01*
X8933389Y-14425729D02*
X8933389Y-14559062D01*
X8885770Y-14349539D02*
X8838151Y-14492396D01*
X8838151Y-14492396D02*
X8961960Y-14492396D01*
X9028627Y-14378110D02*
X9038151Y-14368586D01*
X9038151Y-14368586D02*
X9057199Y-14359062D01*
X9057199Y-14359062D02*
X9104818Y-14359062D01*
X9104818Y-14359062D02*
X9123865Y-14368586D01*
X9123865Y-14368586D02*
X9133389Y-14378110D01*
X9133389Y-14378110D02*
X9142913Y-14397158D01*
X9142913Y-14397158D02*
X9142913Y-14416205D01*
X9142913Y-14416205D02*
X9133389Y-14444777D01*
X9133389Y-14444777D02*
X9019103Y-14559062D01*
X9019103Y-14559062D02*
X9142913Y-14559062D01*
X9381008Y-14559062D02*
X9381008Y-14359062D01*
X9466722Y-14559062D02*
X9466722Y-14454300D01*
X9466722Y-14454300D02*
X9457199Y-14435253D01*
X9457199Y-14435253D02*
X9438151Y-14425729D01*
X9438151Y-14425729D02*
X9409580Y-14425729D01*
X9409580Y-14425729D02*
X9390532Y-14435253D01*
X9390532Y-14435253D02*
X9381008Y-14444777D01*
X9590532Y-14559062D02*
X9571484Y-14549539D01*
X9571484Y-14549539D02*
X9561961Y-14540015D01*
X9561961Y-14540015D02*
X9552437Y-14520967D01*
X9552437Y-14520967D02*
X9552437Y-14463824D01*
X9552437Y-14463824D02*
X9561961Y-14444777D01*
X9561961Y-14444777D02*
X9571484Y-14435253D01*
X9571484Y-14435253D02*
X9590532Y-14425729D01*
X9590532Y-14425729D02*
X9619103Y-14425729D01*
X9619103Y-14425729D02*
X9638151Y-14435253D01*
X9638151Y-14435253D02*
X9647675Y-14444777D01*
X9647675Y-14444777D02*
X9657199Y-14463824D01*
X9657199Y-14463824D02*
X9657199Y-14520967D01*
X9657199Y-14520967D02*
X9647675Y-14540015D01*
X9647675Y-14540015D02*
X9638151Y-14549539D01*
X9638151Y-14549539D02*
X9619103Y-14559062D01*
X9619103Y-14559062D02*
X9590532Y-14559062D01*
X9771484Y-14559062D02*
X9752437Y-14549539D01*
X9752437Y-14549539D02*
X9742913Y-14530491D01*
X9742913Y-14530491D02*
X9742913Y-14359062D01*
X9923865Y-14549539D02*
X9904818Y-14559062D01*
X9904818Y-14559062D02*
X9866722Y-14559062D01*
X9866722Y-14559062D02*
X9847675Y-14549539D01*
X9847675Y-14549539D02*
X9838151Y-14530491D01*
X9838151Y-14530491D02*
X9838151Y-14454300D01*
X9838151Y-14454300D02*
X9847675Y-14435253D01*
X9847675Y-14435253D02*
X9866722Y-14425729D01*
X9866722Y-14425729D02*
X9904818Y-14425729D01*
X9904818Y-14425729D02*
X9923865Y-14435253D01*
X9923865Y-14435253D02*
X9933389Y-14454300D01*
X9933389Y-14454300D02*
X9933389Y-14473348D01*
X9933389Y-14473348D02*
X9838151Y-14492396D01*
X10009580Y-14549539D02*
X10028627Y-14559062D01*
X10028627Y-14559062D02*
X10066722Y-14559062D01*
X10066722Y-14559062D02*
X10085770Y-14549539D01*
X10085770Y-14549539D02*
X10095294Y-14530491D01*
X10095294Y-14530491D02*
X10095294Y-14520967D01*
X10095294Y-14520967D02*
X10085770Y-14501919D01*
X10085770Y-14501919D02*
X10066722Y-14492396D01*
X10066722Y-14492396D02*
X10038151Y-14492396D01*
X10038151Y-14492396D02*
X10019103Y-14482872D01*
X10019103Y-14482872D02*
X10009580Y-14463824D01*
X10009580Y-14463824D02*
X10009580Y-14454300D01*
X10009580Y-14454300D02*
X10019103Y-14435253D01*
X10019103Y-14435253D02*
X10038151Y-14425729D01*
X10038151Y-14425729D02*
X10066722Y-14425729D01*
X10066722Y-14425729D02*
X10085770Y-14435253D01*
X10161961Y-14635253D02*
X10171484Y-14625729D01*
X10171484Y-14625729D02*
X10190532Y-14597158D01*
X10190532Y-14597158D02*
X10200056Y-14578110D01*
X10200056Y-14578110D02*
X10209580Y-14549539D01*
X10209580Y-14549539D02*
X10219103Y-14501919D01*
X10219103Y-14501919D02*
X10219103Y-14463824D01*
X10219103Y-14463824D02*
X10209580Y-14416205D01*
X10209580Y-14416205D02*
X10200056Y-14387634D01*
X10200056Y-14387634D02*
X10190532Y-14368586D01*
X10190532Y-14368586D02*
X10171484Y-14340015D01*
X10171484Y-14340015D02*
X10161961Y-14330491D01*
D10*
X5151421Y-14686579D02*
X5151421Y-14776579D01*
X5106421Y-14731579D02*
X5196421Y-14731579D01*
D11*
X5495293Y-14623062D02*
X5514341Y-14623062D01*
X5514341Y-14623062D02*
X5533389Y-14632586D01*
X5533389Y-14632586D02*
X5542913Y-14642110D01*
X5542913Y-14642110D02*
X5552436Y-14661158D01*
X5552436Y-14661158D02*
X5561960Y-14699253D01*
X5561960Y-14699253D02*
X5561960Y-14746872D01*
X5561960Y-14746872D02*
X5552436Y-14784967D01*
X5552436Y-14784967D02*
X5542913Y-14804015D01*
X5542913Y-14804015D02*
X5533389Y-14813539D01*
X5533389Y-14813539D02*
X5514341Y-14823062D01*
X5514341Y-14823062D02*
X5495293Y-14823062D01*
X5495293Y-14823062D02*
X5476246Y-14813539D01*
X5476246Y-14813539D02*
X5466722Y-14804015D01*
X5466722Y-14804015D02*
X5457198Y-14784967D01*
X5457198Y-14784967D02*
X5447674Y-14746872D01*
X5447674Y-14746872D02*
X5447674Y-14699253D01*
X5447674Y-14699253D02*
X5457198Y-14661158D01*
X5457198Y-14661158D02*
X5466722Y-14642110D01*
X5466722Y-14642110D02*
X5476246Y-14632586D01*
X5476246Y-14632586D02*
X5495293Y-14623062D01*
X5647674Y-14804015D02*
X5657198Y-14813539D01*
X5657198Y-14813539D02*
X5647674Y-14823062D01*
X5647674Y-14823062D02*
X5638151Y-14813539D01*
X5638151Y-14813539D02*
X5647674Y-14804015D01*
X5647674Y-14804015D02*
X5647674Y-14823062D01*
X5752436Y-14823062D02*
X5790531Y-14823062D01*
X5790531Y-14823062D02*
X5809579Y-14813539D01*
X5809579Y-14813539D02*
X5819103Y-14804015D01*
X5819103Y-14804015D02*
X5838151Y-14775443D01*
X5838151Y-14775443D02*
X5847674Y-14737348D01*
X5847674Y-14737348D02*
X5847674Y-14661158D01*
X5847674Y-14661158D02*
X5838151Y-14642110D01*
X5838151Y-14642110D02*
X5828627Y-14632586D01*
X5828627Y-14632586D02*
X5809579Y-14623062D01*
X5809579Y-14623062D02*
X5771484Y-14623062D01*
X5771484Y-14623062D02*
X5752436Y-14632586D01*
X5752436Y-14632586D02*
X5742912Y-14642110D01*
X5742912Y-14642110D02*
X5733389Y-14661158D01*
X5733389Y-14661158D02*
X5733389Y-14708777D01*
X5733389Y-14708777D02*
X5742912Y-14727824D01*
X5742912Y-14727824D02*
X5752436Y-14737348D01*
X5752436Y-14737348D02*
X5771484Y-14746872D01*
X5771484Y-14746872D02*
X5809579Y-14746872D01*
X5809579Y-14746872D02*
X5828627Y-14737348D01*
X5828627Y-14737348D02*
X5838151Y-14727824D01*
X5838151Y-14727824D02*
X5847674Y-14708777D01*
X5971484Y-14623062D02*
X5990532Y-14623062D01*
X5990532Y-14623062D02*
X6009579Y-14632586D01*
X6009579Y-14632586D02*
X6019103Y-14642110D01*
X6019103Y-14642110D02*
X6028627Y-14661158D01*
X6028627Y-14661158D02*
X6038151Y-14699253D01*
X6038151Y-14699253D02*
X6038151Y-14746872D01*
X6038151Y-14746872D02*
X6028627Y-14784967D01*
X6028627Y-14784967D02*
X6019103Y-14804015D01*
X6019103Y-14804015D02*
X6009579Y-14813539D01*
X6009579Y-14813539D02*
X5990532Y-14823062D01*
X5990532Y-14823062D02*
X5971484Y-14823062D01*
X5971484Y-14823062D02*
X5952436Y-14813539D01*
X5952436Y-14813539D02*
X5942912Y-14804015D01*
X5942912Y-14804015D02*
X5933389Y-14784967D01*
X5933389Y-14784967D02*
X5923865Y-14746872D01*
X5923865Y-14746872D02*
X5923865Y-14699253D01*
X5923865Y-14699253D02*
X5933389Y-14661158D01*
X5933389Y-14661158D02*
X5942912Y-14642110D01*
X5942912Y-14642110D02*
X5952436Y-14632586D01*
X5952436Y-14632586D02*
X5971484Y-14623062D01*
X6161960Y-14623062D02*
X6181008Y-14623062D01*
X6181008Y-14623062D02*
X6200055Y-14632586D01*
X6200055Y-14632586D02*
X6209579Y-14642110D01*
X6209579Y-14642110D02*
X6219103Y-14661158D01*
X6219103Y-14661158D02*
X6228627Y-14699253D01*
X6228627Y-14699253D02*
X6228627Y-14746872D01*
X6228627Y-14746872D02*
X6219103Y-14784967D01*
X6219103Y-14784967D02*
X6209579Y-14804015D01*
X6209579Y-14804015D02*
X6200055Y-14813539D01*
X6200055Y-14813539D02*
X6181008Y-14823062D01*
X6181008Y-14823062D02*
X6161960Y-14823062D01*
X6161960Y-14823062D02*
X6142912Y-14813539D01*
X6142912Y-14813539D02*
X6133389Y-14804015D01*
X6133389Y-14804015D02*
X6123865Y-14784967D01*
X6123865Y-14784967D02*
X6114341Y-14746872D01*
X6114341Y-14746872D02*
X6114341Y-14699253D01*
X6114341Y-14699253D02*
X6123865Y-14661158D01*
X6123865Y-14661158D02*
X6133389Y-14642110D01*
X6133389Y-14642110D02*
X6142912Y-14632586D01*
X6142912Y-14632586D02*
X6161960Y-14623062D01*
X6314341Y-14823062D02*
X6314341Y-14689729D01*
X6314341Y-14708777D02*
X6323865Y-14699253D01*
X6323865Y-14699253D02*
X6342912Y-14689729D01*
X6342912Y-14689729D02*
X6371484Y-14689729D01*
X6371484Y-14689729D02*
X6390532Y-14699253D01*
X6390532Y-14699253D02*
X6400055Y-14718300D01*
X6400055Y-14718300D02*
X6400055Y-14823062D01*
X6400055Y-14718300D02*
X6409579Y-14699253D01*
X6409579Y-14699253D02*
X6428627Y-14689729D01*
X6428627Y-14689729D02*
X6457198Y-14689729D01*
X6457198Y-14689729D02*
X6476246Y-14699253D01*
X6476246Y-14699253D02*
X6485770Y-14718300D01*
X6485770Y-14718300D02*
X6485770Y-14823062D01*
X6581008Y-14823062D02*
X6581008Y-14689729D01*
X6581008Y-14708777D02*
X6590532Y-14699253D01*
X6590532Y-14699253D02*
X6609579Y-14689729D01*
X6609579Y-14689729D02*
X6638151Y-14689729D01*
X6638151Y-14689729D02*
X6657198Y-14699253D01*
X6657198Y-14699253D02*
X6666722Y-14718300D01*
X6666722Y-14718300D02*
X6666722Y-14823062D01*
X6666722Y-14718300D02*
X6676246Y-14699253D01*
X6676246Y-14699253D02*
X6695293Y-14689729D01*
X6695293Y-14689729D02*
X6723865Y-14689729D01*
X6723865Y-14689729D02*
X6742913Y-14699253D01*
X6742913Y-14699253D02*
X6752436Y-14718300D01*
X6752436Y-14718300D02*
X6752436Y-14823062D01*
X7142913Y-14613539D02*
X6971484Y-14870681D01*
X7400055Y-14623062D02*
X7419103Y-14623062D01*
X7419103Y-14623062D02*
X7438151Y-14632586D01*
X7438151Y-14632586D02*
X7447675Y-14642110D01*
X7447675Y-14642110D02*
X7457198Y-14661158D01*
X7457198Y-14661158D02*
X7466722Y-14699253D01*
X7466722Y-14699253D02*
X7466722Y-14746872D01*
X7466722Y-14746872D02*
X7457198Y-14784967D01*
X7457198Y-14784967D02*
X7447675Y-14804015D01*
X7447675Y-14804015D02*
X7438151Y-14813539D01*
X7438151Y-14813539D02*
X7419103Y-14823062D01*
X7419103Y-14823062D02*
X7400055Y-14823062D01*
X7400055Y-14823062D02*
X7381008Y-14813539D01*
X7381008Y-14813539D02*
X7371484Y-14804015D01*
X7371484Y-14804015D02*
X7361960Y-14784967D01*
X7361960Y-14784967D02*
X7352436Y-14746872D01*
X7352436Y-14746872D02*
X7352436Y-14699253D01*
X7352436Y-14699253D02*
X7361960Y-14661158D01*
X7361960Y-14661158D02*
X7371484Y-14642110D01*
X7371484Y-14642110D02*
X7381008Y-14632586D01*
X7381008Y-14632586D02*
X7400055Y-14623062D01*
X7552436Y-14804015D02*
X7561960Y-14813539D01*
X7561960Y-14813539D02*
X7552436Y-14823062D01*
X7552436Y-14823062D02*
X7542913Y-14813539D01*
X7542913Y-14813539D02*
X7552436Y-14804015D01*
X7552436Y-14804015D02*
X7552436Y-14823062D01*
X7685770Y-14623062D02*
X7704817Y-14623062D01*
X7704817Y-14623062D02*
X7723865Y-14632586D01*
X7723865Y-14632586D02*
X7733389Y-14642110D01*
X7733389Y-14642110D02*
X7742913Y-14661158D01*
X7742913Y-14661158D02*
X7752436Y-14699253D01*
X7752436Y-14699253D02*
X7752436Y-14746872D01*
X7752436Y-14746872D02*
X7742913Y-14784967D01*
X7742913Y-14784967D02*
X7733389Y-14804015D01*
X7733389Y-14804015D02*
X7723865Y-14813539D01*
X7723865Y-14813539D02*
X7704817Y-14823062D01*
X7704817Y-14823062D02*
X7685770Y-14823062D01*
X7685770Y-14823062D02*
X7666722Y-14813539D01*
X7666722Y-14813539D02*
X7657198Y-14804015D01*
X7657198Y-14804015D02*
X7647675Y-14784967D01*
X7647675Y-14784967D02*
X7638151Y-14746872D01*
X7638151Y-14746872D02*
X7638151Y-14699253D01*
X7638151Y-14699253D02*
X7647675Y-14661158D01*
X7647675Y-14661158D02*
X7657198Y-14642110D01*
X7657198Y-14642110D02*
X7666722Y-14632586D01*
X7666722Y-14632586D02*
X7685770Y-14623062D01*
X7819103Y-14623062D02*
X7942913Y-14623062D01*
X7942913Y-14623062D02*
X7876246Y-14699253D01*
X7876246Y-14699253D02*
X7904817Y-14699253D01*
X7904817Y-14699253D02*
X7923865Y-14708777D01*
X7923865Y-14708777D02*
X7933389Y-14718300D01*
X7933389Y-14718300D02*
X7942913Y-14737348D01*
X7942913Y-14737348D02*
X7942913Y-14784967D01*
X7942913Y-14784967D02*
X7933389Y-14804015D01*
X7933389Y-14804015D02*
X7923865Y-14813539D01*
X7923865Y-14813539D02*
X7904817Y-14823062D01*
X7904817Y-14823062D02*
X7847675Y-14823062D01*
X7847675Y-14823062D02*
X7828627Y-14813539D01*
X7828627Y-14813539D02*
X7819103Y-14804015D01*
X8123865Y-14623062D02*
X8028627Y-14623062D01*
X8028627Y-14623062D02*
X8019103Y-14718300D01*
X8019103Y-14718300D02*
X8028627Y-14708777D01*
X8028627Y-14708777D02*
X8047675Y-14699253D01*
X8047675Y-14699253D02*
X8095294Y-14699253D01*
X8095294Y-14699253D02*
X8114341Y-14708777D01*
X8114341Y-14708777D02*
X8123865Y-14718300D01*
X8123865Y-14718300D02*
X8133389Y-14737348D01*
X8133389Y-14737348D02*
X8133389Y-14784967D01*
X8133389Y-14784967D02*
X8123865Y-14804015D01*
X8123865Y-14804015D02*
X8114341Y-14813539D01*
X8114341Y-14813539D02*
X8095294Y-14823062D01*
X8095294Y-14823062D02*
X8047675Y-14823062D01*
X8047675Y-14823062D02*
X8028627Y-14813539D01*
X8028627Y-14813539D02*
X8019103Y-14804015D01*
X8304817Y-14689729D02*
X8304817Y-14823062D01*
X8257198Y-14613539D02*
X8209579Y-14756396D01*
X8209579Y-14756396D02*
X8333389Y-14756396D01*
X8400056Y-14623062D02*
X8400056Y-14661158D01*
X8476246Y-14623062D02*
X8476246Y-14661158D01*
X8771484Y-14899253D02*
X8761960Y-14889729D01*
X8761960Y-14889729D02*
X8742913Y-14861158D01*
X8742913Y-14861158D02*
X8733389Y-14842110D01*
X8733389Y-14842110D02*
X8723865Y-14813539D01*
X8723865Y-14813539D02*
X8714341Y-14765919D01*
X8714341Y-14765919D02*
X8714341Y-14727824D01*
X8714341Y-14727824D02*
X8723865Y-14680205D01*
X8723865Y-14680205D02*
X8733389Y-14651634D01*
X8733389Y-14651634D02*
X8742913Y-14632586D01*
X8742913Y-14632586D02*
X8761960Y-14604015D01*
X8761960Y-14604015D02*
X8771484Y-14594491D01*
X8885770Y-14623062D02*
X8904818Y-14623062D01*
X8904818Y-14623062D02*
X8923865Y-14632586D01*
X8923865Y-14632586D02*
X8933389Y-14642110D01*
X8933389Y-14642110D02*
X8942913Y-14661158D01*
X8942913Y-14661158D02*
X8952437Y-14699253D01*
X8952437Y-14699253D02*
X8952437Y-14746872D01*
X8952437Y-14746872D02*
X8942913Y-14784967D01*
X8942913Y-14784967D02*
X8933389Y-14804015D01*
X8933389Y-14804015D02*
X8923865Y-14813539D01*
X8923865Y-14813539D02*
X8904818Y-14823062D01*
X8904818Y-14823062D02*
X8885770Y-14823062D01*
X8885770Y-14823062D02*
X8866722Y-14813539D01*
X8866722Y-14813539D02*
X8857199Y-14804015D01*
X8857199Y-14804015D02*
X8847675Y-14784967D01*
X8847675Y-14784967D02*
X8838151Y-14746872D01*
X8838151Y-14746872D02*
X8838151Y-14699253D01*
X8838151Y-14699253D02*
X8847675Y-14661158D01*
X8847675Y-14661158D02*
X8857199Y-14642110D01*
X8857199Y-14642110D02*
X8866722Y-14632586D01*
X8866722Y-14632586D02*
X8885770Y-14623062D01*
X9190532Y-14823062D02*
X9190532Y-14623062D01*
X9276246Y-14823062D02*
X9276246Y-14718300D01*
X9276246Y-14718300D02*
X9266722Y-14699253D01*
X9266722Y-14699253D02*
X9247675Y-14689729D01*
X9247675Y-14689729D02*
X9219103Y-14689729D01*
X9219103Y-14689729D02*
X9200056Y-14699253D01*
X9200056Y-14699253D02*
X9190532Y-14708777D01*
X9400056Y-14823062D02*
X9381008Y-14813539D01*
X9381008Y-14813539D02*
X9371484Y-14804015D01*
X9371484Y-14804015D02*
X9361961Y-14784967D01*
X9361961Y-14784967D02*
X9361961Y-14727824D01*
X9361961Y-14727824D02*
X9371484Y-14708777D01*
X9371484Y-14708777D02*
X9381008Y-14699253D01*
X9381008Y-14699253D02*
X9400056Y-14689729D01*
X9400056Y-14689729D02*
X9428627Y-14689729D01*
X9428627Y-14689729D02*
X9447675Y-14699253D01*
X9447675Y-14699253D02*
X9457199Y-14708777D01*
X9457199Y-14708777D02*
X9466722Y-14727824D01*
X9466722Y-14727824D02*
X9466722Y-14784967D01*
X9466722Y-14784967D02*
X9457199Y-14804015D01*
X9457199Y-14804015D02*
X9447675Y-14813539D01*
X9447675Y-14813539D02*
X9428627Y-14823062D01*
X9428627Y-14823062D02*
X9400056Y-14823062D01*
X9581008Y-14823062D02*
X9561961Y-14813539D01*
X9561961Y-14813539D02*
X9552437Y-14794491D01*
X9552437Y-14794491D02*
X9552437Y-14623062D01*
X9733389Y-14813539D02*
X9714342Y-14823062D01*
X9714342Y-14823062D02*
X9676246Y-14823062D01*
X9676246Y-14823062D02*
X9657199Y-14813539D01*
X9657199Y-14813539D02*
X9647675Y-14794491D01*
X9647675Y-14794491D02*
X9647675Y-14718300D01*
X9647675Y-14718300D02*
X9657199Y-14699253D01*
X9657199Y-14699253D02*
X9676246Y-14689729D01*
X9676246Y-14689729D02*
X9714342Y-14689729D01*
X9714342Y-14689729D02*
X9733389Y-14699253D01*
X9733389Y-14699253D02*
X9742913Y-14718300D01*
X9742913Y-14718300D02*
X9742913Y-14737348D01*
X9742913Y-14737348D02*
X9647675Y-14756396D01*
X9819103Y-14813539D02*
X9838151Y-14823062D01*
X9838151Y-14823062D02*
X9876246Y-14823062D01*
X9876246Y-14823062D02*
X9895294Y-14813539D01*
X9895294Y-14813539D02*
X9904818Y-14794491D01*
X9904818Y-14794491D02*
X9904818Y-14784967D01*
X9904818Y-14784967D02*
X9895294Y-14765919D01*
X9895294Y-14765919D02*
X9876246Y-14756396D01*
X9876246Y-14756396D02*
X9847675Y-14756396D01*
X9847675Y-14756396D02*
X9828627Y-14746872D01*
X9828627Y-14746872D02*
X9819103Y-14727824D01*
X9819103Y-14727824D02*
X9819103Y-14718300D01*
X9819103Y-14718300D02*
X9828627Y-14699253D01*
X9828627Y-14699253D02*
X9847675Y-14689729D01*
X9847675Y-14689729D02*
X9876246Y-14689729D01*
X9876246Y-14689729D02*
X9895294Y-14699253D01*
X10142913Y-14746872D02*
X10295294Y-14746872D01*
X10219104Y-14823062D02*
X10219104Y-14670681D01*
X10533389Y-14642110D02*
X10542913Y-14632586D01*
X10542913Y-14632586D02*
X10561961Y-14623062D01*
X10561961Y-14623062D02*
X10609580Y-14623062D01*
X10609580Y-14623062D02*
X10628627Y-14632586D01*
X10628627Y-14632586D02*
X10638151Y-14642110D01*
X10638151Y-14642110D02*
X10647675Y-14661158D01*
X10647675Y-14661158D02*
X10647675Y-14680205D01*
X10647675Y-14680205D02*
X10638151Y-14708777D01*
X10638151Y-14708777D02*
X10523865Y-14823062D01*
X10523865Y-14823062D02*
X10647675Y-14823062D01*
X10876246Y-14813539D02*
X10895294Y-14823062D01*
X10895294Y-14823062D02*
X10933389Y-14823062D01*
X10933389Y-14823062D02*
X10952437Y-14813539D01*
X10952437Y-14813539D02*
X10961961Y-14794491D01*
X10961961Y-14794491D02*
X10961961Y-14784967D01*
X10961961Y-14784967D02*
X10952437Y-14765919D01*
X10952437Y-14765919D02*
X10933389Y-14756396D01*
X10933389Y-14756396D02*
X10904818Y-14756396D01*
X10904818Y-14756396D02*
X10885770Y-14746872D01*
X10885770Y-14746872D02*
X10876246Y-14727824D01*
X10876246Y-14727824D02*
X10876246Y-14718300D01*
X10876246Y-14718300D02*
X10885770Y-14699253D01*
X10885770Y-14699253D02*
X10904818Y-14689729D01*
X10904818Y-14689729D02*
X10933389Y-14689729D01*
X10933389Y-14689729D02*
X10952437Y-14699253D01*
X11076246Y-14823062D02*
X11057199Y-14813539D01*
X11057199Y-14813539D02*
X11047675Y-14794491D01*
X11047675Y-14794491D02*
X11047675Y-14623062D01*
X11181008Y-14823062D02*
X11161961Y-14813539D01*
X11161961Y-14813539D02*
X11152437Y-14804015D01*
X11152437Y-14804015D02*
X11142913Y-14784967D01*
X11142913Y-14784967D02*
X11142913Y-14727824D01*
X11142913Y-14727824D02*
X11152437Y-14708777D01*
X11152437Y-14708777D02*
X11161961Y-14699253D01*
X11161961Y-14699253D02*
X11181008Y-14689729D01*
X11181008Y-14689729D02*
X11209580Y-14689729D01*
X11209580Y-14689729D02*
X11228627Y-14699253D01*
X11228627Y-14699253D02*
X11238151Y-14708777D01*
X11238151Y-14708777D02*
X11247675Y-14727824D01*
X11247675Y-14727824D02*
X11247675Y-14784967D01*
X11247675Y-14784967D02*
X11238151Y-14804015D01*
X11238151Y-14804015D02*
X11228627Y-14813539D01*
X11228627Y-14813539D02*
X11209580Y-14823062D01*
X11209580Y-14823062D02*
X11181008Y-14823062D01*
X11304818Y-14689729D02*
X11381008Y-14689729D01*
X11333389Y-14623062D02*
X11333389Y-14794491D01*
X11333389Y-14794491D02*
X11342913Y-14813539D01*
X11342913Y-14813539D02*
X11361961Y-14823062D01*
X11361961Y-14823062D02*
X11381008Y-14823062D01*
X11438151Y-14813539D02*
X11457199Y-14823062D01*
X11457199Y-14823062D02*
X11495294Y-14823062D01*
X11495294Y-14823062D02*
X11514342Y-14813539D01*
X11514342Y-14813539D02*
X11523865Y-14794491D01*
X11523865Y-14794491D02*
X11523865Y-14784967D01*
X11523865Y-14784967D02*
X11514342Y-14765919D01*
X11514342Y-14765919D02*
X11495294Y-14756396D01*
X11495294Y-14756396D02*
X11466723Y-14756396D01*
X11466723Y-14756396D02*
X11447675Y-14746872D01*
X11447675Y-14746872D02*
X11438151Y-14727824D01*
X11438151Y-14727824D02*
X11438151Y-14718300D01*
X11438151Y-14718300D02*
X11447675Y-14699253D01*
X11447675Y-14699253D02*
X11466723Y-14689729D01*
X11466723Y-14689729D02*
X11495294Y-14689729D01*
X11495294Y-14689729D02*
X11514342Y-14699253D01*
X11590532Y-14899253D02*
X11600056Y-14889729D01*
X11600056Y-14889729D02*
X11619104Y-14861158D01*
X11619104Y-14861158D02*
X11628627Y-14842110D01*
X11628627Y-14842110D02*
X11638151Y-14813539D01*
X11638151Y-14813539D02*
X11647675Y-14765919D01*
X11647675Y-14765919D02*
X11647675Y-14727824D01*
X11647675Y-14727824D02*
X11638151Y-14680205D01*
X11638151Y-14680205D02*
X11628627Y-14651634D01*
X11628627Y-14651634D02*
X11619104Y-14632586D01*
X11619104Y-14632586D02*
X11600056Y-14604015D01*
X11600056Y-14604015D02*
X11590532Y-14594491D01*
D10*
X5181777Y-15030934D02*
X5181777Y-14960223D01*
X5111066Y-14960223D01*
X5111066Y-15030934D01*
X5181777Y-15030934D01*
D11*
X5561960Y-15087062D02*
X5447674Y-15087062D01*
X5504817Y-15087062D02*
X5504817Y-14887062D01*
X5504817Y-14887062D02*
X5485770Y-14915634D01*
X5485770Y-14915634D02*
X5466722Y-14934681D01*
X5466722Y-14934681D02*
X5447674Y-14944205D01*
X5647674Y-15068015D02*
X5657198Y-15077539D01*
X5657198Y-15077539D02*
X5647674Y-15087062D01*
X5647674Y-15087062D02*
X5638151Y-15077539D01*
X5638151Y-15077539D02*
X5647674Y-15068015D01*
X5647674Y-15068015D02*
X5647674Y-15087062D01*
X5781008Y-14887062D02*
X5800055Y-14887062D01*
X5800055Y-14887062D02*
X5819103Y-14896586D01*
X5819103Y-14896586D02*
X5828627Y-14906110D01*
X5828627Y-14906110D02*
X5838151Y-14925158D01*
X5838151Y-14925158D02*
X5847674Y-14963253D01*
X5847674Y-14963253D02*
X5847674Y-15010872D01*
X5847674Y-15010872D02*
X5838151Y-15048967D01*
X5838151Y-15048967D02*
X5828627Y-15068015D01*
X5828627Y-15068015D02*
X5819103Y-15077539D01*
X5819103Y-15077539D02*
X5800055Y-15087062D01*
X5800055Y-15087062D02*
X5781008Y-15087062D01*
X5781008Y-15087062D02*
X5761960Y-15077539D01*
X5761960Y-15077539D02*
X5752436Y-15068015D01*
X5752436Y-15068015D02*
X5742912Y-15048967D01*
X5742912Y-15048967D02*
X5733389Y-15010872D01*
X5733389Y-15010872D02*
X5733389Y-14963253D01*
X5733389Y-14963253D02*
X5742912Y-14925158D01*
X5742912Y-14925158D02*
X5752436Y-14906110D01*
X5752436Y-14906110D02*
X5761960Y-14896586D01*
X5761960Y-14896586D02*
X5781008Y-14887062D01*
X5971484Y-14887062D02*
X5990532Y-14887062D01*
X5990532Y-14887062D02*
X6009579Y-14896586D01*
X6009579Y-14896586D02*
X6019103Y-14906110D01*
X6019103Y-14906110D02*
X6028627Y-14925158D01*
X6028627Y-14925158D02*
X6038151Y-14963253D01*
X6038151Y-14963253D02*
X6038151Y-15010872D01*
X6038151Y-15010872D02*
X6028627Y-15048967D01*
X6028627Y-15048967D02*
X6019103Y-15068015D01*
X6019103Y-15068015D02*
X6009579Y-15077539D01*
X6009579Y-15077539D02*
X5990532Y-15087062D01*
X5990532Y-15087062D02*
X5971484Y-15087062D01*
X5971484Y-15087062D02*
X5952436Y-15077539D01*
X5952436Y-15077539D02*
X5942912Y-15068015D01*
X5942912Y-15068015D02*
X5933389Y-15048967D01*
X5933389Y-15048967D02*
X5923865Y-15010872D01*
X5923865Y-15010872D02*
X5923865Y-14963253D01*
X5923865Y-14963253D02*
X5933389Y-14925158D01*
X5933389Y-14925158D02*
X5942912Y-14906110D01*
X5942912Y-14906110D02*
X5952436Y-14896586D01*
X5952436Y-14896586D02*
X5971484Y-14887062D01*
X6161960Y-14887062D02*
X6181008Y-14887062D01*
X6181008Y-14887062D02*
X6200055Y-14896586D01*
X6200055Y-14896586D02*
X6209579Y-14906110D01*
X6209579Y-14906110D02*
X6219103Y-14925158D01*
X6219103Y-14925158D02*
X6228627Y-14963253D01*
X6228627Y-14963253D02*
X6228627Y-15010872D01*
X6228627Y-15010872D02*
X6219103Y-15048967D01*
X6219103Y-15048967D02*
X6209579Y-15068015D01*
X6209579Y-15068015D02*
X6200055Y-15077539D01*
X6200055Y-15077539D02*
X6181008Y-15087062D01*
X6181008Y-15087062D02*
X6161960Y-15087062D01*
X6161960Y-15087062D02*
X6142912Y-15077539D01*
X6142912Y-15077539D02*
X6133389Y-15068015D01*
X6133389Y-15068015D02*
X6123865Y-15048967D01*
X6123865Y-15048967D02*
X6114341Y-15010872D01*
X6114341Y-15010872D02*
X6114341Y-14963253D01*
X6114341Y-14963253D02*
X6123865Y-14925158D01*
X6123865Y-14925158D02*
X6133389Y-14906110D01*
X6133389Y-14906110D02*
X6142912Y-14896586D01*
X6142912Y-14896586D02*
X6161960Y-14887062D01*
X6314341Y-15087062D02*
X6314341Y-14953729D01*
X6314341Y-14972777D02*
X6323865Y-14963253D01*
X6323865Y-14963253D02*
X6342912Y-14953729D01*
X6342912Y-14953729D02*
X6371484Y-14953729D01*
X6371484Y-14953729D02*
X6390532Y-14963253D01*
X6390532Y-14963253D02*
X6400055Y-14982300D01*
X6400055Y-14982300D02*
X6400055Y-15087062D01*
X6400055Y-14982300D02*
X6409579Y-14963253D01*
X6409579Y-14963253D02*
X6428627Y-14953729D01*
X6428627Y-14953729D02*
X6457198Y-14953729D01*
X6457198Y-14953729D02*
X6476246Y-14963253D01*
X6476246Y-14963253D02*
X6485770Y-14982300D01*
X6485770Y-14982300D02*
X6485770Y-15087062D01*
X6581008Y-15087062D02*
X6581008Y-14953729D01*
X6581008Y-14972777D02*
X6590532Y-14963253D01*
X6590532Y-14963253D02*
X6609579Y-14953729D01*
X6609579Y-14953729D02*
X6638151Y-14953729D01*
X6638151Y-14953729D02*
X6657198Y-14963253D01*
X6657198Y-14963253D02*
X6666722Y-14982300D01*
X6666722Y-14982300D02*
X6666722Y-15087062D01*
X6666722Y-14982300D02*
X6676246Y-14963253D01*
X6676246Y-14963253D02*
X6695293Y-14953729D01*
X6695293Y-14953729D02*
X6723865Y-14953729D01*
X6723865Y-14953729D02*
X6742913Y-14963253D01*
X6742913Y-14963253D02*
X6752436Y-14982300D01*
X6752436Y-14982300D02*
X6752436Y-15087062D01*
X7142913Y-14877539D02*
X6971484Y-15134681D01*
X7400055Y-14887062D02*
X7419103Y-14887062D01*
X7419103Y-14887062D02*
X7438151Y-14896586D01*
X7438151Y-14896586D02*
X7447675Y-14906110D01*
X7447675Y-14906110D02*
X7457198Y-14925158D01*
X7457198Y-14925158D02*
X7466722Y-14963253D01*
X7466722Y-14963253D02*
X7466722Y-15010872D01*
X7466722Y-15010872D02*
X7457198Y-15048967D01*
X7457198Y-15048967D02*
X7447675Y-15068015D01*
X7447675Y-15068015D02*
X7438151Y-15077539D01*
X7438151Y-15077539D02*
X7419103Y-15087062D01*
X7419103Y-15087062D02*
X7400055Y-15087062D01*
X7400055Y-15087062D02*
X7381008Y-15077539D01*
X7381008Y-15077539D02*
X7371484Y-15068015D01*
X7371484Y-15068015D02*
X7361960Y-15048967D01*
X7361960Y-15048967D02*
X7352436Y-15010872D01*
X7352436Y-15010872D02*
X7352436Y-14963253D01*
X7352436Y-14963253D02*
X7361960Y-14925158D01*
X7361960Y-14925158D02*
X7371484Y-14906110D01*
X7371484Y-14906110D02*
X7381008Y-14896586D01*
X7381008Y-14896586D02*
X7400055Y-14887062D01*
X7552436Y-15068015D02*
X7561960Y-15077539D01*
X7561960Y-15077539D02*
X7552436Y-15087062D01*
X7552436Y-15087062D02*
X7542913Y-15077539D01*
X7542913Y-15077539D02*
X7552436Y-15068015D01*
X7552436Y-15068015D02*
X7552436Y-15087062D01*
X7685770Y-14887062D02*
X7704817Y-14887062D01*
X7704817Y-14887062D02*
X7723865Y-14896586D01*
X7723865Y-14896586D02*
X7733389Y-14906110D01*
X7733389Y-14906110D02*
X7742913Y-14925158D01*
X7742913Y-14925158D02*
X7752436Y-14963253D01*
X7752436Y-14963253D02*
X7752436Y-15010872D01*
X7752436Y-15010872D02*
X7742913Y-15048967D01*
X7742913Y-15048967D02*
X7733389Y-15068015D01*
X7733389Y-15068015D02*
X7723865Y-15077539D01*
X7723865Y-15077539D02*
X7704817Y-15087062D01*
X7704817Y-15087062D02*
X7685770Y-15087062D01*
X7685770Y-15087062D02*
X7666722Y-15077539D01*
X7666722Y-15077539D02*
X7657198Y-15068015D01*
X7657198Y-15068015D02*
X7647675Y-15048967D01*
X7647675Y-15048967D02*
X7638151Y-15010872D01*
X7638151Y-15010872D02*
X7638151Y-14963253D01*
X7638151Y-14963253D02*
X7647675Y-14925158D01*
X7647675Y-14925158D02*
X7657198Y-14906110D01*
X7657198Y-14906110D02*
X7666722Y-14896586D01*
X7666722Y-14896586D02*
X7685770Y-14887062D01*
X7819103Y-14887062D02*
X7942913Y-14887062D01*
X7942913Y-14887062D02*
X7876246Y-14963253D01*
X7876246Y-14963253D02*
X7904817Y-14963253D01*
X7904817Y-14963253D02*
X7923865Y-14972777D01*
X7923865Y-14972777D02*
X7933389Y-14982300D01*
X7933389Y-14982300D02*
X7942913Y-15001348D01*
X7942913Y-15001348D02*
X7942913Y-15048967D01*
X7942913Y-15048967D02*
X7933389Y-15068015D01*
X7933389Y-15068015D02*
X7923865Y-15077539D01*
X7923865Y-15077539D02*
X7904817Y-15087062D01*
X7904817Y-15087062D02*
X7847675Y-15087062D01*
X7847675Y-15087062D02*
X7828627Y-15077539D01*
X7828627Y-15077539D02*
X7819103Y-15068015D01*
X8038151Y-15087062D02*
X8076246Y-15087062D01*
X8076246Y-15087062D02*
X8095294Y-15077539D01*
X8095294Y-15077539D02*
X8104817Y-15068015D01*
X8104817Y-15068015D02*
X8123865Y-15039443D01*
X8123865Y-15039443D02*
X8133389Y-15001348D01*
X8133389Y-15001348D02*
X8133389Y-14925158D01*
X8133389Y-14925158D02*
X8123865Y-14906110D01*
X8123865Y-14906110D02*
X8114341Y-14896586D01*
X8114341Y-14896586D02*
X8095294Y-14887062D01*
X8095294Y-14887062D02*
X8057198Y-14887062D01*
X8057198Y-14887062D02*
X8038151Y-14896586D01*
X8038151Y-14896586D02*
X8028627Y-14906110D01*
X8028627Y-14906110D02*
X8019103Y-14925158D01*
X8019103Y-14925158D02*
X8019103Y-14972777D01*
X8019103Y-14972777D02*
X8028627Y-14991824D01*
X8028627Y-14991824D02*
X8038151Y-15001348D01*
X8038151Y-15001348D02*
X8057198Y-15010872D01*
X8057198Y-15010872D02*
X8095294Y-15010872D01*
X8095294Y-15010872D02*
X8114341Y-15001348D01*
X8114341Y-15001348D02*
X8123865Y-14991824D01*
X8123865Y-14991824D02*
X8133389Y-14972777D01*
X8304817Y-14953729D02*
X8304817Y-15087062D01*
X8257198Y-14877539D02*
X8209579Y-15020396D01*
X8209579Y-15020396D02*
X8333389Y-15020396D01*
X8400056Y-14887062D02*
X8400056Y-14925158D01*
X8476246Y-14887062D02*
X8476246Y-14925158D01*
X8771484Y-15163253D02*
X8761960Y-15153729D01*
X8761960Y-15153729D02*
X8742913Y-15125158D01*
X8742913Y-15125158D02*
X8733389Y-15106110D01*
X8733389Y-15106110D02*
X8723865Y-15077539D01*
X8723865Y-15077539D02*
X8714341Y-15029919D01*
X8714341Y-15029919D02*
X8714341Y-14991824D01*
X8714341Y-14991824D02*
X8723865Y-14944205D01*
X8723865Y-14944205D02*
X8733389Y-14915634D01*
X8733389Y-14915634D02*
X8742913Y-14896586D01*
X8742913Y-14896586D02*
X8761960Y-14868015D01*
X8761960Y-14868015D02*
X8771484Y-14858491D01*
X8952437Y-15087062D02*
X8838151Y-15087062D01*
X8895294Y-15087062D02*
X8895294Y-14887062D01*
X8895294Y-14887062D02*
X8876246Y-14915634D01*
X8876246Y-14915634D02*
X8857199Y-14934681D01*
X8857199Y-14934681D02*
X8838151Y-14944205D01*
X9028627Y-14906110D02*
X9038151Y-14896586D01*
X9038151Y-14896586D02*
X9057199Y-14887062D01*
X9057199Y-14887062D02*
X9104818Y-14887062D01*
X9104818Y-14887062D02*
X9123865Y-14896586D01*
X9123865Y-14896586D02*
X9133389Y-14906110D01*
X9133389Y-14906110D02*
X9142913Y-14925158D01*
X9142913Y-14925158D02*
X9142913Y-14944205D01*
X9142913Y-14944205D02*
X9133389Y-14972777D01*
X9133389Y-14972777D02*
X9019103Y-15087062D01*
X9019103Y-15087062D02*
X9142913Y-15087062D01*
X9381008Y-15087062D02*
X9381008Y-14887062D01*
X9466722Y-15087062D02*
X9466722Y-14982300D01*
X9466722Y-14982300D02*
X9457199Y-14963253D01*
X9457199Y-14963253D02*
X9438151Y-14953729D01*
X9438151Y-14953729D02*
X9409580Y-14953729D01*
X9409580Y-14953729D02*
X9390532Y-14963253D01*
X9390532Y-14963253D02*
X9381008Y-14972777D01*
X9590532Y-15087062D02*
X9571484Y-15077539D01*
X9571484Y-15077539D02*
X9561961Y-15068015D01*
X9561961Y-15068015D02*
X9552437Y-15048967D01*
X9552437Y-15048967D02*
X9552437Y-14991824D01*
X9552437Y-14991824D02*
X9561961Y-14972777D01*
X9561961Y-14972777D02*
X9571484Y-14963253D01*
X9571484Y-14963253D02*
X9590532Y-14953729D01*
X9590532Y-14953729D02*
X9619103Y-14953729D01*
X9619103Y-14953729D02*
X9638151Y-14963253D01*
X9638151Y-14963253D02*
X9647675Y-14972777D01*
X9647675Y-14972777D02*
X9657199Y-14991824D01*
X9657199Y-14991824D02*
X9657199Y-15048967D01*
X9657199Y-15048967D02*
X9647675Y-15068015D01*
X9647675Y-15068015D02*
X9638151Y-15077539D01*
X9638151Y-15077539D02*
X9619103Y-15087062D01*
X9619103Y-15087062D02*
X9590532Y-15087062D01*
X9771484Y-15087062D02*
X9752437Y-15077539D01*
X9752437Y-15077539D02*
X9742913Y-15058491D01*
X9742913Y-15058491D02*
X9742913Y-14887062D01*
X9923865Y-15077539D02*
X9904818Y-15087062D01*
X9904818Y-15087062D02*
X9866722Y-15087062D01*
X9866722Y-15087062D02*
X9847675Y-15077539D01*
X9847675Y-15077539D02*
X9838151Y-15058491D01*
X9838151Y-15058491D02*
X9838151Y-14982300D01*
X9838151Y-14982300D02*
X9847675Y-14963253D01*
X9847675Y-14963253D02*
X9866722Y-14953729D01*
X9866722Y-14953729D02*
X9904818Y-14953729D01*
X9904818Y-14953729D02*
X9923865Y-14963253D01*
X9923865Y-14963253D02*
X9933389Y-14982300D01*
X9933389Y-14982300D02*
X9933389Y-15001348D01*
X9933389Y-15001348D02*
X9838151Y-15020396D01*
X10009580Y-15077539D02*
X10028627Y-15087062D01*
X10028627Y-15087062D02*
X10066722Y-15087062D01*
X10066722Y-15087062D02*
X10085770Y-15077539D01*
X10085770Y-15077539D02*
X10095294Y-15058491D01*
X10095294Y-15058491D02*
X10095294Y-15048967D01*
X10095294Y-15048967D02*
X10085770Y-15029919D01*
X10085770Y-15029919D02*
X10066722Y-15020396D01*
X10066722Y-15020396D02*
X10038151Y-15020396D01*
X10038151Y-15020396D02*
X10019103Y-15010872D01*
X10019103Y-15010872D02*
X10009580Y-14991824D01*
X10009580Y-14991824D02*
X10009580Y-14982300D01*
X10009580Y-14982300D02*
X10019103Y-14963253D01*
X10019103Y-14963253D02*
X10038151Y-14953729D01*
X10038151Y-14953729D02*
X10066722Y-14953729D01*
X10066722Y-14953729D02*
X10085770Y-14963253D01*
X10161961Y-15163253D02*
X10171484Y-15153729D01*
X10171484Y-15153729D02*
X10190532Y-15125158D01*
X10190532Y-15125158D02*
X10200056Y-15106110D01*
X10200056Y-15106110D02*
X10209580Y-15077539D01*
X10209580Y-15077539D02*
X10219103Y-15029919D01*
X10219103Y-15029919D02*
X10219103Y-14991824D01*
X10219103Y-14991824D02*
X10209580Y-14944205D01*
X10209580Y-14944205D02*
X10200056Y-14915634D01*
X10200056Y-14915634D02*
X10190532Y-14896586D01*
X10190532Y-14896586D02*
X10171484Y-14868015D01*
X10171484Y-14868015D02*
X10161961Y-14858491D01*
D12*
X5145621Y-15310379D02*
X5196421Y-15259579D01*
X5145621Y-15208779D01*
X5094821Y-15259579D01*
X5145621Y-15310379D01*
D11*
X5561960Y-15351062D02*
X5447674Y-15351062D01*
X5504817Y-15351062D02*
X5504817Y-15151062D01*
X5504817Y-15151062D02*
X5485770Y-15179634D01*
X5485770Y-15179634D02*
X5466722Y-15198681D01*
X5466722Y-15198681D02*
X5447674Y-15208205D01*
X5647674Y-15332015D02*
X5657198Y-15341539D01*
X5657198Y-15341539D02*
X5647674Y-15351062D01*
X5647674Y-15351062D02*
X5638151Y-15341539D01*
X5638151Y-15341539D02*
X5647674Y-15332015D01*
X5647674Y-15332015D02*
X5647674Y-15351062D01*
X5781008Y-15151062D02*
X5800055Y-15151062D01*
X5800055Y-15151062D02*
X5819103Y-15160586D01*
X5819103Y-15160586D02*
X5828627Y-15170110D01*
X5828627Y-15170110D02*
X5838151Y-15189158D01*
X5838151Y-15189158D02*
X5847674Y-15227253D01*
X5847674Y-15227253D02*
X5847674Y-15274872D01*
X5847674Y-15274872D02*
X5838151Y-15312967D01*
X5838151Y-15312967D02*
X5828627Y-15332015D01*
X5828627Y-15332015D02*
X5819103Y-15341539D01*
X5819103Y-15341539D02*
X5800055Y-15351062D01*
X5800055Y-15351062D02*
X5781008Y-15351062D01*
X5781008Y-15351062D02*
X5761960Y-15341539D01*
X5761960Y-15341539D02*
X5752436Y-15332015D01*
X5752436Y-15332015D02*
X5742912Y-15312967D01*
X5742912Y-15312967D02*
X5733389Y-15274872D01*
X5733389Y-15274872D02*
X5733389Y-15227253D01*
X5733389Y-15227253D02*
X5742912Y-15189158D01*
X5742912Y-15189158D02*
X5752436Y-15170110D01*
X5752436Y-15170110D02*
X5761960Y-15160586D01*
X5761960Y-15160586D02*
X5781008Y-15151062D01*
X6038151Y-15351062D02*
X5923865Y-15351062D01*
X5981008Y-15351062D02*
X5981008Y-15151062D01*
X5981008Y-15151062D02*
X5961960Y-15179634D01*
X5961960Y-15179634D02*
X5942912Y-15198681D01*
X5942912Y-15198681D02*
X5923865Y-15208205D01*
X6209579Y-15151062D02*
X6171484Y-15151062D01*
X6171484Y-15151062D02*
X6152436Y-15160586D01*
X6152436Y-15160586D02*
X6142912Y-15170110D01*
X6142912Y-15170110D02*
X6123865Y-15198681D01*
X6123865Y-15198681D02*
X6114341Y-15236777D01*
X6114341Y-15236777D02*
X6114341Y-15312967D01*
X6114341Y-15312967D02*
X6123865Y-15332015D01*
X6123865Y-15332015D02*
X6133389Y-15341539D01*
X6133389Y-15341539D02*
X6152436Y-15351062D01*
X6152436Y-15351062D02*
X6190532Y-15351062D01*
X6190532Y-15351062D02*
X6209579Y-15341539D01*
X6209579Y-15341539D02*
X6219103Y-15332015D01*
X6219103Y-15332015D02*
X6228627Y-15312967D01*
X6228627Y-15312967D02*
X6228627Y-15265348D01*
X6228627Y-15265348D02*
X6219103Y-15246300D01*
X6219103Y-15246300D02*
X6209579Y-15236777D01*
X6209579Y-15236777D02*
X6190532Y-15227253D01*
X6190532Y-15227253D02*
X6152436Y-15227253D01*
X6152436Y-15227253D02*
X6133389Y-15236777D01*
X6133389Y-15236777D02*
X6123865Y-15246300D01*
X6123865Y-15246300D02*
X6114341Y-15265348D01*
X6314341Y-15351062D02*
X6314341Y-15217729D01*
X6314341Y-15236777D02*
X6323865Y-15227253D01*
X6323865Y-15227253D02*
X6342912Y-15217729D01*
X6342912Y-15217729D02*
X6371484Y-15217729D01*
X6371484Y-15217729D02*
X6390532Y-15227253D01*
X6390532Y-15227253D02*
X6400055Y-15246300D01*
X6400055Y-15246300D02*
X6400055Y-15351062D01*
X6400055Y-15246300D02*
X6409579Y-15227253D01*
X6409579Y-15227253D02*
X6428627Y-15217729D01*
X6428627Y-15217729D02*
X6457198Y-15217729D01*
X6457198Y-15217729D02*
X6476246Y-15227253D01*
X6476246Y-15227253D02*
X6485770Y-15246300D01*
X6485770Y-15246300D02*
X6485770Y-15351062D01*
X6581008Y-15351062D02*
X6581008Y-15217729D01*
X6581008Y-15236777D02*
X6590532Y-15227253D01*
X6590532Y-15227253D02*
X6609579Y-15217729D01*
X6609579Y-15217729D02*
X6638151Y-15217729D01*
X6638151Y-15217729D02*
X6657198Y-15227253D01*
X6657198Y-15227253D02*
X6666722Y-15246300D01*
X6666722Y-15246300D02*
X6666722Y-15351062D01*
X6666722Y-15246300D02*
X6676246Y-15227253D01*
X6676246Y-15227253D02*
X6695293Y-15217729D01*
X6695293Y-15217729D02*
X6723865Y-15217729D01*
X6723865Y-15217729D02*
X6742913Y-15227253D01*
X6742913Y-15227253D02*
X6752436Y-15246300D01*
X6752436Y-15246300D02*
X6752436Y-15351062D01*
X7142913Y-15141539D02*
X6971484Y-15398681D01*
X7400055Y-15151062D02*
X7419103Y-15151062D01*
X7419103Y-15151062D02*
X7438151Y-15160586D01*
X7438151Y-15160586D02*
X7447675Y-15170110D01*
X7447675Y-15170110D02*
X7457198Y-15189158D01*
X7457198Y-15189158D02*
X7466722Y-15227253D01*
X7466722Y-15227253D02*
X7466722Y-15274872D01*
X7466722Y-15274872D02*
X7457198Y-15312967D01*
X7457198Y-15312967D02*
X7447675Y-15332015D01*
X7447675Y-15332015D02*
X7438151Y-15341539D01*
X7438151Y-15341539D02*
X7419103Y-15351062D01*
X7419103Y-15351062D02*
X7400055Y-15351062D01*
X7400055Y-15351062D02*
X7381008Y-15341539D01*
X7381008Y-15341539D02*
X7371484Y-15332015D01*
X7371484Y-15332015D02*
X7361960Y-15312967D01*
X7361960Y-15312967D02*
X7352436Y-15274872D01*
X7352436Y-15274872D02*
X7352436Y-15227253D01*
X7352436Y-15227253D02*
X7361960Y-15189158D01*
X7361960Y-15189158D02*
X7371484Y-15170110D01*
X7371484Y-15170110D02*
X7381008Y-15160586D01*
X7381008Y-15160586D02*
X7400055Y-15151062D01*
X7552436Y-15332015D02*
X7561960Y-15341539D01*
X7561960Y-15341539D02*
X7552436Y-15351062D01*
X7552436Y-15351062D02*
X7542913Y-15341539D01*
X7542913Y-15341539D02*
X7552436Y-15332015D01*
X7552436Y-15332015D02*
X7552436Y-15351062D01*
X7685770Y-15151062D02*
X7704817Y-15151062D01*
X7704817Y-15151062D02*
X7723865Y-15160586D01*
X7723865Y-15160586D02*
X7733389Y-15170110D01*
X7733389Y-15170110D02*
X7742913Y-15189158D01*
X7742913Y-15189158D02*
X7752436Y-15227253D01*
X7752436Y-15227253D02*
X7752436Y-15274872D01*
X7752436Y-15274872D02*
X7742913Y-15312967D01*
X7742913Y-15312967D02*
X7733389Y-15332015D01*
X7733389Y-15332015D02*
X7723865Y-15341539D01*
X7723865Y-15341539D02*
X7704817Y-15351062D01*
X7704817Y-15351062D02*
X7685770Y-15351062D01*
X7685770Y-15351062D02*
X7666722Y-15341539D01*
X7666722Y-15341539D02*
X7657198Y-15332015D01*
X7657198Y-15332015D02*
X7647675Y-15312967D01*
X7647675Y-15312967D02*
X7638151Y-15274872D01*
X7638151Y-15274872D02*
X7638151Y-15227253D01*
X7638151Y-15227253D02*
X7647675Y-15189158D01*
X7647675Y-15189158D02*
X7657198Y-15170110D01*
X7657198Y-15170110D02*
X7666722Y-15160586D01*
X7666722Y-15160586D02*
X7685770Y-15151062D01*
X7923865Y-15217729D02*
X7923865Y-15351062D01*
X7876246Y-15141539D02*
X7828627Y-15284396D01*
X7828627Y-15284396D02*
X7952436Y-15284396D01*
X8066722Y-15151062D02*
X8085770Y-15151062D01*
X8085770Y-15151062D02*
X8104817Y-15160586D01*
X8104817Y-15160586D02*
X8114341Y-15170110D01*
X8114341Y-15170110D02*
X8123865Y-15189158D01*
X8123865Y-15189158D02*
X8133389Y-15227253D01*
X8133389Y-15227253D02*
X8133389Y-15274872D01*
X8133389Y-15274872D02*
X8123865Y-15312967D01*
X8123865Y-15312967D02*
X8114341Y-15332015D01*
X8114341Y-15332015D02*
X8104817Y-15341539D01*
X8104817Y-15341539D02*
X8085770Y-15351062D01*
X8085770Y-15351062D02*
X8066722Y-15351062D01*
X8066722Y-15351062D02*
X8047675Y-15341539D01*
X8047675Y-15341539D02*
X8038151Y-15332015D01*
X8038151Y-15332015D02*
X8028627Y-15312967D01*
X8028627Y-15312967D02*
X8019103Y-15274872D01*
X8019103Y-15274872D02*
X8019103Y-15227253D01*
X8019103Y-15227253D02*
X8028627Y-15189158D01*
X8028627Y-15189158D02*
X8038151Y-15170110D01*
X8038151Y-15170110D02*
X8047675Y-15160586D01*
X8047675Y-15160586D02*
X8066722Y-15151062D01*
X8257198Y-15151062D02*
X8276246Y-15151062D01*
X8276246Y-15151062D02*
X8295294Y-15160586D01*
X8295294Y-15160586D02*
X8304817Y-15170110D01*
X8304817Y-15170110D02*
X8314341Y-15189158D01*
X8314341Y-15189158D02*
X8323865Y-15227253D01*
X8323865Y-15227253D02*
X8323865Y-15274872D01*
X8323865Y-15274872D02*
X8314341Y-15312967D01*
X8314341Y-15312967D02*
X8304817Y-15332015D01*
X8304817Y-15332015D02*
X8295294Y-15341539D01*
X8295294Y-15341539D02*
X8276246Y-15351062D01*
X8276246Y-15351062D02*
X8257198Y-15351062D01*
X8257198Y-15351062D02*
X8238151Y-15341539D01*
X8238151Y-15341539D02*
X8228627Y-15332015D01*
X8228627Y-15332015D02*
X8219103Y-15312967D01*
X8219103Y-15312967D02*
X8209579Y-15274872D01*
X8209579Y-15274872D02*
X8209579Y-15227253D01*
X8209579Y-15227253D02*
X8219103Y-15189158D01*
X8219103Y-15189158D02*
X8228627Y-15170110D01*
X8228627Y-15170110D02*
X8238151Y-15160586D01*
X8238151Y-15160586D02*
X8257198Y-15151062D01*
X8400056Y-15151062D02*
X8400056Y-15189158D01*
X8476246Y-15151062D02*
X8476246Y-15189158D01*
X8771484Y-15427253D02*
X8761960Y-15417729D01*
X8761960Y-15417729D02*
X8742913Y-15389158D01*
X8742913Y-15389158D02*
X8733389Y-15370110D01*
X8733389Y-15370110D02*
X8723865Y-15341539D01*
X8723865Y-15341539D02*
X8714341Y-15293919D01*
X8714341Y-15293919D02*
X8714341Y-15255824D01*
X8714341Y-15255824D02*
X8723865Y-15208205D01*
X8723865Y-15208205D02*
X8733389Y-15179634D01*
X8733389Y-15179634D02*
X8742913Y-15160586D01*
X8742913Y-15160586D02*
X8761960Y-15132015D01*
X8761960Y-15132015D02*
X8771484Y-15122491D01*
X8876246Y-15236777D02*
X8857199Y-15227253D01*
X8857199Y-15227253D02*
X8847675Y-15217729D01*
X8847675Y-15217729D02*
X8838151Y-15198681D01*
X8838151Y-15198681D02*
X8838151Y-15189158D01*
X8838151Y-15189158D02*
X8847675Y-15170110D01*
X8847675Y-15170110D02*
X8857199Y-15160586D01*
X8857199Y-15160586D02*
X8876246Y-15151062D01*
X8876246Y-15151062D02*
X8914341Y-15151062D01*
X8914341Y-15151062D02*
X8933389Y-15160586D01*
X8933389Y-15160586D02*
X8942913Y-15170110D01*
X8942913Y-15170110D02*
X8952437Y-15189158D01*
X8952437Y-15189158D02*
X8952437Y-15198681D01*
X8952437Y-15198681D02*
X8942913Y-15217729D01*
X8942913Y-15217729D02*
X8933389Y-15227253D01*
X8933389Y-15227253D02*
X8914341Y-15236777D01*
X8914341Y-15236777D02*
X8876246Y-15236777D01*
X8876246Y-15236777D02*
X8857199Y-15246300D01*
X8857199Y-15246300D02*
X8847675Y-15255824D01*
X8847675Y-15255824D02*
X8838151Y-15274872D01*
X8838151Y-15274872D02*
X8838151Y-15312967D01*
X8838151Y-15312967D02*
X8847675Y-15332015D01*
X8847675Y-15332015D02*
X8857199Y-15341539D01*
X8857199Y-15341539D02*
X8876246Y-15351062D01*
X8876246Y-15351062D02*
X8914341Y-15351062D01*
X8914341Y-15351062D02*
X8933389Y-15341539D01*
X8933389Y-15341539D02*
X8942913Y-15332015D01*
X8942913Y-15332015D02*
X8952437Y-15312967D01*
X8952437Y-15312967D02*
X8952437Y-15274872D01*
X8952437Y-15274872D02*
X8942913Y-15255824D01*
X8942913Y-15255824D02*
X8933389Y-15246300D01*
X8933389Y-15246300D02*
X8914341Y-15236777D01*
X9047675Y-15351062D02*
X9085770Y-15351062D01*
X9085770Y-15351062D02*
X9104818Y-15341539D01*
X9104818Y-15341539D02*
X9114341Y-15332015D01*
X9114341Y-15332015D02*
X9133389Y-15303443D01*
X9133389Y-15303443D02*
X9142913Y-15265348D01*
X9142913Y-15265348D02*
X9142913Y-15189158D01*
X9142913Y-15189158D02*
X9133389Y-15170110D01*
X9133389Y-15170110D02*
X9123865Y-15160586D01*
X9123865Y-15160586D02*
X9104818Y-15151062D01*
X9104818Y-15151062D02*
X9066722Y-15151062D01*
X9066722Y-15151062D02*
X9047675Y-15160586D01*
X9047675Y-15160586D02*
X9038151Y-15170110D01*
X9038151Y-15170110D02*
X9028627Y-15189158D01*
X9028627Y-15189158D02*
X9028627Y-15236777D01*
X9028627Y-15236777D02*
X9038151Y-15255824D01*
X9038151Y-15255824D02*
X9047675Y-15265348D01*
X9047675Y-15265348D02*
X9066722Y-15274872D01*
X9066722Y-15274872D02*
X9104818Y-15274872D01*
X9104818Y-15274872D02*
X9123865Y-15265348D01*
X9123865Y-15265348D02*
X9133389Y-15255824D01*
X9133389Y-15255824D02*
X9142913Y-15236777D01*
X9381008Y-15351062D02*
X9381008Y-15151062D01*
X9466722Y-15351062D02*
X9466722Y-15246300D01*
X9466722Y-15246300D02*
X9457199Y-15227253D01*
X9457199Y-15227253D02*
X9438151Y-15217729D01*
X9438151Y-15217729D02*
X9409580Y-15217729D01*
X9409580Y-15217729D02*
X9390532Y-15227253D01*
X9390532Y-15227253D02*
X9381008Y-15236777D01*
X9590532Y-15351062D02*
X9571484Y-15341539D01*
X9571484Y-15341539D02*
X9561961Y-15332015D01*
X9561961Y-15332015D02*
X9552437Y-15312967D01*
X9552437Y-15312967D02*
X9552437Y-15255824D01*
X9552437Y-15255824D02*
X9561961Y-15236777D01*
X9561961Y-15236777D02*
X9571484Y-15227253D01*
X9571484Y-15227253D02*
X9590532Y-15217729D01*
X9590532Y-15217729D02*
X9619103Y-15217729D01*
X9619103Y-15217729D02*
X9638151Y-15227253D01*
X9638151Y-15227253D02*
X9647675Y-15236777D01*
X9647675Y-15236777D02*
X9657199Y-15255824D01*
X9657199Y-15255824D02*
X9657199Y-15312967D01*
X9657199Y-15312967D02*
X9647675Y-15332015D01*
X9647675Y-15332015D02*
X9638151Y-15341539D01*
X9638151Y-15341539D02*
X9619103Y-15351062D01*
X9619103Y-15351062D02*
X9590532Y-15351062D01*
X9771484Y-15351062D02*
X9752437Y-15341539D01*
X9752437Y-15341539D02*
X9742913Y-15322491D01*
X9742913Y-15322491D02*
X9742913Y-15151062D01*
X9923865Y-15341539D02*
X9904818Y-15351062D01*
X9904818Y-15351062D02*
X9866722Y-15351062D01*
X9866722Y-15351062D02*
X9847675Y-15341539D01*
X9847675Y-15341539D02*
X9838151Y-15322491D01*
X9838151Y-15322491D02*
X9838151Y-15246300D01*
X9838151Y-15246300D02*
X9847675Y-15227253D01*
X9847675Y-15227253D02*
X9866722Y-15217729D01*
X9866722Y-15217729D02*
X9904818Y-15217729D01*
X9904818Y-15217729D02*
X9923865Y-15227253D01*
X9923865Y-15227253D02*
X9933389Y-15246300D01*
X9933389Y-15246300D02*
X9933389Y-15265348D01*
X9933389Y-15265348D02*
X9838151Y-15284396D01*
X10009580Y-15341539D02*
X10028627Y-15351062D01*
X10028627Y-15351062D02*
X10066722Y-15351062D01*
X10066722Y-15351062D02*
X10085770Y-15341539D01*
X10085770Y-15341539D02*
X10095294Y-15322491D01*
X10095294Y-15322491D02*
X10095294Y-15312967D01*
X10095294Y-15312967D02*
X10085770Y-15293919D01*
X10085770Y-15293919D02*
X10066722Y-15284396D01*
X10066722Y-15284396D02*
X10038151Y-15284396D01*
X10038151Y-15284396D02*
X10019103Y-15274872D01*
X10019103Y-15274872D02*
X10009580Y-15255824D01*
X10009580Y-15255824D02*
X10009580Y-15246300D01*
X10009580Y-15246300D02*
X10019103Y-15227253D01*
X10019103Y-15227253D02*
X10038151Y-15217729D01*
X10038151Y-15217729D02*
X10066722Y-15217729D01*
X10066722Y-15217729D02*
X10085770Y-15227253D01*
X10161961Y-15427253D02*
X10171484Y-15417729D01*
X10171484Y-15417729D02*
X10190532Y-15389158D01*
X10190532Y-15389158D02*
X10200056Y-15370110D01*
X10200056Y-15370110D02*
X10209580Y-15341539D01*
X10209580Y-15341539D02*
X10219103Y-15293919D01*
X10219103Y-15293919D02*
X10219103Y-15255824D01*
X10219103Y-15255824D02*
X10209580Y-15208205D01*
X10209580Y-15208205D02*
X10200056Y-15179634D01*
X10200056Y-15179634D02*
X10190532Y-15160586D01*
X10190532Y-15160586D02*
X10171484Y-15132015D01*
X10171484Y-15132015D02*
X10161961Y-15122491D01*
D13*
X5066421Y-15458579D02*
X5196421Y-15588579D01*
X5196421Y-15458579D02*
X5066421Y-15588579D01*
X5196421Y-15523579D02*
G75*
G03*
X5066421Y-15523579I-65000J0D01*
G01*
X5066421Y-15523579D02*
G75*
G03*
X5196421Y-15523579I65000J0D01*
G01*
D11*
X5561960Y-15615062D02*
X5447674Y-15615062D01*
X5504817Y-15615062D02*
X5504817Y-15415062D01*
X5504817Y-15415062D02*
X5485770Y-15443634D01*
X5485770Y-15443634D02*
X5466722Y-15462681D01*
X5466722Y-15462681D02*
X5447674Y-15472205D01*
X5647674Y-15596015D02*
X5657198Y-15605539D01*
X5657198Y-15605539D02*
X5647674Y-15615062D01*
X5647674Y-15615062D02*
X5638151Y-15605539D01*
X5638151Y-15605539D02*
X5647674Y-15596015D01*
X5647674Y-15596015D02*
X5647674Y-15615062D01*
X5723865Y-15415062D02*
X5847674Y-15415062D01*
X5847674Y-15415062D02*
X5781008Y-15491253D01*
X5781008Y-15491253D02*
X5809579Y-15491253D01*
X5809579Y-15491253D02*
X5828627Y-15500777D01*
X5828627Y-15500777D02*
X5838151Y-15510300D01*
X5838151Y-15510300D02*
X5847674Y-15529348D01*
X5847674Y-15529348D02*
X5847674Y-15576967D01*
X5847674Y-15576967D02*
X5838151Y-15596015D01*
X5838151Y-15596015D02*
X5828627Y-15605539D01*
X5828627Y-15605539D02*
X5809579Y-15615062D01*
X5809579Y-15615062D02*
X5752436Y-15615062D01*
X5752436Y-15615062D02*
X5733389Y-15605539D01*
X5733389Y-15605539D02*
X5723865Y-15596015D01*
X5971484Y-15415062D02*
X5990532Y-15415062D01*
X5990532Y-15415062D02*
X6009579Y-15424586D01*
X6009579Y-15424586D02*
X6019103Y-15434110D01*
X6019103Y-15434110D02*
X6028627Y-15453158D01*
X6028627Y-15453158D02*
X6038151Y-15491253D01*
X6038151Y-15491253D02*
X6038151Y-15538872D01*
X6038151Y-15538872D02*
X6028627Y-15576967D01*
X6028627Y-15576967D02*
X6019103Y-15596015D01*
X6019103Y-15596015D02*
X6009579Y-15605539D01*
X6009579Y-15605539D02*
X5990532Y-15615062D01*
X5990532Y-15615062D02*
X5971484Y-15615062D01*
X5971484Y-15615062D02*
X5952436Y-15605539D01*
X5952436Y-15605539D02*
X5942912Y-15596015D01*
X5942912Y-15596015D02*
X5933389Y-15576967D01*
X5933389Y-15576967D02*
X5923865Y-15538872D01*
X5923865Y-15538872D02*
X5923865Y-15491253D01*
X5923865Y-15491253D02*
X5933389Y-15453158D01*
X5933389Y-15453158D02*
X5942912Y-15434110D01*
X5942912Y-15434110D02*
X5952436Y-15424586D01*
X5952436Y-15424586D02*
X5971484Y-15415062D01*
X6161960Y-15415062D02*
X6181008Y-15415062D01*
X6181008Y-15415062D02*
X6200055Y-15424586D01*
X6200055Y-15424586D02*
X6209579Y-15434110D01*
X6209579Y-15434110D02*
X6219103Y-15453158D01*
X6219103Y-15453158D02*
X6228627Y-15491253D01*
X6228627Y-15491253D02*
X6228627Y-15538872D01*
X6228627Y-15538872D02*
X6219103Y-15576967D01*
X6219103Y-15576967D02*
X6209579Y-15596015D01*
X6209579Y-15596015D02*
X6200055Y-15605539D01*
X6200055Y-15605539D02*
X6181008Y-15615062D01*
X6181008Y-15615062D02*
X6161960Y-15615062D01*
X6161960Y-15615062D02*
X6142912Y-15605539D01*
X6142912Y-15605539D02*
X6133389Y-15596015D01*
X6133389Y-15596015D02*
X6123865Y-15576967D01*
X6123865Y-15576967D02*
X6114341Y-15538872D01*
X6114341Y-15538872D02*
X6114341Y-15491253D01*
X6114341Y-15491253D02*
X6123865Y-15453158D01*
X6123865Y-15453158D02*
X6133389Y-15434110D01*
X6133389Y-15434110D02*
X6142912Y-15424586D01*
X6142912Y-15424586D02*
X6161960Y-15415062D01*
X6314341Y-15615062D02*
X6314341Y-15481729D01*
X6314341Y-15500777D02*
X6323865Y-15491253D01*
X6323865Y-15491253D02*
X6342912Y-15481729D01*
X6342912Y-15481729D02*
X6371484Y-15481729D01*
X6371484Y-15481729D02*
X6390532Y-15491253D01*
X6390532Y-15491253D02*
X6400055Y-15510300D01*
X6400055Y-15510300D02*
X6400055Y-15615062D01*
X6400055Y-15510300D02*
X6409579Y-15491253D01*
X6409579Y-15491253D02*
X6428627Y-15481729D01*
X6428627Y-15481729D02*
X6457198Y-15481729D01*
X6457198Y-15481729D02*
X6476246Y-15491253D01*
X6476246Y-15491253D02*
X6485770Y-15510300D01*
X6485770Y-15510300D02*
X6485770Y-15615062D01*
X6581008Y-15615062D02*
X6581008Y-15481729D01*
X6581008Y-15500777D02*
X6590532Y-15491253D01*
X6590532Y-15491253D02*
X6609579Y-15481729D01*
X6609579Y-15481729D02*
X6638151Y-15481729D01*
X6638151Y-15481729D02*
X6657198Y-15491253D01*
X6657198Y-15491253D02*
X6666722Y-15510300D01*
X6666722Y-15510300D02*
X6666722Y-15615062D01*
X6666722Y-15510300D02*
X6676246Y-15491253D01*
X6676246Y-15491253D02*
X6695293Y-15481729D01*
X6695293Y-15481729D02*
X6723865Y-15481729D01*
X6723865Y-15481729D02*
X6742913Y-15491253D01*
X6742913Y-15491253D02*
X6752436Y-15510300D01*
X6752436Y-15510300D02*
X6752436Y-15615062D01*
X7142913Y-15405539D02*
X6971484Y-15662681D01*
X7400055Y-15415062D02*
X7419103Y-15415062D01*
X7419103Y-15415062D02*
X7438151Y-15424586D01*
X7438151Y-15424586D02*
X7447675Y-15434110D01*
X7447675Y-15434110D02*
X7457198Y-15453158D01*
X7457198Y-15453158D02*
X7466722Y-15491253D01*
X7466722Y-15491253D02*
X7466722Y-15538872D01*
X7466722Y-15538872D02*
X7457198Y-15576967D01*
X7457198Y-15576967D02*
X7447675Y-15596015D01*
X7447675Y-15596015D02*
X7438151Y-15605539D01*
X7438151Y-15605539D02*
X7419103Y-15615062D01*
X7419103Y-15615062D02*
X7400055Y-15615062D01*
X7400055Y-15615062D02*
X7381008Y-15605539D01*
X7381008Y-15605539D02*
X7371484Y-15596015D01*
X7371484Y-15596015D02*
X7361960Y-15576967D01*
X7361960Y-15576967D02*
X7352436Y-15538872D01*
X7352436Y-15538872D02*
X7352436Y-15491253D01*
X7352436Y-15491253D02*
X7361960Y-15453158D01*
X7361960Y-15453158D02*
X7371484Y-15434110D01*
X7371484Y-15434110D02*
X7381008Y-15424586D01*
X7381008Y-15424586D02*
X7400055Y-15415062D01*
X7552436Y-15596015D02*
X7561960Y-15605539D01*
X7561960Y-15605539D02*
X7552436Y-15615062D01*
X7552436Y-15615062D02*
X7542913Y-15605539D01*
X7542913Y-15605539D02*
X7552436Y-15596015D01*
X7552436Y-15596015D02*
X7552436Y-15615062D01*
X7685770Y-15415062D02*
X7704817Y-15415062D01*
X7704817Y-15415062D02*
X7723865Y-15424586D01*
X7723865Y-15424586D02*
X7733389Y-15434110D01*
X7733389Y-15434110D02*
X7742913Y-15453158D01*
X7742913Y-15453158D02*
X7752436Y-15491253D01*
X7752436Y-15491253D02*
X7752436Y-15538872D01*
X7752436Y-15538872D02*
X7742913Y-15576967D01*
X7742913Y-15576967D02*
X7733389Y-15596015D01*
X7733389Y-15596015D02*
X7723865Y-15605539D01*
X7723865Y-15605539D02*
X7704817Y-15615062D01*
X7704817Y-15615062D02*
X7685770Y-15615062D01*
X7685770Y-15615062D02*
X7666722Y-15605539D01*
X7666722Y-15605539D02*
X7657198Y-15596015D01*
X7657198Y-15596015D02*
X7647675Y-15576967D01*
X7647675Y-15576967D02*
X7638151Y-15538872D01*
X7638151Y-15538872D02*
X7638151Y-15491253D01*
X7638151Y-15491253D02*
X7647675Y-15453158D01*
X7647675Y-15453158D02*
X7657198Y-15434110D01*
X7657198Y-15434110D02*
X7666722Y-15424586D01*
X7666722Y-15424586D02*
X7685770Y-15415062D01*
X7933389Y-15415062D02*
X7838151Y-15415062D01*
X7838151Y-15415062D02*
X7828627Y-15510300D01*
X7828627Y-15510300D02*
X7838151Y-15500777D01*
X7838151Y-15500777D02*
X7857198Y-15491253D01*
X7857198Y-15491253D02*
X7904817Y-15491253D01*
X7904817Y-15491253D02*
X7923865Y-15500777D01*
X7923865Y-15500777D02*
X7933389Y-15510300D01*
X7933389Y-15510300D02*
X7942913Y-15529348D01*
X7942913Y-15529348D02*
X7942913Y-15576967D01*
X7942913Y-15576967D02*
X7933389Y-15596015D01*
X7933389Y-15596015D02*
X7923865Y-15605539D01*
X7923865Y-15605539D02*
X7904817Y-15615062D01*
X7904817Y-15615062D02*
X7857198Y-15615062D01*
X7857198Y-15615062D02*
X7838151Y-15605539D01*
X7838151Y-15605539D02*
X7828627Y-15596015D01*
X8133389Y-15615062D02*
X8019103Y-15615062D01*
X8076246Y-15615062D02*
X8076246Y-15415062D01*
X8076246Y-15415062D02*
X8057198Y-15443634D01*
X8057198Y-15443634D02*
X8038151Y-15462681D01*
X8038151Y-15462681D02*
X8019103Y-15472205D01*
X8209579Y-15434110D02*
X8219103Y-15424586D01*
X8219103Y-15424586D02*
X8238151Y-15415062D01*
X8238151Y-15415062D02*
X8285770Y-15415062D01*
X8285770Y-15415062D02*
X8304817Y-15424586D01*
X8304817Y-15424586D02*
X8314341Y-15434110D01*
X8314341Y-15434110D02*
X8323865Y-15453158D01*
X8323865Y-15453158D02*
X8323865Y-15472205D01*
X8323865Y-15472205D02*
X8314341Y-15500777D01*
X8314341Y-15500777D02*
X8200056Y-15615062D01*
X8200056Y-15615062D02*
X8323865Y-15615062D01*
X8400056Y-15415062D02*
X8400056Y-15453158D01*
X8476246Y-15415062D02*
X8476246Y-15453158D01*
X8771484Y-15691253D02*
X8761960Y-15681729D01*
X8761960Y-15681729D02*
X8742913Y-15653158D01*
X8742913Y-15653158D02*
X8733389Y-15634110D01*
X8733389Y-15634110D02*
X8723865Y-15605539D01*
X8723865Y-15605539D02*
X8714341Y-15557919D01*
X8714341Y-15557919D02*
X8714341Y-15519824D01*
X8714341Y-15519824D02*
X8723865Y-15472205D01*
X8723865Y-15472205D02*
X8733389Y-15443634D01*
X8733389Y-15443634D02*
X8742913Y-15424586D01*
X8742913Y-15424586D02*
X8761960Y-15396015D01*
X8761960Y-15396015D02*
X8771484Y-15386491D01*
X8876246Y-15500777D02*
X8857199Y-15491253D01*
X8857199Y-15491253D02*
X8847675Y-15481729D01*
X8847675Y-15481729D02*
X8838151Y-15462681D01*
X8838151Y-15462681D02*
X8838151Y-15453158D01*
X8838151Y-15453158D02*
X8847675Y-15434110D01*
X8847675Y-15434110D02*
X8857199Y-15424586D01*
X8857199Y-15424586D02*
X8876246Y-15415062D01*
X8876246Y-15415062D02*
X8914341Y-15415062D01*
X8914341Y-15415062D02*
X8933389Y-15424586D01*
X8933389Y-15424586D02*
X8942913Y-15434110D01*
X8942913Y-15434110D02*
X8952437Y-15453158D01*
X8952437Y-15453158D02*
X8952437Y-15462681D01*
X8952437Y-15462681D02*
X8942913Y-15481729D01*
X8942913Y-15481729D02*
X8933389Y-15491253D01*
X8933389Y-15491253D02*
X8914341Y-15500777D01*
X8914341Y-15500777D02*
X8876246Y-15500777D01*
X8876246Y-15500777D02*
X8857199Y-15510300D01*
X8857199Y-15510300D02*
X8847675Y-15519824D01*
X8847675Y-15519824D02*
X8838151Y-15538872D01*
X8838151Y-15538872D02*
X8838151Y-15576967D01*
X8838151Y-15576967D02*
X8847675Y-15596015D01*
X8847675Y-15596015D02*
X8857199Y-15605539D01*
X8857199Y-15605539D02*
X8876246Y-15615062D01*
X8876246Y-15615062D02*
X8914341Y-15615062D01*
X8914341Y-15615062D02*
X8933389Y-15605539D01*
X8933389Y-15605539D02*
X8942913Y-15596015D01*
X8942913Y-15596015D02*
X8952437Y-15576967D01*
X8952437Y-15576967D02*
X8952437Y-15538872D01*
X8952437Y-15538872D02*
X8942913Y-15519824D01*
X8942913Y-15519824D02*
X8933389Y-15510300D01*
X8933389Y-15510300D02*
X8914341Y-15500777D01*
X9190532Y-15615062D02*
X9190532Y-15415062D01*
X9276246Y-15615062D02*
X9276246Y-15510300D01*
X9276246Y-15510300D02*
X9266722Y-15491253D01*
X9266722Y-15491253D02*
X9247675Y-15481729D01*
X9247675Y-15481729D02*
X9219103Y-15481729D01*
X9219103Y-15481729D02*
X9200056Y-15491253D01*
X9200056Y-15491253D02*
X9190532Y-15500777D01*
X9400056Y-15615062D02*
X9381008Y-15605539D01*
X9381008Y-15605539D02*
X9371484Y-15596015D01*
X9371484Y-15596015D02*
X9361961Y-15576967D01*
X9361961Y-15576967D02*
X9361961Y-15519824D01*
X9361961Y-15519824D02*
X9371484Y-15500777D01*
X9371484Y-15500777D02*
X9381008Y-15491253D01*
X9381008Y-15491253D02*
X9400056Y-15481729D01*
X9400056Y-15481729D02*
X9428627Y-15481729D01*
X9428627Y-15481729D02*
X9447675Y-15491253D01*
X9447675Y-15491253D02*
X9457199Y-15500777D01*
X9457199Y-15500777D02*
X9466722Y-15519824D01*
X9466722Y-15519824D02*
X9466722Y-15576967D01*
X9466722Y-15576967D02*
X9457199Y-15596015D01*
X9457199Y-15596015D02*
X9447675Y-15605539D01*
X9447675Y-15605539D02*
X9428627Y-15615062D01*
X9428627Y-15615062D02*
X9400056Y-15615062D01*
X9581008Y-15615062D02*
X9561961Y-15605539D01*
X9561961Y-15605539D02*
X9552437Y-15586491D01*
X9552437Y-15586491D02*
X9552437Y-15415062D01*
X9733389Y-15605539D02*
X9714342Y-15615062D01*
X9714342Y-15615062D02*
X9676246Y-15615062D01*
X9676246Y-15615062D02*
X9657199Y-15605539D01*
X9657199Y-15605539D02*
X9647675Y-15586491D01*
X9647675Y-15586491D02*
X9647675Y-15510300D01*
X9647675Y-15510300D02*
X9657199Y-15491253D01*
X9657199Y-15491253D02*
X9676246Y-15481729D01*
X9676246Y-15481729D02*
X9714342Y-15481729D01*
X9714342Y-15481729D02*
X9733389Y-15491253D01*
X9733389Y-15491253D02*
X9742913Y-15510300D01*
X9742913Y-15510300D02*
X9742913Y-15529348D01*
X9742913Y-15529348D02*
X9647675Y-15548396D01*
X9819103Y-15605539D02*
X9838151Y-15615062D01*
X9838151Y-15615062D02*
X9876246Y-15615062D01*
X9876246Y-15615062D02*
X9895294Y-15605539D01*
X9895294Y-15605539D02*
X9904818Y-15586491D01*
X9904818Y-15586491D02*
X9904818Y-15576967D01*
X9904818Y-15576967D02*
X9895294Y-15557919D01*
X9895294Y-15557919D02*
X9876246Y-15548396D01*
X9876246Y-15548396D02*
X9847675Y-15548396D01*
X9847675Y-15548396D02*
X9828627Y-15538872D01*
X9828627Y-15538872D02*
X9819103Y-15519824D01*
X9819103Y-15519824D02*
X9819103Y-15510300D01*
X9819103Y-15510300D02*
X9828627Y-15491253D01*
X9828627Y-15491253D02*
X9847675Y-15481729D01*
X9847675Y-15481729D02*
X9876246Y-15481729D01*
X9876246Y-15481729D02*
X9895294Y-15491253D01*
X9971484Y-15691253D02*
X9981008Y-15681729D01*
X9981008Y-15681729D02*
X10000056Y-15653158D01*
X10000056Y-15653158D02*
X10009580Y-15634110D01*
X10009580Y-15634110D02*
X10019103Y-15605539D01*
X10019103Y-15605539D02*
X10028627Y-15557919D01*
X10028627Y-15557919D02*
X10028627Y-15519824D01*
X10028627Y-15519824D02*
X10019103Y-15472205D01*
X10019103Y-15472205D02*
X10009580Y-15443634D01*
X10009580Y-15443634D02*
X10000056Y-15424586D01*
X10000056Y-15424586D02*
X9981008Y-15396015D01*
X9981008Y-15396015D02*
X9971484Y-15386491D01*
M02*
